{"glyphs":{"0":{"ha":694,"x_min":81,"x_max":613,"o":"m 81 442 q 81 564 81 442 q 143 790 81 686 q 347 894 206 894 q 550 790 488 894 q 613 442 613 686 q 550 93 613 199 q 347 -12 488 -12 q 143 93 206 -12 q 81 442 81 199 m 208 149 q 227 104 208 149 q 346 60 246 60 q 485 149 446 60 q 524 444 524 238 q 486 736 524 650 q 347 822 449 822 q 208 735 246 822 q 169 443 169 649 q 208 149 169 238 z "},"1":{"ha":694,"x_min":86,"x_max":631,"o":"m 631 0 l 110 0 l 110 71 l 347 71 l 347 793 l 118 688 l 86 761 l 356 882 l 429 882 l 429 71 l 631 71 l 631 0 z "},"2":{"ha":694,"x_min":90,"x_max":622,"o":"m 472 385 q 367 289 419 335 q 193 79 231 172 l 622 79 l 622 0 l 101 0 l 101 68 q 178 204 126 139 q 285 317 231 269 l 390 411 q 507 638 507 519 q 458 770 507 719 q 337 821 410 821 q 129 728 264 821 l 90 786 q 342 893 236 893 q 519 826 449 893 q 589 628 589 758 q 472 385 589 499 z "},"3":{"ha":694,"x_min":64,"x_max":617,"o":"m 189 407 l 179 469 l 279 485 q 447 545 392 501 q 501 668 501 589 q 452 784 501 747 q 325 821 403 821 q 108 760 247 821 l 82 825 q 210 872 136 851 q 332 893 283 893 q 513 839 446 893 q 581 674 581 785 q 549 552 581 596 q 446 472 518 508 l 446 469 q 617 243 617 433 q 329 -14 617 -14 q 64 42 214 -14 l 89 113 q 326 58 229 58 q 479 104 424 58 q 535 243 535 150 q 488 380 535 336 q 340 424 440 424 l 189 407 z "},"4":{"ha":694,"x_min":60,"x_max":638,"o":"m 638 249 l 638 176 l 513 176 l 513 -14 l 436 -14 l 436 176 l 60 176 l 60 242 l 288 881 l 367 881 l 146 249 l 436 249 l 436 540 l 513 540 l 513 249 l 638 249 z "},"5":{"ha":694,"x_min":79,"x_max":619,"o":"m 357 563 q 551 490 482 563 q 619 283 619 418 q 544 67 619 149 q 331 -14 468 -14 q 79 44 221 -14 l 106 115 q 332 58 233 58 q 485 122 431 58 q 539 285 539 185 q 490 438 539 385 q 349 490 440 490 q 164 410 258 490 l 113 425 l 126 881 l 590 881 l 590 804 l 196 804 l 186 503 q 357 563 269 563 z "},"6":{"ha":694,"x_min":75,"x_max":631,"o":"m 354 561 q 560 490 489 561 q 631 283 631 419 q 558 66 631 146 q 355 -14 486 -14 q 149 65 224 -14 q 75 297 75 144 q 119 560 75 450 q 251 748 163 669 q 499 904 340 826 l 529 836 q 274 667 349 746 q 169 472 200 589 q 354 561 258 561 m 550 285 q 354 489 550 489 q 214 431 272 489 q 156 289 156 374 q 354 58 156 58 q 500 118 450 58 q 550 285 550 178 z "},"7":{"ha":694,"x_min":78,"x_max":597,"o":"m 78 735 l 104 881 l 597 881 l 597 803 q 440 454 589 719 q 341 230 386 357 q 296 0 296 103 l 214 0 q 258 239 214 107 q 358 469 303 369 l 464 667 q 518 808 514 764 l 165 808 l 146 729 l 78 735 z "},"8":{"ha":694,"x_min":69,"x_max":632,"o":"m 69 231 q 217 450 69 394 q 88 656 88 514 q 156 827 88 761 q 351 893 225 893 q 544 827 476 893 q 613 656 613 761 q 482 453 613 507 q 632 231 632 397 q 559 52 632 118 q 350 -14 486 -14 q 142 52 214 -14 q 69 231 69 118 m 351 415 q 303 415 351 415 q 202 367 254 415 q 150 233 150 318 q 201 103 150 149 q 350 57 253 57 q 499 103 447 57 q 551 234 551 150 q 500 367 551 318 q 351 415 449 415 m 350 822 q 303 822 350 822 q 212 778 257 822 q 167 657 167 733 q 212 533 167 581 q 351 485 257 485 q 489 531 444 485 q 533 655 533 576 q 488 778 533 733 q 350 822 443 822 z "},"9":{"ha":694,"x_min":88,"x_max":631,"o":"m 358 332 q 158 403 229 332 q 88 605 88 475 q 163 814 88 735 q 363 893 238 893 q 560 817 489 893 q 631 604 631 740 q 565 278 631 417 q 353 -24 500 139 l 260 -8 q 448 225 390 133 q 536 421 506 317 q 358 332 447 332 m 168 608 q 358 404 168 404 q 495 461 440 404 q 550 604 550 518 q 360 821 550 821 q 219 763 269 821 q 168 608 168 704 z "},"­":{"ha":694,"x_min":0,"x_max":0,"o":""},"¯":{"ha":694,"x_min":0,"x_max":0,"o":""},"²":{"ha":694,"x_min":0,"x_max":0,"o":""},"³":{"ha":694,"x_min":0,"x_max":0,"o":""},"´":{"ha":694,"x_min":0,"x_max":0,"o":""},"¸":{"ha":694,"x_min":0,"x_max":0,"o":""},"¹":{"ha":694,"x_min":0,"x_max":0,"o":""},"ν":{"ha":694,"x_min":0,"x_max":0,"o":""},"ξ":{"ha":694,"x_min":0,"x_max":0,"o":""},"ο":{"ha":694,"x_min":0,"x_max":0,"o":""},"―":{"ha":694,"x_min":0,"x_max":0,"o":""},"‖":{"ha":694,"x_min":0,"x_max":0,"o":""},"‗":{"ha":694,"x_min":0,"x_max":0,"o":""},"‚":{"ha":694,"x_min":0,"x_max":0,"o":""},"‛":{"ha":694,"x_min":0,"x_max":0,"o":""},"„":{"ha":694,"x_min":0,"x_max":0,"o":""},"‟":{"ha":694,"x_min":0,"x_max":0,"o":""},"‣":{"ha":694,"x_min":0,"x_max":0,"o":""},"․":{"ha":694,"x_min":0,"x_max":0,"o":""},"‥":{"ha":694,"x_min":0,"x_max":0,"o":""},"℣":{"ha":694,"x_min":0,"x_max":0,"o":""},"ℤ":{"ha":694,"x_min":0,"x_max":0,"o":""},"℥":{"ha":694,"x_min":0,"x_max":0,"o":""},"∃":{"ha":694,"x_min":0,"x_max":0,"o":""},"∄":{"ha":694,"x_min":0,"x_max":0,"o":""},"∅":{"ha":694,"x_min":0,"x_max":0,"o":""},"∐":{"ha":694,"x_min":0,"x_max":0,"o":""},"∛":{"ha":694,"x_min":0,"x_max":0,"o":""},"∜":{"ha":694,"x_min":0,"x_max":0,"o":""},"∝":{"ha":694,"x_min":0,"x_max":0,"o":""},"≡":{"ha":694,"x_min":0,"x_max":0,"o":""},"≢":{"ha":694,"x_min":0,"x_max":0,"o":""},"≣":{"ha":694,"x_min":0,"x_max":0,"o":""},"":{"ha":694,"x_min":0,"x_max":0,"o":""},"":{"ha":694,"x_min":0,"x_max":0,"o":""},"":{"ha":694,"x_min":0,"x_max":0,"o":""},"":{"ha":694,"x_min":0,"x_max":0,"o":""},"":{"ha":694,"x_min":0,"x_max":0,"o":""},"":{"ha":694,"x_min":0,"x_max":0,"o":""},"":{"ha":694,"x_min":0,"x_max":0,"o":""},"":{"ha":694,"x_min":0,"x_max":0,"o":""},"":{"ha":694,"x_min":0,"x_max":0,"o":""},"":{"ha":694,"x_min":0,"x_max":0,"o":""},"":{"ha":694,"x_min":0,"x_max":0,"o":""},"":{"ha":694,"x_min":0,"x_max":0,"o":""}," ":{"ha":694,"x_min":0,"x_max":0,"o":""},"!":{"ha":694,"x_min":271,"x_max":376,"o":"m 271 -8 l 271 111 l 376 111 l 376 -8 l 271 -8 m 290 261 l 278 956 l 369 956 l 357 261 l 290 261 z "},"\"":{"ha":694,"x_min":199,"x_max":494,"o":"m 199 643 l 199 944 l 272 944 l 272 643 l 199 643 m 421 643 l 421 944 l 494 944 l 494 643 l 421 643 z "},"#":{"ha":694,"x_min":0,"x_max":694,"o":"m 433 328 l 464 608 l 264 608 l 233 328 l 433 328 m 663 267 l 499 267 l 469 0 l 396 0 l 426 267 l 226 267 l 196 0 l 124 0 l 154 267 l 0 267 l 0 328 l 161 328 l 192 608 l 32 608 l 32 668 l 197 668 l 224 910 l 296 910 l 269 668 l 471 668 l 496 910 l 568 910 l 543 668 l 694 668 l 694 608 l 536 608 l 506 328 l 663 328 l 663 267 z "},"$":{"ha":694,"x_min":76,"x_max":601,"o":"m 350 822 q 160 669 160 822 q 201 557 160 594 q 366 490 243 519 q 545 406 489 461 q 601 242 601 351 q 534 67 601 133 q 358 -10 467 0 l 358 -128 l 289 -128 l 289 -11 q 76 29 194 -6 l 94 99 q 317 58 229 58 q 463 108 406 58 q 519 242 519 157 q 478 361 519 326 q 312 426 438 396 q 131 510 186 457 q 76 665 76 563 q 140 824 76 767 q 300 890 204 881 l 300 1007 l 371 1007 l 371 892 q 589 849 481 888 l 569 779 q 350 822 450 822 z "},"%":{"ha":694,"x_min":0,"x_max":693,"o":"m 499 924 l 576 924 l 192 0 l 114 0 l 499 924 m 49 597 q 24 622 49 597 q 0 729 0 646 q 49 861 0 813 q 171 910 97 910 q 293 861 244 910 q 342 729 342 813 q 293 597 342 646 q 171 549 244 549 q 49 597 97 549 m 97 815 q 82 800 97 815 q 67 729 67 785 q 97 643 67 674 q 171 613 126 613 q 245 643 215 613 q 275 729 275 674 q 245 815 275 785 q 171 846 215 846 q 97 815 126 846 m 400 49 q 376 73 400 49 q 351 181 351 97 q 400 313 351 264 q 522 361 449 361 q 644 313 596 361 q 693 181 693 264 q 644 49 693 97 q 522 0 596 0 q 400 49 449 0 m 448 267 q 433 251 448 267 q 418 181 418 236 q 448 94 418 125 q 522 64 478 64 q 597 94 567 64 q 626 181 626 125 q 597 267 626 236 q 522 297 567 297 q 448 267 478 297 z "},"&":{"ha":694,"x_min":7,"x_max":679,"o":"m 7 274 q 224 557 7 472 q 156 744 156 667 q 210 872 156 821 q 351 924 264 924 q 490 873 438 924 q 543 742 543 822 q 499 612 543 663 q 338 508 454 561 l 522 221 q 611 507 572 325 l 679 496 q 568 163 646 313 q 614 97 586 133 l 679 15 l 625 -29 q 521 106 558 49 q 287 -14 415 -14 q 83 62 158 -14 q 7 274 7 138 m 304 564 q 428 638 392 597 q 465 738 465 679 q 435 826 465 796 q 351 856 404 856 q 266 824 299 856 q 233 744 233 793 q 249 658 233 696 q 304 564 265 619 m 86 274 q 139 113 86 171 q 285 54 192 54 q 390 83 336 54 q 481 160 444 113 l 256 503 q 86 274 86 432 z "},"'":{"ha":694,"x_min":307,"x_max":381,"o":"m 307 643 l 307 944 l 381 944 l 381 643 l 307 643 z "},"(":{"ha":694,"x_min":250,"x_max":519,"o":"m 461 -222 q 305 80 360 -75 q 250 442 250 235 q 305 805 250 650 q 461 1106 360 960 l 519 1068 q 377 789 428 933 q 326 442 326 644 q 378 94 326 240 q 519 -183 429 -51 l 461 -222 z "},")":{"ha":694,"x_min":175,"x_max":444,"o":"m 175 -183 q 317 94 265 -51 q 368 442 368 240 q 317 789 368 644 q 175 1068 267 933 l 233 1106 q 390 805 335 960 q 444 442 444 650 q 390 80 444 235 q 233 -222 335 -75 l 175 -183 z "},"*":{"ha":694,"x_min":97,"x_max":567,"o":"m 97 701 l 97 764 l 303 764 l 240 958 l 303 979 l 364 782 l 529 903 l 567 853 l 400 731 l 567 613 l 528 558 l 363 681 l 299 486 l 236 508 l 301 701 l 97 701 z "},"+":{"ha":694,"x_min":33,"x_max":660,"o":"m 660 361 l 381 361 l 381 85 l 311 85 l 311 361 l 33 361 l 33 425 l 311 425 l 311 700 l 381 700 l 381 425 l 660 425 l 660 361 z "},",":{"ha":694,"x_min":228,"x_max":372,"o":"m 240 0 l 240 156 l 372 156 l 372 42 q 265 -199 372 -83 l 228 -165 q 296 0 290 -74 l 240 0 z "},"-":{"ha":694,"x_min":153,"x_max":551,"o":"m 153 296 l 153 371 l 551 371 l 551 296 l 153 296 z "},".":{"ha":694,"x_min":243,"x_max":396,"o":"m 243 0 l 243 168 l 396 168 l 396 0 l 243 0 z "},"/":{"ha":694,"x_min":35,"x_max":660,"o":"m 35 -35 l 608 978 l 660 947 l 85 -65 l 35 -35 z "},":":{"ha":694,"x_min":242,"x_max":394,"o":"m 242 0 l 242 168 l 394 168 l 394 0 l 242 0 m 242 403 l 242 571 l 394 571 l 394 403 l 242 403 z "},";":{"ha":694,"x_min":228,"x_max":372,"o":"m 240 421 l 240 563 l 368 563 l 368 421 l 240 421 m 240 0 l 240 156 l 372 156 l 372 42 q 265 -199 372 -83 l 228 -165 q 296 0 290 -74 l 240 0 z "},"<":{"ha":694,"x_min":61,"x_max":625,"o":"m 625 697 l 144 406 l 624 100 l 588 43 l 61 383 l 61 428 l 588 754 l 625 697 z "},"=":{"ha":694,"x_min":35,"x_max":658,"o":"m 35 288 l 658 288 l 658 226 l 35 226 l 35 288 m 35 521 l 658 521 l 658 460 l 35 460 l 35 521 z "},">":{"ha":694,"x_min":61,"x_max":625,"o":"m 542 406 l 61 697 l 99 754 l 625 428 l 625 383 l 99 43 l 63 100 l 542 406 z "},"?":{"ha":694,"x_min":94,"x_max":592,"o":"m 271 -8 l 271 121 l 389 121 l 389 -8 l 271 -8 m 356 949 q 524 894 457 949 q 592 749 592 839 q 567 610 592 660 q 468 492 542 561 q 376 393 394 424 q 357 318 357 363 q 360 224 357 274 l 288 221 q 276 324 276 265 q 300 422 276 383 q 397 529 324 460 q 491 638 471 599 q 511 739 511 676 q 469 839 511 801 q 364 876 426 876 q 253 851 301 876 q 136 772 204 825 l 94 829 q 231 919 172 890 q 356 949 289 949 z "},"@":{"ha":694,"x_min":76,"x_max":626,"o":"m 390 -151 q 160 -40 244 -151 q 76 287 76 71 q 162 616 76 503 q 406 729 247 729 q 526 716 471 729 q 603 689 581 703 l 626 676 l 626 75 q 432 38 547 38 q 251 300 249 38 q 286 458 253 389 q 432 540 326 542 q 551 524 489 540 l 551 636 q 406 663 499 663 q 219 567 288 663 q 150 288 150 472 q 219 10 150 103 q 383 -83 288 -83 q 600 -46 479 -83 l 618 -112 q 390 -151 504 -151 m 326 300 q 349 156 326 206 q 440 106 372 106 q 536 117 481 106 l 551 121 l 551 451 q 435 471 517 471 q 326 300 326 471 z "},"A":{"ha":694,"x_min":24,"x_max":669,"o":"m 24 0 l 285 910 l 418 910 l 669 0 l 588 0 l 531 210 l 163 210 l 104 0 l 24 0 m 513 279 l 363 840 l 339 840 l 182 279 l 513 279 z "},"B":{"ha":694,"x_min":93,"x_max":633,"o":"m 93 0 l 93 910 l 307 910 q 534 855 460 910 q 608 674 608 800 q 454 468 608 515 q 590 399 546 447 q 633 257 633 350 q 550 55 633 110 q 294 0 467 0 l 93 0 m 553 257 q 322 426 553 426 l 169 426 l 169 68 l 294 68 q 488 109 424 68 q 553 257 553 150 m 456 817 q 307 842 396 842 l 169 842 l 169 494 l 318 494 q 467 534 406 494 q 529 679 528 574 q 456 817 531 785 z "},"C":{"ha":694,"x_min":76,"x_max":618,"o":"m 390 -14 q 154 97 232 -14 q 76 454 76 208 q 151 812 76 700 q 392 924 226 924 q 610 889 500 924 l 610 706 l 533 706 l 533 829 q 392 851 472 851 q 213 758 267 851 q 158 457 158 665 q 217 154 158 249 q 392 60 275 60 q 600 97 479 60 l 618 25 q 390 -14 504 -14 z "},"D":{"ha":694,"x_min":83,"x_max":636,"o":"m 83 0 l 83 910 l 269 910 q 438 890 372 910 q 550 818 504 869 q 616 678 596 767 q 636 455 636 590 q 614 230 636 319 q 543 90 592 140 q 429 20 494 40 q 267 0 364 0 l 83 0 m 433 100 q 462 115 433 100 q 523 215 492 131 q 554 455 554 299 q 524 695 554 611 q 435 810 493 779 q 269 840 376 840 l 160 840 l 160 69 l 267 69 q 433 100 374 69 z "},"E":{"ha":694,"x_min":114,"x_max":592,"o":"m 114 0 l 114 910 l 588 910 l 588 842 l 190 842 l 190 497 l 550 497 l 550 429 l 190 429 l 190 68 l 592 68 l 592 0 l 114 0 z "},"F":{"ha":694,"x_min":119,"x_max":594,"o":"m 119 0 l 119 910 l 594 910 l 594 839 l 196 839 l 196 442 l 538 442 l 538 372 l 196 372 l 196 0 l 119 0 z "},"G":{"ha":694,"x_min":53,"x_max":617,"o":"m 369 -14 q 131 97 208 -14 q 53 455 53 208 q 129 813 53 701 q 378 924 206 924 q 614 879 490 924 l 594 808 q 378 851 468 851 q 191 759 247 851 q 135 458 135 667 q 193 153 135 249 q 369 58 251 58 q 540 92 440 58 l 540 369 l 383 369 l 383 438 l 617 438 l 617 38 q 369 -14 474 -14 z "},"H":{"ha":694,"x_min":75,"x_max":619,"o":"m 75 0 l 75 910 l 151 910 l 151 488 l 543 488 l 543 910 l 619 910 l 619 0 l 543 0 l 543 417 l 151 417 l 151 0 l 75 0 z "},"I":{"ha":694,"x_min":154,"x_max":542,"o":"m 154 0 l 154 69 l 311 69 l 311 840 l 154 840 l 154 910 l 542 910 l 542 840 l 388 840 l 388 69 l 542 69 l 542 0 l 154 0 z "},"J":{"ha":694,"x_min":81,"x_max":504,"o":"m 433 840 l 433 299 q 401 48 433 110 q 247 -15 368 -14 q 165 -7 224 -15 q 81 8 107 1 l 96 81 q 254 57 190 57 q 338 99 318 57 q 357 303 357 142 l 357 840 l 133 840 l 133 910 l 504 910 l 504 840 l 433 840 z "},"K":{"ha":694,"x_min":99,"x_max":639,"o":"m 542 910 l 629 910 q 381 468 490 632 q 486 289 422 406 l 639 0 l 546 0 q 315 424 390 304 l 175 410 l 175 0 l 99 0 l 99 910 l 175 910 l 175 481 l 310 494 q 506 839 408 644 l 542 910 z "},"L":{"ha":694,"x_min":126,"x_max":582,"o":"m 582 71 l 582 0 l 126 0 l 126 910 l 203 910 l 203 71 l 582 71 z "},"M":{"ha":694,"x_min":67,"x_max":626,"o":"m 67 0 l 67 910 l 140 910 l 336 400 l 357 400 l 553 910 l 626 910 l 626 0 l 551 0 l 551 706 l 546 706 l 400 329 l 293 329 l 147 707 l 142 707 l 142 0 l 67 0 z "},"N":{"ha":694,"x_min":71,"x_max":624,"o":"m 547 0 l 547 143 l 151 765 l 147 765 l 147 0 l 71 0 l 71 910 l 146 910 l 543 281 l 547 281 l 547 910 l 624 910 l 624 0 l 547 0 z "},"O":{"ha":694,"x_min":56,"x_max":639,"o":"m 56 464 q 69 651 56 572 q 114 794 83 731 q 347 924 176 924 q 603 742 542 922 q 639 497 639 638 q 625 272 639 356 q 581 122 611 189 q 347 -14 517 -14 q 115 122 181 -14 q 56 464 56 246 m 557 453 q 553 574 557 528 q 538 675 550 619 q 503 767 525 731 q 442 827 482 803 q 347 851 403 851 q 252 827 292 851 q 191 767 213 803 q 157 675 169 731 q 138 484 138 589 q 145 315 138 379 q 174 188 153 250 q 347 58 217 58 q 522 189 481 58 q 557 453 558 300 z "},"P":{"ha":694,"x_min":96,"x_max":626,"o":"m 300 333 l 172 333 l 172 0 l 96 0 l 96 910 l 300 910 q 547 847 467 910 q 626 628 626 783 q 546 403 626 472 q 300 333 465 333 m 300 840 l 172 840 l 172 403 l 300 403 q 487 454 428 403 q 546 626 546 506 q 488 794 546 747 q 300 840 429 840 z "},"Q":{"ha":694,"x_min":56,"x_max":639,"o":"m 590 -101 l 500 28 q 351 -14 439 -14 q 206 21 264 -14 q 115 122 147 56 q 56 467 56 247 q 203 892 56 808 q 338 924 261 925 q 467 901 415 924 q 550 840 518 879 q 603 742 583 800 q 639 467 639 638 q 553 81 639 194 l 635 -42 l 590 -101 m 149 642 q 145 618 149 642 q 140 556 142 594 q 138 448 138 517 q 145 315 138 379 q 174 186 153 250 q 347 57 217 57 q 450 88 408 57 l 372 164 l 407 236 l 500 142 q 557 467 557 238 q 525 725 558 647 q 429 836 489 811 q 347 853 393 853 q 265 837 301 853 q 207 790 229 821 q 170 725 185 760 q 149 642 156 690 z "},"R":{"ha":694,"x_min":85,"x_max":622,"o":"m 372 374 q 275 369 297 369 l 161 369 l 161 0 l 85 0 l 85 910 l 289 910 q 538 851 458 910 q 617 646 617 793 q 577 488 617 547 q 450 390 538 428 q 622 0 544 211 l 539 0 q 372 374 463 203 m 286 840 l 161 840 l 161 439 l 272 439 q 468 485 400 439 q 536 646 536 532 q 476 800 536 760 q 286 840 415 840 z "},"S":{"ha":694,"x_min":75,"x_max":601,"o":"m 315 437 q 252 452 315 437 q 133 524 190 467 q 75 692 75 582 q 151 863 75 801 q 346 924 226 924 q 589 881 465 924 l 569 810 q 358 851 454 851 q 210 810 261 851 q 158 692 158 769 q 200 574 158 614 q 366 501 242 533 q 546 415 490 468 q 601 242 601 361 q 522 55 601 124 q 315 -14 442 -14 q 76 26 221 -14 l 94 97 q 322 58 236 58 q 464 106 408 58 q 519 240 519 154 q 479 367 519 326 q 315 437 439 407 z "},"T":{"ha":694,"x_min":67,"x_max":625,"o":"m 67 839 l 67 910 l 625 910 l 625 839 l 383 839 l 383 0 l 307 0 l 307 839 l 67 839 z "},"U":{"ha":694,"x_min":75,"x_max":619,"o":"m 75 263 l 75 910 l 151 910 l 151 272 q 347 58 151 58 q 494 117 446 58 q 543 272 543 176 l 543 910 l 619 910 l 619 263 q 549 57 619 128 q 344 -14 479 -14 q 142 60 210 -14 q 75 263 75 133 z "},"V":{"ha":694,"x_min":60,"x_max":638,"o":"m 60 910 l 142 910 l 343 68 l 357 68 l 557 910 l 638 910 l 414 0 l 283 0 l 60 910 z "},"W":{"ha":694,"x_min":3,"x_max":692,"o":"m 104 0 l 3 910 l 82 910 l 175 69 l 190 69 l 313 508 l 386 508 l 503 69 l 519 69 l 613 910 l 692 910 l 590 0 l 450 0 l 350 392 l 346 392 l 242 0 l 104 0 z "},"X":{"ha":694,"x_min":61,"x_max":625,"o":"m 332 399 l 156 0 l 61 0 l 285 467 l 72 910 l 169 910 l 339 535 l 342 535 l 510 910 l 603 910 l 389 467 l 625 0 l 525 0 l 335 399 l 332 399 z "},"Y":{"ha":694,"x_min":40,"x_max":651,"o":"m 383 393 l 383 0 l 308 0 l 308 393 l 40 910 l 132 910 l 344 472 l 347 472 l 560 910 l 651 910 l 383 393 z "},"Z":{"ha":694,"x_min":97,"x_max":619,"o":"m 97 840 l 97 910 l 597 910 l 597 854 l 188 69 l 619 69 l 619 0 l 97 0 l 97 56 l 506 840 l 97 840 z "},"[":{"ha":694,"x_min":242,"x_max":528,"o":"m 242 -217 l 242 1101 l 528 1101 l 528 1032 l 321 1032 l 321 -147 l 528 -147 l 528 -217 l 242 -217 z "},"\\":{"ha":694,"x_min":22,"x_max":647,"o":"m 22 956 l 74 986 l 647 -26 l 597 -57 l 22 956 z "},"]":{"ha":694,"x_min":167,"x_max":453,"o":"m 167 -217 l 167 -147 l 374 -147 l 374 1032 l 167 1032 l 167 1101 l 453 1101 l 453 -217 l 167 -217 z "},"_":{"ha":694,"x_min":0,"x_max":694,"o":"m 0 -178 l 0 -118 l 694 -118 l 694 -178 l 0 -178 z "},"a":{"ha":694,"x_min":83,"x_max":588,"o":"m 303 60 q 415 92 354 60 q 503 153 475 125 l 503 318 q 328 325 411 325 q 203 290 244 325 q 161 194 161 254 q 303 60 161 60 m 301 -12 q 142 40 200 -12 q 83 188 83 92 q 147 336 83 283 q 317 390 211 390 q 503 382 422 390 q 472 551 503 506 q 349 596 442 596 q 129 551 256 596 l 108 621 q 342 668 238 668 q 528 607 479 668 q 576 393 576 546 l 576 101 l 588 -4 l 517 -11 l 503 72 q 413 16 471 44 q 301 -12 354 -12 z "},"b":{"ha":694,"x_min":107,"x_max":631,"o":"m 107 0 l 107 922 l 181 922 l 181 596 q 369 668 285 668 q 563 583 494 668 q 631 339 631 497 q 554 84 631 181 q 346 -12 478 -12 q 179 28 265 -12 l 176 0 l 107 0 m 551 338 q 551 399 551 338 q 503 528 551 460 q 365 596 456 596 q 181 517 275 596 l 181 100 q 260 73 210 86 q 343 60 311 60 q 496 138 440 60 q 551 338 551 215 z "},"c":{"ha":694,"x_min":113,"x_max":585,"o":"m 499 444 l 499 582 q 390 597 431 597 q 241 526 290 597 q 192 331 192 456 q 242 133 192 206 q 390 60 292 60 q 564 99 453 60 l 585 29 q 392 -12 475 -12 q 184 78 256 -12 q 113 332 113 169 q 183 581 113 494 q 392 668 254 668 q 574 639 483 668 l 574 444 l 499 444 z "},"d":{"ha":694,"x_min":71,"x_max":608,"o":"m 594 922 l 594 115 l 608 -6 l 538 -14 l 524 60 q 332 -12 419 -12 q 140 79 208 -12 q 71 328 71 171 q 147 577 71 486 q 356 668 224 668 q 521 631 433 668 l 521 922 l 594 922 m 150 331 q 150 269 150 331 q 198 134 150 208 q 336 60 246 60 q 521 139 426 60 l 521 556 q 441 583 492 569 q 358 596 390 596 q 205 524 260 596 q 150 331 150 453 z "},"e":{"ha":694,"x_min":93,"x_max":601,"o":"m 93 329 q 93 409 93 329 q 159 578 93 489 q 351 668 225 668 q 540 585 478 668 q 601 363 601 501 l 597 293 l 172 293 q 228 124 179 189 q 362 60 276 60 q 563 100 447 60 l 583 31 q 372 -12 471 -12 q 165 78 236 -12 q 93 329 93 169 m 357 597 q 172 363 182 597 l 522 363 q 357 597 522 597 z "},"f":{"ha":694,"x_min":113,"x_max":601,"o":"m 250 590 l 118 590 l 118 660 l 250 660 q 454 935 250 935 q 601 911 521 935 l 585 840 q 457 863 507 863 q 354 814 385 863 q 324 660 324 765 l 575 660 l 575 590 l 324 590 l 324 69 l 578 69 l 578 0 l 113 0 l 113 69 l 250 69 l 250 590 z "},"g":{"ha":694,"x_min":72,"x_max":599,"o":"m 594 160 l 599 -32 q 524 -217 599 -156 q 340 -278 450 -278 q 90 -222 231 -278 l 115 -153 q 334 -206 253 -206 q 470 -163 415 -206 q 525 -33 525 -121 q 523 16 525 -22 q 521 72 521 54 q 332 1 419 1 q 140 87 207 1 q 72 330 72 172 q 147 578 72 488 q 356 668 222 668 q 521 619 429 668 l 524 660 l 594 660 l 594 160 m 151 331 q 151 270 151 331 q 199 142 151 210 q 336 74 246 74 q 521 153 426 74 l 521 542 q 358 596 435 596 q 206 524 260 596 q 151 331 151 453 z "},"h":{"ha":694,"x_min":108,"x_max":596,"o":"m 182 539 l 182 0 l 108 0 l 108 922 l 182 922 l 182 610 q 397 668 313 668 q 596 440 596 668 l 596 0 l 522 0 l 522 440 q 492 553 522 511 q 386 596 461 596 q 182 539 311 596 z "},"i":{"ha":694,"x_min":160,"x_max":567,"o":"m 171 590 l 171 660 l 406 660 l 406 69 l 567 69 l 567 0 l 160 0 l 160 69 l 332 69 l 332 590 l 171 590 m 363 793 q 350 793 363 793 q 320 810 338 793 q 303 855 303 828 q 320 898 303 882 q 363 914 338 914 q 403 899 388 914 q 419 856 419 883 q 403 810 419 828 q 363 793 388 793 z "},"j":{"ha":694,"x_min":154,"x_max":469,"o":"m 461 660 l 461 -14 q 395 -192 461 -144 q 163 -261 329 -239 l 154 -189 q 340 -137 292 -169 q 388 -14 388 -104 l 388 592 l 211 592 l 211 660 l 461 660 m 350 856 q 411 915 350 915 q 469 853 469 914 q 411 792 469 792 q 366 809 382 792 q 350 856 350 826 z "},"k":{"ha":694,"x_min":135,"x_max":590,"o":"m 499 660 l 582 660 q 358 351 485 503 q 590 0 444 229 l 507 0 q 306 307 396 181 l 208 294 l 208 0 l 135 0 l 135 922 l 208 922 l 208 361 l 299 375 q 499 660 397 503 z "},"l":{"ha":694,"x_min":146,"x_max":560,"o":"m 151 853 l 150 921 l 390 922 l 390 69 l 560 69 l 560 0 l 146 0 l 146 69 l 317 69 l 317 854 l 151 853 z "},"m":{"ha":694,"x_min":49,"x_max":649,"o":"m 118 660 l 122 618 q 229 668 192 668 q 356 608 321 668 q 492 668 433 668 q 615 613 582 668 q 649 442 649 557 l 649 0 l 575 0 l 575 442 q 558 559 575 521 q 494 597 542 597 q 378 553 447 597 q 386 442 386 506 l 386 211 l 313 211 l 313 442 q 296 558 313 521 q 231 597 278 597 q 122 553 183 597 l 122 0 l 49 0 l 49 660 l 118 660 z "},"n":{"ha":694,"x_min":106,"x_max":593,"o":"m 176 660 l 179 604 q 403 668 314 668 q 542 607 492 668 q 593 440 593 546 l 593 0 l 519 0 l 519 440 q 486 553 519 508 q 386 596 453 596 q 179 535 319 596 l 179 0 l 106 0 l 106 660 l 176 660 z "},"o":{"ha":694,"x_min":82,"x_max":613,"o":"m 82 328 q 82 498 82 328 q 347 668 82 668 q 613 328 613 668 q 347 -12 613 -12 q 82 328 82 -12 m 347 596 q 254 596 347 596 q 161 328 161 596 q 347 60 161 60 q 533 328 533 60 q 347 596 533 596 z "},"p":{"ha":694,"x_min":94,"x_max":629,"o":"m 107 -267 l 107 540 l 94 661 l 164 669 l 176 594 q 369 668 278 668 q 561 578 493 668 q 629 329 629 488 q 554 79 629 171 q 346 -12 479 -12 q 181 25 268 -12 l 181 -267 l 107 -267 m 550 327 q 550 389 550 327 q 503 523 550 450 q 367 596 456 596 q 181 517 279 596 l 181 100 q 260 73 210 86 q 343 60 311 60 q 496 132 442 60 q 550 327 550 204 z "},"q":{"ha":694,"x_min":72,"x_max":594,"o":"m 594 660 l 594 -264 l 521 -264 l 521 58 q 332 -12 419 -12 q 140 79 208 -12 q 72 329 72 171 q 147 578 72 488 q 356 668 222 668 q 521 619 429 668 l 524 660 l 594 660 m 151 330 q 151 268 151 330 q 199 133 151 207 q 337 60 247 60 q 521 139 426 60 l 521 542 q 358 596 435 596 q 206 524 260 596 q 151 330 151 453 z "},"r":{"ha":694,"x_min":126,"x_max":600,"o":"m 126 590 l 126 660 l 331 660 l 333 579 q 458 635 378 607 q 600 668 539 663 l 600 586 q 459 558 543 582 q 333 510 375 535 l 333 69 l 556 69 l 556 0 l 126 0 l 126 69 l 257 69 l 257 590 l 126 590 z "},"s":{"ha":694,"x_min":108,"x_max":574,"o":"m 108 32 l 126 104 q 339 58 264 58 q 455 91 414 58 q 496 178 496 124 q 463 258 496 232 q 328 307 431 283 q 174 375 225 331 q 122 500 122 417 q 185 627 122 583 q 349 671 249 671 q 565 626 449 671 l 546 561 q 356 600 428 600 q 242 575 283 600 q 200 500 200 547 q 237 426 200 453 q 379 374 274 400 q 529 306 485 347 q 574 178 574 265 q 514 39 574 90 q 347 -12 456 -12 q 108 32 239 -12 z "},"t":{"ha":694,"x_min":106,"x_max":569,"o":"m 222 581 l 106 581 l 106 650 l 222 650 l 222 810 l 296 824 l 296 650 l 560 650 l 560 581 l 296 581 l 296 256 q 317 103 296 147 q 406 58 339 58 q 553 85 472 58 l 569 15 q 419 -14 489 -14 q 310 4 350 -14 q 252 62 271 22 q 228 143 233 101 q 222 253 222 185 l 222 581 z "},"u":{"ha":694,"x_min":103,"x_max":590,"o":"m 519 0 l 517 57 q 294 -12 383 -12 q 154 49 206 -12 q 103 215 103 110 l 103 660 l 176 660 l 176 215 q 209 103 176 147 q 308 60 242 60 q 517 129 375 60 l 517 660 l 590 660 l 590 0 l 519 0 z "},"v":{"ha":694,"x_min":74,"x_max":622,"o":"m 74 660 l 157 660 l 339 67 l 364 67 l 539 660 l 622 660 l 421 0 l 282 0 l 74 660 z "},"w":{"ha":694,"x_min":49,"x_max":646,"o":"m 574 660 l 646 660 l 567 0 l 419 0 l 349 288 l 343 288 l 271 0 l 125 0 l 49 660 l 121 660 l 193 67 l 218 67 l 311 401 l 383 401 l 476 67 l 501 67 l 574 660 z "},"x":{"ha":694,"x_min":76,"x_max":619,"o":"m 83 660 l 179 660 l 347 388 l 514 660 l 607 660 l 399 335 l 619 0 l 525 0 l 347 282 l 171 0 l 76 0 l 300 335 l 83 660 z "},"y":{"ha":694,"x_min":74,"x_max":622,"o":"m 74 660 l 157 660 l 353 99 l 364 99 l 539 660 l 622 660 l 367 -112 q 291 -253 331 -222 q 131 -286 251 -283 l 131 -215 q 235 -193 208 -214 q 283 -106 261 -172 l 315 -10 l 74 660 z "},"z":{"ha":694,"x_min":108,"x_max":585,"o":"m 121 590 l 121 660 l 574 660 l 581 603 l 207 69 l 585 69 l 585 0 l 119 0 l 108 57 l 481 590 l 121 590 z "},"{":{"ha":694,"x_min":144,"x_max":542,"o":"m 144 417 l 144 489 l 269 553 q 263 796 269 669 q 256 964 256 922 q 392 1101 256 1101 l 542 1101 l 542 1032 l 399 1032 q 335 956 335 1032 q 342 767 335 910 q 349 508 349 624 l 224 458 l 224 447 l 349 396 q 342 141 349 293 q 335 -71 335 -11 q 399 -147 335 -147 l 542 -147 l 542 -217 l 392 -217 q 256 -79 256 -217 q 263 113 256 -24 q 269 351 269 249 l 144 417 z "},"|":{"ha":694,"x_min":311,"x_max":385,"o":"m 385 1032 l 385 -339 l 311 -339 l 311 1032 l 385 1032 z "},"}":{"ha":694,"x_min":131,"x_max":528,"o":"m 131 -217 l 131 -147 l 274 -147 q 338 -71 338 -147 q 331 141 338 -11 q 324 396 324 293 l 449 447 l 449 457 l 324 508 q 331 767 324 624 q 338 956 338 910 q 274 1032 338 1032 l 131 1032 l 131 1101 l 281 1101 q 417 964 417 1101 q 410 796 417 922 q 403 553 403 669 l 528 488 l 528 417 l 403 351 q 410 113 403 249 q 417 -79 417 -24 q 281 -217 417 -217 l 131 -217 z "},"~":{"ha":694,"x_min":36,"x_max":658,"o":"m 610 439 l 658 397 q 569 315 607 342 q 486 289 531 289 q 389 316 442 289 q 290 370 336 343 q 211 397 244 397 q 86 311 167 399 l 36 354 q 211 463 138 463 q 358 408 267 463 q 489 354 450 354 q 610 439 528 354 z "},"¡":{"ha":694,"x_min":256,"x_max":361,"o":"m 361 697 l 361 578 l 256 578 l 256 697 l 361 697 m 342 428 l 354 -267 l 263 -267 l 275 428 l 342 428 z "},"¢":{"ha":694,"x_min":113,"x_max":585,"o":"m 113 329 q 351 665 113 640 l 351 763 l 425 763 l 425 667 q 561 642 500 660 l 543 572 q 390 597 468 597 q 241 526 290 597 q 192 331 192 456 q 242 132 192 206 q 390 58 292 58 q 564 97 453 58 l 585 28 q 428 -11 504 -3 l 428 -100 l 354 -100 l 354 -11 q 174 90 235 1 q 113 329 113 179 z "},"£":{"ha":694,"x_min":76,"x_max":646,"o":"m 78 426 l 78 497 l 174 497 q 143 646 143 571 q 207 831 143 768 q 393 894 271 894 q 579 868 478 894 l 567 799 q 388 824 475 824 q 261 781 301 824 q 221 649 221 738 q 250 497 221 561 l 526 497 l 526 426 l 276 426 q 286 397 278 424 l 300 361 q 311 286 311 325 q 190 93 311 196 q 191 92 190 92 q 192 90 192 92 q 252 104 219 104 q 314 99 285 104 q 397 75 343 94 q 483 56 450 56 q 547 67 515 56 q 597 86 581 75 l 614 97 l 646 35 q 479 -15 581 -15 q 386 3 442 -17 q 258 31 307 31 q 135 -3 176 31 l 121 -14 l 76 65 l 94 81 q 217 225 182 158 q 233 299 233 258 q 200 426 233 339 l 78 426 z "},"¤":{"ha":694,"x_min":31,"x_max":657,"o":"m 181 732 q 507 731 339 843 l 600 844 l 656 800 l 560 685 q 628 497 628 606 q 561 308 629 389 l 657 190 l 600 143 l 503 260 q 348 206 422 207 q 185 260 274 206 l 88 144 l 31 190 l 126 308 q 59 498 58 389 q 128 686 60 607 l 32 800 l 88 844 l 181 732 m 195 650 q 164 618 195 650 q 131 496 132 586 q 194 344 131 406 q 340 281 257 282 q 497 346 424 281 q 556 496 557 406 q 494 649 556 586 q 346 713 433 711 q 195 650 258 714 z "},"¥":{"ha":694,"x_min":40,"x_max":651,"o":"m 90 501 l 279 501 l 40 910 l 136 910 l 347 521 l 350 521 l 564 910 l 651 910 l 417 501 l 603 501 l 603 432 l 386 432 l 386 303 l 603 303 l 603 233 l 386 233 l 386 0 l 310 0 l 310 233 l 90 233 l 90 303 l 310 303 l 310 432 l 90 432 l 90 501 z "},"¦":{"ha":694,"x_min":310,"x_max":383,"o":"m 383 271 l 383 -339 l 310 -339 l 310 271 l 383 271 m 383 1031 l 383 421 l 310 421 l 310 1031 l 383 1031 z "},"§":{"ha":694,"x_min":108,"x_max":588,"o":"m 328 281 q 274 294 328 281 q 164 349 219 307 q 108 472 108 392 q 194 607 108 551 q 122 744 122 650 q 185 885 122 839 q 351 932 247 932 q 565 890 456 932 l 546 822 q 351 863 422 863 q 200 750 200 863 q 236 673 200 700 q 383 619 272 646 q 541 556 494 593 q 588 437 588 518 q 518 289 588 356 q 568 169 568 251 q 508 38 568 88 q 344 -12 449 -12 q 108 32 239 -12 l 126 104 q 340 57 268 57 q 451 87 413 57 q 490 163 490 117 q 463 233 490 210 q 328 281 436 256 m 186 481 q 194 433 186 451 q 226 403 201 415 q 275 381 250 389 l 356 356 q 457 321 411 339 q 513 440 513 381 q 474 506 513 479 q 367 548 436 533 q 256 578 297 563 q 186 481 186 531 z "},"©":{"ha":694,"x_min":14,"x_max":681,"o":"m 342 -8 q 261 -8 342 -8 q 97 92 181 -8 q 14 377 14 193 q 100 662 14 561 q 349 763 186 763 q 681 375 681 763 q 592 88 681 185 q 342 -8 503 -8 m 76 375 q 146 124 76 201 q 349 47 215 47 q 618 375 618 47 q 549 629 618 551 q 349 707 479 707 q 76 375 76 707 m 254 378 q 254 335 254 378 q 276 264 254 292 q 346 236 299 236 q 444 251 393 236 l 461 194 q 357 175 414 175 q 224 218 264 175 q 183 376 183 261 q 220 540 183 490 q 346 589 257 589 q 461 569 403 589 l 444 513 q 348 527 401 528 q 274 496 294 526 q 254 378 254 465 z "},"ª":{"ha":694,"x_min":193,"x_max":517,"o":"m 345 700 q 325 700 345 700 q 281 681 304 700 q 257 630 257 663 q 277 576 257 597 q 343 556 297 556 q 444 604 389 556 l 444 697 q 345 700 386 700 m 517 507 q 456 500 461 500 l 447 546 q 326 497 385 497 q 231 531 268 497 q 193 627 193 565 q 233 722 193 689 q 340 754 272 754 q 444 750 408 754 q 426 840 444 815 q 361 865 407 865 q 224 833 315 865 l 206 890 q 369 924 296 924 q 475 884 442 924 q 508 749 508 844 l 508 576 l 517 507 z "},"«":{"ha":694,"x_min":97,"x_max":610,"o":"m 97 344 l 371 579 l 371 489 l 169 314 l 371 143 l 371 54 l 97 289 l 97 344 m 336 344 l 610 579 l 610 489 l 408 314 l 610 143 l 610 54 l 336 289 l 336 344 z "},"¬":{"ha":694,"x_min":50,"x_max":650,"o":"m 50 628 l 650 628 l 650 321 l 575 321 l 575 553 l 50 553 l 50 628 z "},"®":{"ha":694,"x_min":0,"x_max":694,"o":"m 348 267 q 270 267 348 267 q 96 362 192 267 q 0 613 0 457 q 95 863 0 769 q 347 957 190 957 q 599 863 504 957 q 694 612 694 768 q 599 361 694 456 q 348 267 504 267 m 135 824 q 95 784 135 824 q 56 613 56 744 q 135 401 56 481 q 346 321 215 321 q 557 400 476 321 q 638 612 638 479 q 558 824 638 744 q 347 904 479 904 q 135 824 215 904 m 217 417 l 217 822 l 328 822 q 458 794 417 822 q 500 696 500 767 q 418 574 500 594 q 486 442 456 519 l 496 417 l 432 417 q 363 563 403 499 l 272 563 l 272 417 l 217 417 m 318 615 q 417 629 393 615 q 442 693 442 643 q 417 756 442 743 q 324 769 392 769 l 272 769 l 272 615 l 318 615 z "},"°":{"ha":694,"x_min":154,"x_max":539,"o":"m 208 644 q 181 670 208 644 q 154 778 154 696 q 208 911 154 860 q 347 963 263 963 q 485 911 432 963 q 539 777 539 860 q 485 643 539 694 q 347 592 432 592 q 208 644 261 592 m 344 654 q 371 654 344 654 q 431 688 397 654 q 465 777 465 722 q 433 867 465 832 q 344 901 400 901 q 258 869 289 901 q 228 779 228 836 q 260 688 228 722 q 344 654 292 654 z "},"±":{"ha":694,"x_min":21,"x_max":674,"o":"m 674 414 l 382 414 l 382 203 l 313 203 l 313 414 l 21 414 l 21 474 l 313 474 l 313 697 l 382 697 l 382 474 l 674 474 l 674 414 m 674 75 l 21 75 l 21 133 l 674 133 l 674 75 z "},"µ":{"ha":694,"x_min":75,"x_max":588,"o":"m 104 -68 l 104 660 l 178 660 l 178 214 q 210 102 178 146 q 311 58 242 58 q 514 125 381 58 l 514 660 l 588 660 l 588 0 l 517 0 l 514 53 q 303 -14 378 -14 q 223 3 260 -14 q 168 46 186 19 l 175 -43 l 175 -72 q 133 -267 175 -197 l 75 -240 q 99 -165 93 -196 q 104 -68 104 -133 z "},"μ":{"ha":694,"x_min":75,"x_max":588,"o":"m 104 -68 l 104 660 l 178 660 l 178 214 q 210 102 178 146 q 311 58 242 58 q 514 125 381 58 l 514 660 l 588 660 l 588 0 l 517 0 l 514 53 q 303 -14 378 -14 q 223 3 260 -14 q 168 46 186 19 l 175 -43 l 175 -72 q 133 -267 175 -197 l 75 -240 q 99 -165 93 -196 q 104 -68 104 -133 z "},"¶":{"ha":694,"x_min":56,"x_max":632,"o":"m 632 0 l 583 0 l 583 972 l 632 972 l 632 0 m 410 0 l 361 0 l 361 367 q 129 442 203 379 q 56 665 56 504 q 128 899 56 826 q 361 972 201 972 l 410 972 l 410 0 m 361 411 l 361 928 q 255 917 296 926 q 176 881 214 908 q 104 660 104 828 q 165 473 104 524 q 361 411 225 422 z "},"·":{"ha":694,"x_min":281,"x_max":407,"o":"m 343 340 q 281 419 281 340 q 344 499 281 499 q 407 417 407 499 q 392 358 407 376 q 343 340 378 340 z "},"º":{"ha":694,"x_min":172,"x_max":517,"o":"m 344 497 q 302 497 344 497 q 217 554 261 497 q 172 712 172 611 q 215 868 172 813 q 343 924 258 924 q 517 713 517 924 q 472 554 517 611 q 344 497 426 497 m 343 556 q 424 590 397 556 q 450 711 450 625 q 424 831 450 797 q 344 865 397 865 q 265 830 292 865 q 239 713 239 794 q 343 556 239 556 z "},"»":{"ha":694,"x_min":97,"x_max":610,"o":"m 336 579 l 610 344 l 610 289 l 336 54 l 336 143 l 538 314 l 336 489 l 336 579 m 97 579 l 371 344 l 371 289 l 97 54 l 97 143 l 299 314 l 97 489 l 97 579 z "},"¿":{"ha":694,"x_min":94,"x_max":592,"o":"m 415 679 l 415 550 l 297 550 l 297 679 l 415 679 m 331 -278 q 162 -223 229 -278 q 94 -78 94 -168 q 119 60 94 11 q 218 178 144 110 q 310 278 292 247 q 329 353 329 308 q 326 447 329 397 l 399 450 q 410 347 410 406 q 386 249 410 288 q 289 142 363 211 q 195 33 215 72 q 175 -68 175 -6 q 217 -168 175 -131 q 322 -206 260 -206 q 433 -180 385 -206 q 550 -101 482 -154 l 592 -158 q 456 -249 514 -219 q 331 -278 397 -278 z "},"À":{"ha":694,"x_min":24,"x_max":669,"o":"m 206 1226 l 489 1104 l 465 1046 l 179 1163 l 206 1226 m 24 0 l 285 910 l 418 910 l 669 0 l 588 0 l 531 210 l 163 210 l 104 0 l 24 0 m 513 279 l 363 840 l 339 840 l 182 279 l 513 279 z "},"Á":{"ha":694,"x_min":24,"x_max":669,"o":"m 228 1103 l 511 1225 l 538 1161 l 251 1044 l 228 1103 m 24 0 l 285 910 l 418 910 l 669 0 l 588 0 l 531 210 l 163 210 l 104 0 l 24 0 m 513 279 l 363 840 l 339 840 l 182 279 l 513 279 z "},"Â":{"ha":694,"x_min":24,"x_max":669,"o":"m 149 1044 l 324 1225 l 379 1225 l 554 1044 l 474 1044 l 351 1169 l 229 1044 l 149 1044 m 24 0 l 285 910 l 418 910 l 669 0 l 588 0 l 531 210 l 163 210 l 104 0 l 24 0 m 513 279 l 363 840 l 339 840 l 182 279 l 513 279 z "},"Ã":{"ha":694,"x_min":24,"x_max":669,"o":"m 526 1193 l 561 1147 q 444 1071 492 1071 q 344 1108 397 1071 q 261 1146 292 1146 q 171 1089 231 1146 l 132 1136 q 261 1211 211 1211 q 364 1174 311 1211 q 442 1138 417 1138 q 526 1193 467 1138 m 24 0 l 285 910 l 418 910 l 669 0 l 588 0 l 531 210 l 163 210 l 104 0 l 24 0 m 513 279 l 363 840 l 339 840 l 182 279 l 513 279 z "},"Ä":{"ha":694,"x_min":24,"x_max":669,"o":"m 176 1092 q 169 1099 176 1092 q 163 1128 163 1107 q 176 1164 163 1149 q 213 1179 190 1179 q 249 1164 235 1179 q 263 1128 263 1149 q 249 1092 263 1107 q 213 1076 235 1076 q 176 1092 190 1076 m 444 1092 q 438 1099 444 1092 q 431 1128 431 1107 q 444 1164 431 1149 q 481 1179 458 1179 q 517 1164 503 1179 q 532 1128 532 1149 q 517 1092 532 1107 q 481 1076 503 1076 q 444 1092 458 1076 m 24 0 l 285 910 l 418 910 l 669 0 l 588 0 l 531 210 l 163 210 l 104 0 l 24 0 m 513 279 l 363 840 l 339 840 l 182 279 l 513 279 z "},"Å":{"ha":694,"x_min":24,"x_max":669,"o":"m 347 1269 q 380 1269 347 1269 q 452 1234 413 1269 q 492 1137 492 1199 q 452 1040 492 1075 q 347 1004 413 1004 q 241 1040 281 1004 q 201 1137 201 1075 q 241 1234 201 1199 q 347 1269 281 1269 m 260 1136 q 283 1078 260 1099 q 346 1057 306 1057 q 409 1078 386 1057 q 432 1136 432 1099 q 346 1215 432 1215 q 260 1136 260 1215 m 24 0 l 285 910 l 418 910 l 669 0 l 588 0 l 531 210 l 163 210 l 104 0 l 24 0 m 513 279 l 363 840 l 339 840 l 182 279 l 513 279 z "},"Æ":{"ha":694,"x_min":22,"x_max":668,"o":"m 22 0 l 286 910 l 664 910 l 664 843 l 436 843 l 436 496 l 626 496 l 626 429 l 436 429 l 436 67 l 668 67 l 668 0 l 360 0 l 360 210 l 161 210 l 103 0 l 22 0 m 360 279 l 360 844 l 344 844 l 181 279 l 360 279 z "},"Ç":{"ha":694,"x_min":76,"x_max":618,"o":"m 378 -79 q 402 -79 378 -79 q 462 -112 426 -79 q 497 -206 497 -144 q 462 -302 497 -268 q 368 -336 426 -336 q 281 -326 336 -336 l 288 -267 q 353 -274 315 -274 q 426 -206 426 -274 q 353 -140 426 -140 q 293 -147 328 -140 l 285 -90 q 378 -79 329 -79 m 390 -14 q 154 97 232 -14 q 76 454 76 208 q 151 812 76 700 q 392 924 226 924 q 610 889 500 924 l 610 706 l 533 706 l 533 829 q 392 851 472 851 q 213 758 267 851 q 158 457 158 665 q 217 154 158 249 q 392 60 275 60 q 600 97 479 60 l 618 25 q 390 -14 504 -14 z "},"È":{"ha":694,"x_min":114,"x_max":592,"o":"m 218 1226 l 501 1104 l 478 1046 l 192 1163 l 218 1226 m 114 0 l 114 910 l 588 910 l 588 842 l 190 842 l 190 497 l 550 497 l 550 429 l 190 429 l 190 68 l 592 68 l 592 0 l 114 0 z "},"É":{"ha":694,"x_min":114,"x_max":592,"o":"m 206 1103 l 489 1225 l 515 1161 l 229 1044 l 206 1103 m 114 0 l 114 910 l 588 910 l 588 842 l 190 842 l 190 497 l 550 497 l 550 429 l 190 429 l 190 68 l 592 68 l 592 0 l 114 0 z "},"Ê":{"ha":694,"x_min":114,"x_max":592,"o":"m 149 1044 l 324 1225 l 379 1225 l 554 1044 l 474 1044 l 351 1169 l 229 1044 l 149 1044 m 114 0 l 114 910 l 588 910 l 588 842 l 190 842 l 190 497 l 550 497 l 550 429 l 190 429 l 190 68 l 592 68 l 592 0 l 114 0 z "},"Ë":{"ha":694,"x_min":114,"x_max":592,"o":"m 176 1092 q 169 1099 176 1092 q 163 1128 163 1107 q 176 1164 163 1149 q 213 1179 190 1179 q 249 1164 235 1179 q 263 1128 263 1149 q 249 1092 263 1107 q 213 1076 235 1076 q 176 1092 190 1076 m 444 1092 q 438 1099 444 1092 q 431 1128 431 1107 q 444 1164 431 1149 q 481 1179 458 1179 q 517 1164 503 1179 q 532 1128 532 1149 q 517 1092 532 1107 q 481 1076 503 1076 q 444 1092 458 1076 m 114 0 l 114 910 l 588 910 l 588 842 l 190 842 l 190 497 l 550 497 l 550 429 l 190 429 l 190 68 l 592 68 l 592 0 l 114 0 z "},"Ì":{"ha":694,"x_min":154,"x_max":542,"o":"m 210 1226 l 493 1104 l 469 1046 l 183 1163 l 210 1226 m 154 0 l 154 69 l 311 69 l 311 840 l 154 840 l 154 910 l 542 910 l 542 840 l 388 840 l 388 69 l 542 69 l 542 0 l 154 0 z "},"Í":{"ha":694,"x_min":154,"x_max":542,"o":"m 196 1103 l 479 1225 l 506 1161 l 219 1044 l 196 1103 m 154 0 l 154 69 l 311 69 l 311 840 l 154 840 l 154 910 l 542 910 l 542 840 l 388 840 l 388 69 l 542 69 l 542 0 l 154 0 z "},"Î":{"ha":694,"x_min":149,"x_max":554,"o":"m 149 1044 l 324 1225 l 379 1225 l 554 1044 l 474 1044 l 351 1169 l 229 1044 l 149 1044 m 154 0 l 154 69 l 311 69 l 311 840 l 154 840 l 154 910 l 542 910 l 542 840 l 388 840 l 388 69 l 542 69 l 542 0 l 154 0 z "},"Ï":{"ha":694,"x_min":154,"x_max":542,"o":"m 176 1092 q 169 1099 176 1092 q 163 1128 163 1107 q 176 1164 163 1149 q 213 1179 190 1179 q 249 1164 235 1179 q 263 1128 263 1149 q 249 1092 263 1107 q 213 1076 235 1076 q 176 1092 190 1076 m 444 1092 q 438 1099 444 1092 q 431 1128 431 1107 q 444 1164 431 1149 q 481 1179 458 1179 q 517 1164 503 1179 q 532 1128 532 1149 q 517 1092 532 1107 q 481 1076 503 1076 q 444 1092 458 1076 m 154 0 l 154 69 l 311 69 l 311 840 l 154 840 l 154 910 l 542 910 l 542 840 l 388 840 l 388 69 l 542 69 l 542 0 l 154 0 z "},"Ð":{"ha":694,"x_min":36,"x_max":636,"o":"m 111 0 l 111 421 l 36 421 l 36 496 l 111 496 l 111 910 l 269 910 q 438 890 372 910 q 550 818 504 869 q 616 678 596 767 q 636 455 636 590 q 614 230 636 319 q 543 90 592 140 q 429 20 494 40 q 267 0 364 0 l 111 0 m 433 100 q 462 115 433 100 q 523 215 492 131 q 554 455 554 299 q 524 695 554 611 q 435 810 493 779 q 269 840 376 840 l 188 840 l 188 496 l 351 496 l 351 421 l 188 421 l 188 69 l 267 69 q 433 100 374 69 z "},"Ñ":{"ha":694,"x_min":71,"x_max":624,"o":"m 526 1193 l 561 1147 q 444 1071 492 1071 q 344 1108 397 1071 q 261 1146 292 1146 q 171 1089 231 1146 l 132 1136 q 261 1211 211 1211 q 364 1174 311 1211 q 442 1138 417 1138 q 526 1193 467 1138 m 547 0 l 547 143 l 151 765 l 147 765 l 147 0 l 71 0 l 71 910 l 146 910 l 543 281 l 547 281 l 547 910 l 624 910 l 624 0 l 547 0 z "},"Ò":{"ha":694,"x_min":56,"x_max":639,"o":"m 222 1226 l 506 1104 l 482 1046 l 196 1163 l 222 1226 m 56 464 q 69 651 56 572 q 114 794 83 731 q 347 924 176 924 q 603 742 542 922 q 639 497 639 638 q 625 272 639 356 q 581 122 611 189 q 347 -14 517 -14 q 115 122 181 -14 q 56 464 56 246 m 557 453 q 553 574 557 528 q 538 675 550 619 q 503 767 525 731 q 442 827 482 803 q 347 851 403 851 q 252 827 292 851 q 191 767 213 803 q 157 675 169 731 q 138 484 138 589 q 145 315 138 379 q 174 188 153 250 q 347 58 217 58 q 522 189 481 58 q 557 453 558 300 z "},"Ó":{"ha":694,"x_min":56,"x_max":639,"o":"m 215 1103 l 499 1225 l 525 1161 l 239 1044 l 215 1103 m 56 464 q 69 651 56 572 q 114 794 83 731 q 347 924 176 924 q 603 742 542 922 q 639 497 639 638 q 625 272 639 356 q 581 122 611 189 q 347 -14 517 -14 q 115 122 181 -14 q 56 464 56 246 m 557 453 q 553 574 557 528 q 538 675 550 619 q 503 767 525 731 q 442 827 482 803 q 347 851 403 851 q 252 827 292 851 q 191 767 213 803 q 157 675 169 731 q 138 484 138 589 q 145 315 138 379 q 174 188 153 250 q 347 58 217 58 q 522 189 481 58 q 557 453 558 300 z "},"Ô":{"ha":694,"x_min":56,"x_max":639,"o":"m 149 1044 l 324 1225 l 379 1225 l 554 1044 l 474 1044 l 351 1169 l 229 1044 l 149 1044 m 56 464 q 69 651 56 572 q 114 794 83 731 q 347 924 176 924 q 603 742 542 922 q 639 497 639 638 q 625 272 639 356 q 581 122 611 189 q 347 -14 517 -14 q 115 122 181 -14 q 56 464 56 246 m 557 453 q 553 574 557 528 q 538 675 550 619 q 503 767 525 731 q 442 827 482 803 q 347 851 403 851 q 252 827 292 851 q 191 767 213 803 q 157 675 169 731 q 138 484 138 589 q 145 315 138 379 q 174 188 153 250 q 347 58 217 58 q 522 189 481 58 q 557 453 558 300 z "},"Õ":{"ha":694,"x_min":56,"x_max":639,"o":"m 526 1193 l 561 1147 q 444 1071 490 1071 q 345 1108 397 1071 q 262 1146 293 1146 q 171 1089 231 1146 l 132 1136 q 260 1211 210 1211 q 364 1174 311 1211 q 442 1138 417 1138 q 526 1193 467 1138 m 56 464 q 69 651 56 572 q 114 794 83 731 q 347 924 176 924 q 603 742 542 922 q 639 497 639 638 q 625 272 639 356 q 581 122 611 189 q 347 -14 517 -14 q 115 122 181 -14 q 56 464 56 246 m 557 453 q 553 574 557 528 q 538 675 550 619 q 503 767 525 731 q 442 827 482 803 q 347 851 403 851 q 252 827 292 851 q 191 767 213 803 q 157 675 169 731 q 138 484 138 589 q 145 315 138 379 q 174 188 153 250 q 347 58 217 58 q 522 189 481 58 q 557 453 558 300 z "},"Ö":{"ha":694,"x_min":56,"x_max":639,"o":"m 176 1092 q 169 1099 176 1092 q 163 1128 163 1107 q 176 1164 163 1149 q 213 1179 190 1179 q 249 1164 235 1179 q 263 1128 263 1149 q 249 1092 263 1107 q 213 1076 235 1076 q 176 1092 190 1076 m 445 1092 q 438 1099 445 1092 q 431 1128 431 1107 q 445 1164 431 1149 q 481 1179 460 1179 q 517 1164 503 1179 q 532 1128 532 1149 q 517 1092 532 1107 q 481 1076 503 1076 q 445 1092 460 1076 m 56 464 q 69 651 56 572 q 114 794 83 731 q 347 924 176 924 q 603 742 542 922 q 639 497 639 638 q 625 272 639 356 q 581 122 611 189 q 347 -14 517 -14 q 115 122 181 -14 q 56 464 56 246 m 557 453 q 553 574 557 528 q 538 675 550 619 q 503 767 525 731 q 442 827 482 803 q 347 851 403 851 q 252 827 292 851 q 191 767 213 803 q 157 675 169 731 q 138 484 138 589 q 145 315 138 379 q 174 188 153 250 q 347 58 217 58 q 522 189 481 58 q 557 453 558 300 z "},"×":{"ha":694,"x_min":81,"x_max":606,"o":"m 558 150 l 343 365 l 128 150 l 81 196 l 297 413 l 81 628 l 128 674 l 343 458 l 558 674 l 606 628 l 389 413 l 606 196 l 558 150 z "},"Ø":{"ha":694,"x_min":56,"x_max":639,"o":"m 56 467 q 203 892 56 808 q 347 924 261 925 q 535 856 464 924 l 574 925 l 625 894 l 574 806 q 639 467 639 696 q 490 21 639 110 q 347 -14 432 -14 q 154 64 224 -14 l 113 -11 l 63 19 l 118 118 q 56 467 56 233 m 167 206 l 493 782 q 347 851 440 851 q 252 827 292 851 q 191 767 213 803 q 157 675 169 731 q 138 442 138 589 q 167 206 138 296 m 525 719 l 197 139 q 347 58 246 58 q 522 189 481 58 q 558 467 558 300 q 525 719 557 633 z "},"Ù":{"ha":694,"x_min":75,"x_max":619,"o":"m 207 1226 l 490 1104 l 467 1046 l 181 1163 l 207 1226 m 75 263 l 75 910 l 151 910 l 151 272 q 347 58 151 58 q 494 117 446 58 q 543 272 543 176 l 543 910 l 619 910 l 619 263 q 549 57 619 128 q 344 -14 479 -14 q 142 60 210 -14 q 75 263 75 133 z "},"Ú":{"ha":694,"x_min":75,"x_max":619,"o":"m 221 1103 l 504 1225 l 531 1161 l 244 1044 l 221 1103 m 75 263 l 75 910 l 151 910 l 151 272 q 347 58 151 58 q 494 117 446 58 q 543 272 543 176 l 543 910 l 619 910 l 619 263 q 549 57 619 128 q 344 -14 479 -14 q 142 60 210 -14 q 75 263 75 133 z "},"Û":{"ha":694,"x_min":75,"x_max":619,"o":"m 149 1044 l 324 1225 l 379 1225 l 554 1044 l 474 1044 l 351 1169 l 229 1044 l 149 1044 m 75 263 l 75 910 l 151 910 l 151 272 q 347 58 151 58 q 494 117 446 58 q 543 272 543 176 l 543 910 l 619 910 l 619 263 q 549 57 619 128 q 344 -14 479 -14 q 142 60 210 -14 q 75 263 75 133 z "},"Ü":{"ha":694,"x_min":75,"x_max":619,"o":"m 176 1092 q 169 1099 176 1092 q 163 1128 163 1107 q 176 1164 163 1149 q 213 1179 190 1179 q 249 1164 235 1179 q 263 1128 263 1149 q 249 1092 263 1107 q 213 1076 235 1076 q 176 1092 190 1076 m 444 1092 q 438 1099 444 1092 q 431 1128 431 1107 q 444 1164 431 1149 q 481 1179 458 1179 q 517 1164 503 1179 q 532 1128 532 1149 q 517 1092 532 1107 q 481 1076 503 1076 q 444 1092 458 1076 m 75 263 l 75 910 l 151 910 l 151 272 q 347 58 151 58 q 494 117 446 58 q 543 272 543 176 l 543 910 l 619 910 l 619 263 q 549 57 619 128 q 344 -14 479 -14 q 142 60 210 -14 q 75 263 75 133 z "},"Ý":{"ha":694,"x_min":40,"x_max":651,"o":"m 219 1058 l 471 1197 l 503 1129 l 249 1004 l 219 1058 m 383 393 l 383 0 l 308 0 l 308 393 l 40 910 l 132 910 l 344 472 l 347 472 l 560 910 l 651 910 l 383 393 z "},"Þ":{"ha":694,"x_min":90,"x_max":590,"o":"m 167 174 l 167 0 l 90 0 l 90 910 l 167 910 l 167 750 l 318 750 q 449 718 392 750 q 536 635 507 686 q 578 523 565 585 q 576 400 590 461 q 531 288 561 339 q 443 206 500 238 q 315 174 386 174 l 167 174 m 318 681 l 167 681 l 167 243 l 315 243 q 406 267 365 243 q 467 330 446 292 q 497 415 488 368 q 498 508 507 461 q 468 594 489 556 q 408 656 447 632 q 318 681 368 681 z "},"ß":{"ha":694,"x_min":96,"x_max":643,"o":"m 96 0 l 96 651 q 158 851 96 779 q 338 924 221 924 q 513 865 456 924 q 571 721 571 806 l 571 604 q 434 585 486 596 q 364 551 382 574 q 346 488 346 529 q 372 423 346 447 q 487 369 397 399 q 610 303 576 340 q 643 188 643 265 q 440 -12 643 -12 q 264 24 372 -12 l 283 96 q 446 58 388 58 q 568 185 568 58 q 545 257 568 233 q 435 308 522 281 q 310 375 349 335 q 271 485 271 415 q 429 651 271 631 l 497 660 l 497 704 q 333 854 497 854 q 211 801 253 854 q 169 647 169 749 l 169 0 l 96 0 z "},"à":{"ha":694,"x_min":83,"x_max":588,"o":"m 303 60 q 415 92 354 60 q 503 153 475 125 l 503 318 q 328 325 411 325 q 203 290 244 325 q 161 194 161 254 q 303 60 161 60 m 301 -12 q 142 40 200 -12 q 83 188 83 92 q 147 336 83 283 q 317 390 211 390 q 503 382 422 390 q 472 551 503 506 q 349 596 442 596 q 129 551 256 596 l 108 621 q 342 668 238 668 q 528 607 479 668 q 576 393 576 546 l 576 101 l 588 -4 l 517 -11 l 503 72 q 413 16 471 44 q 301 -12 354 -12 m 238 996 l 489 857 l 460 803 l 206 928 l 238 996 z "},"á":{"ha":694,"x_min":83,"x_max":588,"o":"m 303 60 q 415 92 354 60 q 503 153 475 125 l 503 318 q 328 325 411 325 q 203 290 244 325 q 161 194 161 254 q 303 60 161 60 m 301 -12 q 142 40 200 -12 q 83 188 83 92 q 147 336 83 283 q 317 390 211 390 q 503 382 422 390 q 472 551 503 506 q 349 596 442 596 q 129 551 256 596 l 108 621 q 342 668 238 668 q 528 607 479 668 q 576 393 576 546 l 576 101 l 588 -4 l 517 -11 l 503 72 q 413 16 471 44 q 301 -12 354 -12 m 188 857 l 439 996 l 471 928 l 217 803 l 188 857 z "},"â":{"ha":694,"x_min":83,"x_max":588,"o":"m 303 60 q 415 92 354 60 q 503 153 475 125 l 503 318 q 328 325 411 325 q 203 290 244 325 q 161 194 161 254 q 303 60 161 60 m 301 -12 q 142 40 200 -12 q 83 188 83 92 q 147 336 83 283 q 317 390 211 390 q 503 382 422 390 q 472 551 503 506 q 349 596 442 596 q 129 551 256 596 l 108 621 q 342 668 238 668 q 528 607 479 668 q 576 393 576 546 l 576 101 l 588 -4 l 517 -11 l 503 72 q 413 16 471 44 q 301 -12 354 -12 m 379 1042 l 557 817 l 476 817 l 347 986 l 218 817 l 138 817 l 315 1042 l 379 1042 z "},"ã":{"ha":694,"x_min":83,"x_max":588,"o":"m 303 60 q 415 92 354 60 q 503 153 475 125 l 503 318 q 328 325 411 325 q 203 290 244 325 q 161 194 161 254 q 303 60 161 60 m 301 -12 q 142 40 200 -12 q 83 188 83 92 q 147 336 83 283 q 317 390 211 390 q 503 382 422 390 q 472 551 503 506 q 349 596 442 596 q 129 551 256 596 l 108 621 q 342 668 238 668 q 528 607 479 668 q 576 393 576 546 l 576 101 l 588 -4 l 517 -11 l 503 72 q 413 16 471 44 q 301 -12 354 -12 m 510 964 l 544 918 q 428 842 475 842 q 328 879 381 842 q 244 917 275 917 q 154 860 214 917 l 115 907 q 244 982 194 982 q 347 945 294 982 q 425 908 400 908 q 510 964 450 908 z "},"ä":{"ha":694,"x_min":83,"x_max":588,"o":"m 303 60 q 415 92 354 60 q 503 153 475 125 l 503 318 q 328 325 411 325 q 203 290 244 325 q 161 194 161 254 q 303 60 161 60 m 301 -12 q 142 40 200 -12 q 83 188 83 92 q 147 336 83 283 q 317 390 211 390 q 503 382 422 390 q 472 551 503 506 q 349 596 442 596 q 129 551 256 596 l 108 621 q 342 668 238 668 q 528 607 479 668 q 576 393 576 546 l 576 101 l 588 -4 l 517 -11 l 503 72 q 413 16 471 44 q 301 -12 354 -12 m 176 863 q 169 870 176 863 q 163 899 163 878 q 176 935 163 919 q 213 950 190 950 q 249 935 235 950 q 263 899 263 919 q 249 863 263 878 q 213 847 235 847 q 176 863 190 847 m 444 863 q 438 870 444 863 q 431 899 431 878 q 444 935 431 919 q 481 950 458 950 q 517 935 503 950 q 532 899 532 919 q 517 863 532 878 q 481 847 503 847 q 444 863 458 847 z "},"å":{"ha":694,"x_min":83,"x_max":588,"o":"m 303 60 q 415 92 354 60 q 503 153 475 125 l 503 318 q 328 325 413 325 q 203 290 244 325 q 161 194 161 254 q 303 60 161 60 m 301 -12 q 142 40 200 -12 q 83 188 83 92 q 147 337 83 283 q 316 390 210 390 q 503 382 422 390 q 472 551 503 506 q 349 596 442 596 q 129 551 256 596 l 108 621 q 342 668 238 668 q 528 607 479 668 q 576 393 576 546 l 576 101 l 588 -4 l 517 -11 l 503 72 q 413 16 471 44 q 301 -12 354 -12 m 347 1006 q 380 1006 347 1006 q 452 970 413 1006 q 492 873 492 935 q 452 776 492 811 q 347 740 413 740 q 241 776 281 740 q 201 873 201 811 q 241 970 201 935 q 347 1006 281 1006 m 260 872 q 283 814 260 835 q 346 793 306 793 q 409 814 386 793 q 432 872 432 835 q 346 951 432 951 q 260 872 260 951 z "},"æ":{"ha":694,"x_min":26,"x_max":674,"o":"m 188 -14 q 70 40 114 -14 q 26 183 26 93 q 77 323 26 272 q 217 374 128 374 l 307 374 q 299 533 307 514 q 283 565 292 551 q 215 588 269 588 q 72 544 161 588 l 47 611 q 215 660 147 660 q 313 641 282 660 q 360 576 344 622 q 494 667 397 667 q 632 597 590 667 q 674 374 674 526 l 669 301 l 381 301 q 450 75 394 117 q 504 57 475 56 q 622 81 550 58 l 647 88 l 668 21 q 517 -14 578 -14 q 419 9 457 -14 q 354 83 382 32 q 188 -14 301 -14 m 307 128 l 307 303 l 217 303 q 134 272 164 303 q 104 186 104 242 q 194 57 104 57 q 289 103 250 58 q 307 128 297 114 m 594 371 q 573 540 594 485 q 492 594 551 594 q 408 542 432 594 q 381 371 383 489 l 594 371 z "},"ç":{"ha":694,"x_min":113,"x_max":585,"o":"m 499 444 l 499 582 q 390 597 431 597 q 241 526 290 597 q 192 331 192 456 q 242 133 192 206 q 390 60 292 60 q 564 99 453 60 l 585 29 q 392 -12 475 -12 q 184 78 256 -12 q 113 332 113 169 q 183 581 113 494 q 392 668 254 668 q 574 639 483 668 l 574 444 l 499 444 m 385 -79 q 409 -79 385 -79 q 469 -112 433 -79 q 504 -206 504 -144 q 469 -302 504 -268 q 375 -336 433 -336 q 288 -326 343 -336 l 294 -267 q 360 -274 322 -274 q 433 -206 433 -274 q 360 -140 433 -140 q 300 -147 335 -140 l 292 -90 q 385 -79 336 -79 z "},"è":{"ha":694,"x_min":93,"x_max":601,"o":"m 93 329 q 93 409 93 329 q 159 578 93 489 q 351 668 225 668 q 540 585 478 668 q 601 363 601 501 l 597 293 l 172 293 q 228 124 179 189 q 362 60 276 60 q 563 100 447 60 l 583 31 q 372 -12 471 -12 q 165 78 236 -12 q 93 329 93 169 m 357 597 q 172 363 182 597 l 522 363 q 357 597 522 597 m 238 996 l 489 857 l 460 803 l 206 928 l 238 996 z "},"é":{"ha":694,"x_min":93,"x_max":601,"o":"m 93 329 q 93 409 93 329 q 159 578 93 489 q 351 668 225 668 q 540 585 478 668 q 601 363 601 501 l 597 293 l 172 293 q 228 124 179 189 q 362 60 276 60 q 563 100 447 60 l 583 31 q 372 -12 471 -12 q 165 78 236 -12 q 93 329 93 169 m 357 597 q 172 363 182 597 l 522 363 q 357 597 522 597 m 199 857 l 450 996 l 482 928 l 228 803 l 199 857 z "},"ê":{"ha":694,"x_min":93,"x_max":601,"o":"m 93 329 q 93 409 93 329 q 159 578 93 489 q 351 668 225 668 q 540 585 478 668 q 601 363 601 501 l 597 293 l 172 293 q 228 124 179 189 q 362 60 276 60 q 563 100 447 60 l 583 31 q 372 -12 471 -12 q 165 78 236 -12 q 93 329 93 169 m 357 597 q 172 363 182 597 l 522 363 q 357 597 522 597 m 379 1042 l 557 817 l 476 817 l 347 986 l 218 817 l 138 817 l 315 1042 l 379 1042 z "},"ë":{"ha":694,"x_min":93,"x_max":601,"o":"m 93 329 q 93 409 93 329 q 159 578 93 489 q 351 668 225 668 q 540 585 478 668 q 601 363 601 501 l 597 293 l 172 293 q 228 124 179 189 q 362 60 276 60 q 563 100 447 60 l 583 31 q 372 -12 471 -12 q 165 78 236 -12 q 93 329 93 169 m 357 597 q 172 363 182 597 l 522 363 q 357 597 522 597 m 176 863 q 169 870 176 863 q 163 899 163 878 q 176 935 163 919 q 213 950 190 950 q 249 935 235 950 q 263 899 263 919 q 249 863 263 878 q 213 847 235 847 q 176 863 190 847 m 445 863 q 438 870 445 863 q 431 899 431 878 q 445 935 431 919 q 481 950 460 950 q 517 935 503 950 q 532 899 532 919 q 517 863 532 878 q 481 847 503 847 q 445 863 460 847 z "},"ì":{"ha":694,"x_min":160,"x_max":567,"o":"m 214 857 l 465 996 l 497 928 l 243 803 l 214 857 m 171 590 l 171 660 l 406 660 l 406 69 l 567 69 l 567 0 l 160 0 l 160 69 l 332 69 l 332 590 l 171 590 z "},"í":{"ha":694,"x_min":160,"x_max":567,"o":"m 171 590 l 171 660 l 406 660 l 406 69 l 567 69 l 567 0 l 160 0 l 160 69 l 332 69 l 332 590 l 171 590 m 206 857 l 457 996 l 489 928 l 235 803 l 206 857 z "},"î":{"ha":694,"x_min":138,"x_max":567,"o":"m 171 590 l 171 660 l 406 660 l 406 69 l 567 69 l 567 0 l 160 0 l 160 69 l 332 69 l 332 590 l 171 590 m 379 1042 l 557 817 l 476 817 l 347 986 l 218 817 l 138 817 l 315 1042 l 379 1042 z "},"ï":{"ha":694,"x_min":160,"x_max":567,"o":"m 190 863 q 183 870 190 863 q 176 899 176 878 q 190 935 176 919 q 226 950 204 950 q 263 935 249 950 q 276 899 276 919 q 263 863 276 878 q 226 847 249 847 q 190 863 204 847 m 444 863 q 438 870 444 863 q 431 899 431 878 q 444 935 431 919 q 481 950 458 950 q 517 935 503 950 q 532 899 532 919 q 517 863 532 878 q 481 847 503 847 q 444 863 458 847 m 171 590 l 171 660 l 406 660 l 406 69 l 567 69 l 567 0 l 160 0 l 160 69 l 332 69 l 332 590 l 171 590 z "},"ð":{"ha":694,"x_min":82,"x_max":618,"o":"m 371 818 l 232 721 l 197 771 l 319 857 q 194 932 281 885 l 226 993 q 381 899 307 954 l 508 989 l 543 939 l 429 858 q 570 652 528 769 q 613 375 613 535 q 553 81 618 175 q 347 -12 488 -12 q 82 328 82 -12 q 347 668 82 668 q 507 622 440 668 q 371 818 471 732 m 347 596 q 161 328 161 596 q 347 60 161 60 q 488 126 444 60 q 535 331 532 192 q 495 533 538 469 q 347 596 453 596 z "},"ñ":{"ha":694,"x_min":108,"x_max":596,"o":"m 179 660 l 182 604 q 406 668 317 668 q 545 607 494 668 q 596 440 596 546 l 596 0 l 522 0 l 522 440 q 489 553 522 508 q 389 596 456 596 q 182 535 322 596 l 182 0 l 108 0 l 108 660 l 179 660 m 528 964 l 563 918 q 444 842 492 842 q 346 879 397 842 q 264 917 294 917 q 172 860 233 917 l 133 907 q 261 982 211 982 q 364 945 311 982 q 443 908 417 908 q 528 964 469 908 z "},"ò":{"ha":694,"x_min":82,"x_max":613,"o":"m 82 328 q 82 498 82 328 q 347 668 82 668 q 613 328 613 668 q 347 -12 613 -12 q 82 328 82 -12 m 347 596 q 254 596 347 596 q 161 328 161 596 q 347 60 161 60 q 533 328 533 60 q 347 596 533 596 m 238 996 l 489 857 l 460 803 l 206 928 l 238 996 z "},"ó":{"ha":694,"x_min":82,"x_max":613,"o":"m 82 328 q 82 498 82 328 q 347 668 82 668 q 613 328 613 668 q 347 -12 613 -12 q 82 328 82 -12 m 347 596 q 254 596 347 596 q 161 328 161 596 q 347 60 161 60 q 533 328 533 60 q 347 596 533 596 m 210 857 l 461 996 l 493 928 l 239 803 l 210 857 z "},"ô":{"ha":694,"x_min":82,"x_max":613,"o":"m 82 328 q 82 498 82 328 q 347 668 82 668 q 613 328 613 668 q 347 -12 613 -12 q 82 328 82 -12 m 347 596 q 254 596 347 596 q 161 328 161 596 q 347 60 161 60 q 533 328 533 60 q 347 596 533 596 m 379 1042 l 557 817 l 476 817 l 347 986 l 218 817 l 138 817 l 315 1042 l 379 1042 z "},"õ":{"ha":694,"x_min":82,"x_max":613,"o":"m 82 328 q 82 498 82 328 q 347 668 82 668 q 613 328 613 668 q 347 -12 613 -12 q 82 328 82 -12 m 347 596 q 254 596 347 596 q 161 328 161 596 q 347 60 161 60 q 533 328 533 60 q 347 596 533 596 m 529 964 l 564 918 q 447 842 494 842 q 347 879 400 842 q 264 917 294 917 q 174 860 233 917 l 135 907 q 264 982 214 982 q 367 945 314 982 q 444 908 419 908 q 529 964 469 908 z "},"ö":{"ha":694,"x_min":82,"x_max":613,"o":"m 82 328 q 82 498 82 328 q 347 668 82 668 q 613 328 613 668 q 347 -12 613 -12 q 82 328 82 -12 m 347 596 q 254 596 347 596 q 161 328 161 596 q 347 60 161 60 q 533 328 533 60 q 347 596 533 596 m 176 863 q 169 870 176 863 q 163 899 163 878 q 176 935 163 919 q 213 950 190 950 q 249 935 235 950 q 263 899 263 919 q 249 863 263 878 q 213 847 235 847 q 176 863 190 847 m 444 863 q 438 870 444 863 q 431 899 431 878 q 444 935 431 919 q 481 950 458 950 q 517 935 503 950 q 532 899 532 919 q 517 863 532 878 q 481 847 503 847 q 444 863 458 847 z "},"÷":{"ha":694,"x_min":49,"x_max":646,"o":"m 400 190 q 400 159 400 190 q 343 128 400 128 q 286 190 286 128 q 343 253 286 253 q 400 190 400 253 m 400 590 q 400 559 400 590 q 343 528 400 528 q 286 590 286 528 q 343 653 286 653 q 400 590 400 653 m 49 363 l 49 426 l 646 426 l 646 363 l 49 363 z "},"ø":{"ha":694,"x_min":82,"x_max":613,"o":"m 347 668 q 483 636 428 668 l 529 715 l 589 679 l 539 590 q 613 328 613 507 q 347 -12 613 -12 q 213 18 269 -12 l 168 -60 l 110 -24 l 158 61 q 82 328 82 146 q 347 668 82 668 m 161 328 q 200 136 161 200 l 446 569 q 347 596 404 596 q 161 328 161 596 m 533 328 q 496 517 533 451 l 250 85 q 347 60 288 60 q 533 328 533 60 z "},"ù":{"ha":694,"x_min":103,"x_max":590,"o":"m 519 0 l 517 57 q 294 -12 383 -12 q 154 49 206 -12 q 103 215 103 110 l 103 660 l 176 660 l 176 215 q 209 103 176 147 q 308 60 242 60 q 517 129 375 60 l 517 660 l 590 660 l 590 0 l 519 0 m 238 996 l 489 857 l 460 803 l 206 928 l 238 996 z "},"ú":{"ha":694,"x_min":103,"x_max":590,"o":"m 519 0 l 517 57 q 294 -12 383 -12 q 154 49 206 -12 q 103 215 103 110 l 103 660 l 176 660 l 176 215 q 209 103 176 147 q 308 60 242 60 q 517 129 375 60 l 517 660 l 590 660 l 590 0 l 519 0 m 218 857 l 469 996 l 501 928 l 247 803 l 218 857 z "},"û":{"ha":694,"x_min":103,"x_max":590,"o":"m 519 0 l 517 57 q 294 -12 383 -12 q 154 49 206 -12 q 103 215 103 110 l 103 660 l 176 660 l 176 215 q 209 103 176 147 q 308 60 242 60 q 517 129 375 60 l 517 660 l 590 660 l 590 0 l 519 0 m 379 1042 l 557 817 l 476 817 l 347 986 l 218 817 l 138 817 l 315 1042 l 379 1042 z "},"ü":{"ha":694,"x_min":103,"x_max":590,"o":"m 519 0 l 517 57 q 294 -12 383 -12 q 154 49 206 -12 q 103 215 103 110 l 103 660 l 176 660 l 176 215 q 209 103 176 147 q 308 60 242 60 q 517 129 375 60 l 517 660 l 590 660 l 590 0 l 519 0 m 176 863 q 169 870 176 863 q 163 899 163 878 q 176 935 163 919 q 213 950 190 950 q 249 935 235 950 q 263 899 263 919 q 249 863 263 878 q 213 847 235 847 q 176 863 190 847 m 444 863 q 438 870 444 863 q 431 899 431 878 q 444 935 431 919 q 481 950 458 950 q 517 935 503 950 q 532 899 532 919 q 517 863 532 878 q 481 847 503 847 q 444 863 458 847 z "},"ý":{"ha":694,"x_min":74,"x_max":622,"o":"m 74 660 l 157 660 l 353 99 l 364 99 l 539 660 l 622 660 l 367 -112 q 291 -253 331 -222 q 131 -286 251 -283 l 131 -215 q 235 -193 208 -214 q 283 -106 261 -172 l 315 -10 l 74 660 m 206 857 l 457 996 l 489 928 l 235 803 l 206 857 z "},"þ":{"ha":694,"x_min":107,"x_max":628,"o":"m 107 -267 l 107 910 l 176 910 l 176 594 q 369 668 278 668 q 560 578 493 668 q 628 328 628 488 q 553 78 628 169 q 346 -12 479 -12 q 181 25 268 -12 l 181 -267 l 107 -267 m 553 328 q 553 389 553 328 q 504 524 553 450 q 368 597 456 597 q 181 517 281 597 l 181 100 q 260 72 210 86 q 343 58 311 58 q 497 132 442 58 q 553 328 553 206 z "},"ÿ":{"ha":694,"x_min":74,"x_max":622,"o":"m 74 660 l 157 660 l 353 99 l 364 99 l 539 660 l 622 660 l 367 -112 q 291 -253 331 -222 q 131 -286 251 -283 l 131 -215 q 235 -193 208 -214 q 283 -106 261 -172 l 315 -10 l 74 660 m 176 863 q 169 870 176 863 q 163 899 163 878 q 176 935 163 919 q 213 950 190 950 q 249 935 235 950 q 263 899 263 919 q 249 863 263 878 q 213 847 235 847 q 176 863 190 847 m 444 863 q 438 870 444 863 q 431 899 431 878 q 444 935 431 919 q 481 950 458 950 q 517 935 503 950 q 532 899 532 919 q 517 863 532 878 q 481 847 503 847 q 444 863 458 847 z "},"Ā":{"ha":694,"x_min":24,"x_max":669,"o":"m 144 1158 l 551 1158 l 551 1096 l 144 1096 l 144 1158 m 24 0 l 285 910 l 418 910 l 669 0 l 588 0 l 531 210 l 163 210 l 104 0 l 24 0 m 513 279 l 363 840 l 339 840 l 182 279 l 513 279 z "},"ā":{"ha":694,"x_min":83,"x_max":588,"o":"m 303 60 q 415 92 354 60 q 503 153 475 125 l 503 318 q 328 325 411 325 q 203 290 244 325 q 161 194 161 254 q 303 60 161 60 m 301 -12 q 142 40 200 -12 q 83 188 83 92 q 147 336 83 283 q 317 390 211 390 q 503 382 422 390 q 472 551 503 506 q 349 596 442 596 q 129 551 256 596 l 108 621 q 342 668 238 668 q 528 607 479 668 q 576 393 576 546 l 576 101 l 588 -4 l 517 -11 l 503 72 q 413 16 471 44 q 301 -12 354 -12 m 144 929 l 551 929 l 551 867 l 144 867 l 144 929 z "},"Ă":{"ha":694,"x_min":24,"x_max":669,"o":"m 536 1215 q 347 1047 517 1047 q 158 1215 178 1047 l 222 1215 q 259 1132 231 1158 q 347 1106 288 1106 q 435 1131 407 1106 q 471 1215 463 1157 l 536 1215 m 24 0 l 285 910 l 418 910 l 669 0 l 588 0 l 531 210 l 163 210 l 104 0 l 24 0 m 513 279 l 363 840 l 339 840 l 182 279 l 513 279 z "},"ă":{"ha":694,"x_min":83,"x_max":588,"o":"m 303 60 q 415 92 354 60 q 503 153 475 125 l 503 318 q 328 325 411 325 q 203 290 244 325 q 161 194 161 254 q 303 60 161 60 m 301 -12 q 142 40 200 -12 q 83 188 83 92 q 147 336 83 283 q 317 390 211 390 q 503 382 422 390 q 472 551 503 506 q 349 596 442 596 q 129 551 256 596 l 108 621 q 342 668 238 668 q 528 607 479 668 q 576 393 576 546 l 576 101 l 588 -4 l 517 -11 l 503 72 q 413 16 471 44 q 301 -12 354 -12 m 536 972 q 347 804 517 804 q 158 972 178 804 l 222 972 q 259 889 231 915 q 347 863 288 863 q 435 888 407 863 q 471 972 463 914 l 536 972 z "},"Ą":{"ha":694,"x_min":24,"x_max":669,"o":"m 656 -332 q 542 -345 597 -346 q 451 -304 488 -344 q 414 -199 414 -264 q 463 -79 414 -133 q 626 46 511 -25 l 668 0 q 526 -111 565 -67 q 486 -196 486 -156 q 567 -282 486 -282 q 647 -274 610 -282 l 656 -332 m 24 0 l 285 910 l 418 910 l 669 0 l 588 0 l 531 210 l 163 210 l 104 0 l 24 0 m 513 279 l 363 840 l 339 840 l 182 279 l 513 279 z "},"ą":{"ha":694,"x_min":83,"x_max":588,"o":"m 575 -332 q 456 -345 506 -346 q 370 -304 407 -344 q 333 -202 333 -264 q 376 -92 333 -140 q 517 19 418 -43 l 508 72 q 416 17 478 46 q 301 -12 354 -12 q 142 40 200 -12 q 83 188 83 92 q 147 337 83 283 q 316 390 210 390 q 503 382 422 390 q 472 551 503 506 q 349 596 442 596 q 129 551 256 596 l 108 621 q 342 668 238 668 q 528 607 479 668 q 576 393 576 546 l 576 101 l 588 -4 q 444 -114 483 -72 q 406 -196 406 -156 q 486 -282 406 -282 q 567 -274 529 -282 l 575 -332 m 303 60 q 415 92 354 60 q 503 153 475 125 l 503 318 q 328 325 413 325 q 203 290 244 325 q 161 194 161 254 q 303 60 161 60 z "},"Ć":{"ha":694,"x_min":76,"x_max":618,"o":"m 228 1103 l 511 1225 l 538 1161 l 251 1044 l 228 1103 m 390 -14 q 154 97 232 -14 q 76 454 76 208 q 151 812 76 700 q 392 924 226 924 q 610 889 500 924 l 610 706 l 533 706 l 533 829 q 392 851 472 851 q 213 758 267 851 q 158 457 158 665 q 217 154 158 249 q 392 60 275 60 q 600 97 479 60 l 618 25 q 390 -14 504 -14 z "},"ć":{"ha":694,"x_min":113,"x_max":585,"o":"m 499 444 l 499 582 q 390 597 431 597 q 241 526 290 597 q 192 331 192 456 q 242 133 192 206 q 390 60 292 60 q 564 99 453 60 l 585 29 q 392 -12 475 -12 q 184 78 256 -12 q 113 332 113 169 q 183 581 113 494 q 392 668 254 668 q 574 639 483 668 l 574 444 l 499 444 m 206 857 l 457 996 l 489 928 l 235 803 l 206 857 z "},"Ĉ":{"ha":694,"x_min":76,"x_max":618,"o":"m 169 1044 l 344 1225 l 400 1225 l 575 1044 l 494 1044 l 372 1169 l 250 1044 l 169 1044 m 390 -14 q 154 97 232 -14 q 76 454 76 208 q 151 812 76 700 q 392 924 226 924 q 610 889 500 924 l 610 706 l 533 706 l 533 829 q 392 851 472 851 q 213 758 267 851 q 158 457 158 665 q 217 154 158 249 q 392 60 275 60 q 600 97 479 60 l 618 25 q 390 -14 504 -14 z "},"ĉ":{"ha":694,"x_min":113,"x_max":585,"o":"m 499 444 l 499 582 q 390 597 431 597 q 241 526 290 597 q 192 331 192 456 q 242 133 192 206 q 390 60 292 60 q 564 99 453 60 l 585 29 q 392 -12 475 -12 q 184 78 256 -12 q 113 332 113 169 q 183 581 113 494 q 392 668 254 668 q 574 639 483 668 l 574 444 l 499 444 m 379 1042 l 557 817 l 476 817 l 347 986 l 218 817 l 138 817 l 315 1042 l 379 1042 z "},"Ċ":{"ha":694,"x_min":76,"x_max":618,"o":"m 352 1092 q 345 1099 352 1092 q 338 1128 338 1107 q 352 1164 338 1149 q 388 1179 367 1179 q 424 1164 410 1179 q 439 1128 439 1149 q 424 1092 439 1107 q 388 1076 410 1076 q 352 1092 367 1076 m 390 -14 q 154 97 232 -14 q 76 454 76 208 q 151 812 76 700 q 392 924 226 924 q 610 889 500 924 l 610 706 l 533 706 l 533 829 q 392 851 472 851 q 213 758 267 851 q 158 457 158 665 q 217 154 158 249 q 392 60 275 60 q 600 97 479 60 l 618 25 q 390 -14 504 -14 z "},"ċ":{"ha":694,"x_min":113,"x_max":585,"o":"m 499 444 l 499 582 q 390 597 431 597 q 241 526 290 597 q 192 331 192 456 q 242 133 192 206 q 390 60 292 60 q 564 99 453 60 l 585 29 q 392 -12 475 -12 q 184 78 256 -12 q 113 332 113 169 q 183 581 113 494 q 392 668 254 668 q 574 639 483 668 l 574 444 l 499 444 m 324 863 q 317 870 324 863 q 310 899 310 878 q 324 935 310 919 q 361 950 339 950 q 397 935 383 950 q 411 899 411 919 q 397 863 411 878 q 361 847 383 847 q 324 863 339 847 z "},"Č":{"ha":694,"x_min":76,"x_max":618,"o":"m 575 1225 l 400 1044 l 344 1044 l 169 1225 l 251 1225 l 372 1101 l 493 1225 l 575 1225 m 390 -14 q 154 97 232 -14 q 76 454 76 208 q 151 812 76 700 q 392 924 226 924 q 610 889 500 924 l 610 706 l 533 706 l 533 829 q 392 851 472 851 q 213 758 267 851 q 158 457 158 665 q 217 154 158 249 q 392 60 275 60 q 600 97 479 60 l 618 25 q 390 -14 504 -14 z "},"č":{"ha":694,"x_min":113,"x_max":585,"o":"m 499 444 l 499 582 q 390 597 431 597 q 241 526 290 597 q 192 331 192 456 q 242 133 192 206 q 390 60 292 60 q 564 99 453 60 l 585 29 q 392 -12 475 -12 q 184 78 256 -12 q 113 332 113 169 q 183 581 113 494 q 392 668 254 668 q 574 639 483 668 l 574 444 l 499 444 m 550 1003 l 375 822 l 319 822 l 144 1003 l 226 1003 l 347 879 l 468 1003 l 550 1003 z "},"Ď":{"ha":694,"x_min":83,"x_max":636,"o":"m 519 1225 l 344 1044 l 289 1044 l 114 1225 l 196 1225 l 317 1101 l 438 1225 l 519 1225 m 83 0 l 83 910 l 269 910 q 438 890 372 910 q 550 818 504 869 q 616 678 596 767 q 636 455 636 590 q 614 230 636 319 q 543 90 592 140 q 429 20 494 40 q 267 0 364 0 l 83 0 m 433 100 q 462 115 433 100 q 523 215 492 131 q 554 455 554 299 q 524 695 554 611 q 435 810 493 779 q 269 840 376 840 l 160 840 l 160 69 l 267 69 q 433 100 374 69 z "},"ď":{"ha":694,"x_min":22,"x_max":679,"o":"m 497 922 l 497 115 l 510 -6 l 442 -14 l 429 60 q 257 -12 338 -12 q 84 79 146 -12 q 22 328 22 171 q 91 577 22 486 q 278 668 160 668 q 426 631 349 668 l 426 922 l 497 922 m 93 331 q 93 269 93 331 q 137 134 93 208 q 261 60 181 60 q 426 139 342 60 l 426 556 q 356 583 401 569 q 281 596 310 596 q 142 524 192 596 q 93 331 93 453 m 576 832 l 576 947 l 679 947 l 679 865 q 594 674 679 767 l 565 701 q 621 832 618 778 l 576 832 z "},"Đ":{"ha":694,"x_min":0,"x_max":643,"o":"m 90 0 l 90 429 l 0 429 l 0 494 l 90 494 l 90 910 l 276 910 q 445 890 379 910 q 557 818 511 869 q 623 678 603 767 q 643 455 643 590 q 621 230 643 319 q 550 90 599 140 q 436 20 501 40 q 274 0 371 0 l 90 0 m 276 840 l 167 840 l 167 494 l 354 494 l 354 429 l 167 429 l 167 69 l 274 69 q 439 100 381 69 q 561 454 561 163 q 442 810 561 747 q 276 840 383 840 z "},"đ":{"ha":694,"x_min":71,"x_max":694,"o":"m 343 815 l 694 815 l 694 758 l 343 758 l 343 815 m 594 922 l 594 115 l 608 -6 l 538 -14 l 524 60 q 332 -12 419 -12 q 140 79 208 -12 q 71 328 71 171 q 147 577 71 486 q 356 668 224 668 q 521 631 433 668 l 521 922 l 594 922 m 150 331 q 150 269 150 331 q 198 134 150 208 q 336 60 246 60 q 521 139 426 60 l 521 556 q 441 583 492 569 q 358 596 390 596 q 205 524 260 596 q 150 331 150 453 z "},"Ē":{"ha":694,"x_min":114,"x_max":592,"o":"m 144 1158 l 551 1158 l 551 1096 l 144 1096 l 144 1158 m 114 0 l 114 910 l 588 910 l 588 842 l 190 842 l 190 497 l 550 497 l 550 429 l 190 429 l 190 68 l 592 68 l 592 0 l 114 0 z "},"ē":{"ha":694,"x_min":93,"x_max":601,"o":"m 93 329 q 93 409 93 329 q 159 578 93 489 q 351 668 225 668 q 540 585 478 668 q 601 363 601 501 l 597 293 l 172 293 q 228 124 179 189 q 362 60 276 60 q 563 100 447 60 l 583 31 q 372 -12 471 -12 q 165 78 236 -12 q 93 329 93 169 m 357 597 q 172 363 182 597 l 522 363 q 357 597 522 597 m 144 929 l 551 929 l 551 867 l 144 867 l 144 929 z "},"Ĕ":{"ha":694,"x_min":114,"x_max":592,"o":"m 536 1215 q 347 1047 517 1047 q 158 1215 178 1047 l 222 1215 q 259 1132 231 1158 q 347 1106 288 1106 q 435 1131 407 1106 q 471 1215 463 1157 l 536 1215 m 114 0 l 114 910 l 588 910 l 588 842 l 190 842 l 190 497 l 550 497 l 550 429 l 190 429 l 190 68 l 592 68 l 592 0 l 114 0 z "},"ĕ":{"ha":694,"x_min":93,"x_max":601,"o":"m 93 329 q 93 409 93 329 q 159 578 93 489 q 351 668 225 668 q 540 585 478 668 q 601 363 601 501 l 597 293 l 172 293 q 228 124 179 189 q 362 60 276 60 q 563 100 447 60 l 583 31 q 372 -12 471 -12 q 165 78 236 -12 q 93 329 93 169 m 357 597 q 172 363 182 597 l 522 363 q 357 597 522 597 m 536 972 q 347 804 517 804 q 158 972 178 804 l 222 972 q 259 889 231 915 q 347 863 288 863 q 435 888 407 863 q 471 972 463 914 l 536 972 z "},"Ė":{"ha":694,"x_min":114,"x_max":592,"o":"m 310 1092 q 303 1099 310 1092 q 296 1128 296 1107 q 310 1164 296 1149 q 347 1179 325 1179 q 383 1164 369 1179 q 397 1128 397 1149 q 383 1092 397 1107 q 347 1076 369 1076 q 310 1092 325 1076 m 114 0 l 114 910 l 588 910 l 588 842 l 190 842 l 190 497 l 550 497 l 550 429 l 190 429 l 190 68 l 592 68 l 592 0 l 114 0 z "},"ė":{"ha":694,"x_min":93,"x_max":601,"o":"m 93 329 q 93 409 93 329 q 159 578 93 489 q 351 668 225 668 q 540 585 478 668 q 601 363 601 501 l 597 293 l 172 293 q 228 124 179 189 q 362 60 276 60 q 563 100 447 60 l 583 31 q 372 -12 471 -12 q 165 78 236 -12 q 93 329 93 169 m 357 597 q 172 363 182 597 l 522 363 q 357 597 522 597 m 310 863 q 303 870 310 863 q 296 899 296 878 q 310 935 296 919 q 347 950 325 950 q 383 935 368 950 q 397 899 397 919 q 383 863 397 878 q 347 847 368 847 q 310 863 325 847 z "},"Ę":{"ha":694,"x_min":114,"x_max":592,"o":"m 579 -328 q 460 -341 510 -342 q 374 -300 411 -340 q 338 -197 338 -260 q 454 -21 338 -96 l 550 56 l 592 0 l 500 -62 q 431 -126 456 -96 q 406 -194 406 -156 q 427 -256 406 -232 q 491 -281 449 -281 q 571 -272 533 -281 l 579 -328 m 114 0 l 114 910 l 588 910 l 588 842 l 190 842 l 190 497 l 550 497 l 550 429 l 190 429 l 190 68 l 592 68 l 592 0 l 114 0 z "},"ę":{"ha":694,"x_min":93,"x_max":601,"o":"m 525 -328 q 406 -341 456 -342 q 320 -300 357 -340 q 283 -196 283 -260 q 322 -86 283 -132 q 431 -1 360 -40 q 372 -6 400 -6 q 165 82 236 -6 q 93 329 93 169 q 159 578 93 489 q 351 668 225 668 q 540 585 478 668 q 601 363 601 501 l 597 293 l 172 293 q 228 124 179 189 q 369 60 276 60 q 540 83 461 60 l 561 15 l 503 -22 q 375 -121 394 -93 q 351 -195 350 -158 q 373 -256 351 -232 q 437 -281 394 -281 q 517 -272 479 -281 l 525 -328 m 357 597 q 172 363 182 597 l 522 363 q 357 597 522 597 z "},"Ě":{"ha":694,"x_min":114,"x_max":592,"o":"m 554 1225 l 379 1044 l 324 1044 l 149 1225 l 231 1225 l 351 1101 l 472 1225 l 554 1225 m 114 0 l 114 910 l 588 910 l 588 842 l 190 842 l 190 497 l 550 497 l 550 429 l 190 429 l 190 68 l 592 68 l 592 0 l 114 0 z "},"ě":{"ha":694,"x_min":93,"x_max":601,"o":"m 93 329 q 93 409 93 329 q 159 578 93 489 q 351 668 225 668 q 540 585 478 668 q 601 363 601 501 l 597 293 l 172 293 q 228 124 179 189 q 362 60 276 60 q 563 100 447 60 l 583 31 q 372 -12 471 -12 q 165 78 236 -12 q 93 329 93 169 m 357 597 q 172 363 182 597 l 522 363 q 357 597 522 597 m 550 1003 l 375 822 l 319 822 l 144 1003 l 226 1003 l 347 879 l 468 1003 l 550 1003 z "},"Ĝ":{"ha":694,"x_min":53,"x_max":617,"o":"m 163 1044 l 338 1225 l 393 1225 l 568 1044 l 488 1044 l 365 1169 l 243 1044 l 163 1044 m 369 -14 q 131 97 208 -14 q 53 455 53 208 q 129 813 53 701 q 378 924 206 924 q 614 879 490 924 l 594 808 q 378 851 468 851 q 191 759 247 851 q 135 458 135 667 q 193 153 135 249 q 369 58 251 58 q 540 92 440 58 l 540 369 l 383 369 l 383 438 l 617 438 l 617 38 q 369 -14 474 -14 z "},"ĝ":{"ha":694,"x_min":72,"x_max":599,"o":"m 594 160 l 599 -32 q 524 -217 599 -156 q 340 -278 450 -278 q 90 -222 231 -278 l 115 -153 q 334 -206 253 -206 q 470 -163 415 -206 q 525 -33 525 -121 q 523 16 525 -22 q 521 72 521 54 q 332 1 419 1 q 140 87 207 1 q 72 330 72 172 q 147 578 72 488 q 356 668 222 668 q 521 619 429 668 l 524 660 l 594 660 l 594 160 m 151 331 q 151 270 151 331 q 199 142 151 210 q 336 74 246 74 q 521 153 426 74 l 521 542 q 358 596 435 596 q 206 524 260 596 q 151 331 151 453 m 379 1042 l 557 817 l 476 817 l 347 986 l 218 817 l 138 817 l 315 1042 l 379 1042 z "},"Ğ":{"ha":694,"x_min":53,"x_max":617,"o":"m 550 1215 q 361 1047 531 1047 q 172 1215 192 1047 l 236 1215 q 273 1132 244 1158 q 361 1106 301 1106 q 449 1131 421 1106 q 485 1215 476 1157 l 550 1215 m 369 -14 q 131 97 208 -14 q 53 455 53 208 q 129 813 53 701 q 378 924 206 924 q 614 879 490 924 l 594 808 q 378 851 468 851 q 191 759 247 851 q 135 458 135 667 q 193 153 135 249 q 369 58 251 58 q 540 92 440 58 l 540 369 l 383 369 l 383 438 l 617 438 l 617 38 q 369 -14 474 -14 z "},"ğ":{"ha":694,"x_min":72,"x_max":599,"o":"m 594 160 l 599 -32 q 524 -217 599 -156 q 340 -278 450 -278 q 90 -222 231 -278 l 115 -153 q 334 -206 253 -206 q 470 -163 415 -206 q 525 -33 525 -121 q 523 16 525 -22 q 521 72 521 54 q 332 1 419 1 q 140 87 207 1 q 72 330 72 172 q 147 578 72 488 q 356 668 222 668 q 521 619 429 668 l 524 660 l 594 660 l 594 160 m 151 331 q 151 270 151 331 q 199 142 151 210 q 336 74 246 74 q 521 153 426 74 l 521 542 q 358 596 435 596 q 206 524 260 596 q 151 331 151 453 m 536 972 q 347 804 517 804 q 158 972 178 804 l 222 972 q 259 889 231 915 q 347 863 288 863 q 435 888 407 863 q 471 972 463 914 l 536 972 z "},"Ġ":{"ha":694,"x_min":53,"x_max":617,"o":"m 338 1092 q 331 1099 338 1092 q 324 1128 324 1107 q 338 1164 324 1149 q 374 1179 353 1179 q 410 1164 396 1179 q 425 1128 425 1149 q 410 1092 425 1107 q 374 1076 396 1076 q 338 1092 353 1076 m 369 -14 q 131 97 208 -14 q 53 455 53 208 q 129 813 53 701 q 378 924 206 924 q 614 879 490 924 l 594 808 q 378 851 468 851 q 191 759 247 851 q 135 458 135 667 q 193 153 135 249 q 369 58 251 58 q 540 92 440 58 l 540 369 l 383 369 l 383 438 l 617 438 l 617 38 q 369 -14 474 -14 z "},"ġ":{"ha":694,"x_min":72,"x_max":599,"o":"m 594 160 l 599 -32 q 524 -217 599 -156 q 340 -278 450 -278 q 90 -222 231 -278 l 115 -153 q 334 -206 253 -206 q 470 -163 415 -206 q 525 -33 525 -121 q 523 16 525 -22 q 521 72 521 54 q 332 1 419 1 q 140 87 207 1 q 72 330 72 172 q 147 578 72 488 q 356 668 222 668 q 521 619 429 668 l 524 660 l 594 660 l 594 160 m 151 331 q 151 270 151 331 q 199 142 151 210 q 336 74 246 74 q 521 153 426 74 l 521 542 q 358 596 435 596 q 206 524 260 596 q 151 331 151 453 m 331 863 q 324 870 331 863 q 317 899 317 878 q 331 935 317 919 q 367 950 346 950 q 403 935 389 950 q 418 899 418 919 q 403 863 418 878 q 367 847 389 847 q 331 863 346 847 z "},"Ģ":{"ha":694,"x_min":53,"x_max":617,"o":"m 328 -287 q 363 -219 363 -253 l 363 -208 l 329 -208 l 329 -100 l 422 -100 l 422 -171 q 410 -256 422 -225 q 358 -318 399 -286 l 328 -287 m 369 -14 q 131 97 208 -14 q 53 455 53 208 q 129 813 53 701 q 378 924 206 924 q 614 879 490 924 l 594 808 q 378 851 468 851 q 191 759 247 851 q 135 458 135 667 q 193 153 135 249 q 369 58 251 58 q 540 92 440 58 l 540 369 l 383 369 l 383 438 l 617 438 l 617 38 q 369 -14 474 -14 z "},"ģ":{"ha":694,"x_min":72,"x_max":599,"o":"m 408 1003 q 374 935 374 968 l 374 924 l 407 924 l 407 815 l 314 815 l 314 886 q 326 971 314 940 q 378 1033 338 1001 l 408 1003 m 594 160 l 599 -32 q 524 -217 599 -156 q 340 -278 450 -278 q 90 -222 231 -278 l 115 -153 q 334 -206 253 -206 q 470 -163 415 -206 q 525 -33 525 -121 q 523 16 525 -22 q 521 72 521 54 q 332 1 419 1 q 140 87 207 1 q 72 330 72 172 q 147 578 72 488 q 356 668 222 668 q 521 619 429 668 l 524 660 l 594 660 l 594 160 m 151 331 q 151 270 151 331 q 199 142 151 210 q 336 74 246 74 q 521 153 426 74 l 521 542 q 358 596 435 596 q 206 524 260 596 q 151 331 151 453 z "},"Ĥ":{"ha":694,"x_min":75,"x_max":619,"o":"m 144 1044 l 319 1225 l 375 1225 l 550 1044 l 469 1044 l 347 1169 l 225 1044 l 144 1044 m 75 0 l 75 910 l 151 910 l 151 488 l 543 488 l 543 910 l 619 910 l 619 0 l 543 0 l 543 417 l 151 417 l 151 0 l 75 0 z "},"ĥ":{"ha":694,"x_min":108,"x_max":596,"o":"m 182 539 l 182 0 l 108 0 l 108 922 l 182 922 l 182 610 q 397 668 313 668 q 596 440 596 668 l 596 0 l 522 0 l 522 440 q 492 553 522 511 q 386 596 461 596 q 182 539 311 596 m 379 1269 l 557 1044 l 476 1044 l 347 1214 l 218 1044 l 138 1044 l 315 1269 l 379 1269 z "},"Ħ":{"ha":694,"x_min":0,"x_max":694,"o":"m 0 713 l 694 713 l 694 656 l 0 656 l 0 713 m 75 0 l 75 910 l 151 910 l 151 488 l 543 488 l 543 910 l 619 910 l 619 0 l 543 0 l 543 417 l 151 417 l 151 0 l 75 0 z "},"ħ":{"ha":694,"x_min":0,"x_max":596,"o":"m 0 815 l 393 815 l 393 758 l 0 758 l 0 815 m 182 539 l 182 0 l 108 0 l 108 922 l 182 922 l 182 610 q 397 668 313 668 q 596 440 596 668 l 596 0 l 522 0 l 522 440 q 492 553 522 511 q 386 596 461 596 q 182 539 311 596 z "},"Ĩ":{"ha":694,"x_min":132,"x_max":561,"o":"m 526 1193 l 561 1147 q 444 1071 492 1071 q 344 1108 397 1071 q 261 1146 292 1146 q 171 1089 231 1146 l 132 1136 q 261 1211 211 1211 q 364 1174 311 1211 q 442 1138 417 1138 q 526 1193 467 1138 m 154 0 l 154 69 l 311 69 l 311 840 l 154 840 l 154 910 l 542 910 l 542 840 l 388 840 l 388 69 l 542 69 l 542 0 l 154 0 z "},"ĩ":{"ha":694,"x_min":132,"x_max":567,"o":"m 171 590 l 171 660 l 406 660 l 406 69 l 567 69 l 567 0 l 160 0 l 160 69 l 332 69 l 332 590 l 171 590 m 526 964 l 561 918 q 444 842 492 842 q 344 879 397 842 q 261 917 292 917 q 171 860 231 917 l 132 907 q 261 982 211 982 q 364 945 311 982 q 442 908 417 908 q 526 964 467 908 z "},"ī":{"ha":694,"x_min":144,"x_max":567,"o":"m 171 590 l 171 660 l 406 660 l 406 69 l 567 69 l 567 0 l 160 0 l 160 69 l 332 69 l 332 590 l 171 590 m 144 929 l 551 929 l 551 867 l 144 867 l 144 929 z "},"Ĭ":{"ha":694,"x_min":154,"x_max":542,"o":"m 538 1215 q 349 1047 518 1047 q 160 1215 179 1047 l 224 1215 q 260 1132 232 1158 q 349 1106 289 1106 q 436 1131 408 1106 q 472 1215 464 1157 l 538 1215 m 154 0 l 154 69 l 311 69 l 311 840 l 154 840 l 154 910 l 542 910 l 542 840 l 388 840 l 388 69 l 542 69 l 542 0 l 154 0 z "},"Į":{"ha":694,"x_min":154,"x_max":542,"o":"m 529 -328 q 410 -341 460 -342 q 324 -300 361 -340 q 288 -197 288 -260 q 404 -21 288 -96 l 500 56 l 542 0 l 450 -62 q 381 -126 406 -96 q 356 -194 356 -156 q 377 -256 356 -232 q 441 -281 399 -281 q 521 -272 483 -281 l 529 -328 m 154 0 l 154 69 l 311 69 l 311 840 l 154 840 l 154 910 l 542 910 l 542 840 l 388 840 l 388 69 l 542 69 l 542 0 l 154 0 z "},"į":{"ha":694,"x_min":160,"x_max":567,"o":"m 554 -332 q 441 -345 496 -346 q 349 -304 386 -344 q 313 -199 313 -264 q 362 -78 313 -133 q 525 47 411 -24 l 567 0 q 424 -111 464 -67 q 385 -196 385 -156 q 465 -282 385 -282 q 546 -274 508 -282 l 554 -332 m 171 590 l 171 660 l 406 660 l 406 69 l 567 69 l 567 0 l 160 0 l 160 69 l 332 69 l 332 590 l 171 590 m 363 793 q 350 793 363 793 q 320 810 338 793 q 303 855 303 828 q 320 898 303 882 q 363 914 338 914 q 403 899 388 914 q 419 856 419 883 q 403 810 419 828 q 363 793 388 793 z "},"İ":{"ha":694,"x_min":154,"x_max":542,"o":"m 310 1092 q 303 1099 310 1092 q 296 1128 296 1107 q 310 1164 296 1149 q 347 1179 325 1179 q 383 1164 369 1179 q 397 1128 397 1149 q 383 1092 397 1107 q 347 1076 369 1076 q 310 1092 325 1076 m 154 0 l 154 69 l 311 69 l 311 840 l 154 840 l 154 910 l 542 910 l 542 840 l 388 840 l 388 69 l 542 69 l 542 0 l 154 0 z "},"ı":{"ha":694,"x_min":160,"x_max":567,"o":"m 171 590 l 171 660 l 406 660 l 406 69 l 567 69 l 567 0 l 160 0 l 160 69 l 332 69 l 332 590 l 171 590 z "},"Ĳ":{"ha":694,"x_min":60,"x_max":651,"o":"m 203 329 l 203 846 l 60 846 l 60 910 l 406 910 l 406 846 l 276 846 l 276 329 l 406 329 l 406 265 l 60 265 l 60 329 l 203 329 m 575 910 l 651 910 l 651 247 q 562 62 651 114 q 247 -14 472 10 l 238 58 q 503 116 431 79 q 575 247 575 153 l 575 910 z "},"Ĵ":{"ha":694,"x_min":81,"x_max":531,"o":"m 125 1044 l 300 1225 l 356 1225 l 531 1044 l 450 1044 l 328 1169 l 206 1044 l 125 1044 m 433 840 l 433 299 q 401 48 433 110 q 247 -15 368 -14 q 165 -7 224 -15 q 81 8 107 1 l 96 81 q 254 57 190 57 q 338 99 318 57 q 357 303 357 142 l 357 840 l 133 840 l 133 910 l 504 910 l 504 840 l 433 840 z "},"ĵ":{"ha":694,"x_min":138,"x_max":557,"o":"m 461 660 l 461 -14 q 395 -192 461 -144 q 163 -261 329 -239 l 154 -189 q 340 -137 292 -169 q 388 -14 388 -104 l 388 592 l 211 592 l 211 660 l 461 660 m 379 1042 l 557 817 l 476 817 l 347 986 l 218 817 l 138 817 l 315 1042 l 379 1042 z "},"Ķ":{"ha":694,"x_min":99,"x_max":639,"o":"m 300 -287 q 335 -219 335 -253 l 335 -208 l 301 -208 l 301 -100 l 394 -100 l 394 -171 q 383 -256 394 -225 q 331 -318 371 -286 l 300 -287 m 542 910 l 629 910 q 381 468 490 632 q 486 289 422 406 q 639 0 486 289 l 546 0 q 315 424 390 304 l 175 410 l 175 0 l 99 0 l 99 910 l 175 910 l 175 481 l 310 494 q 506 839 408 644 l 542 910 z "},"ķ":{"ha":694,"x_min":135,"x_max":594,"o":"m 499 660 l 582 660 q 361 351 476 490 q 594 0 461 210 l 507 0 q 306 307 396 181 l 208 294 l 208 0 l 135 0 l 135 922 l 208 922 l 208 361 l 299 375 q 499 660 397 503 m 303 -287 q 338 -219 338 -253 l 338 -208 l 304 -208 l 304 -100 l 397 -100 l 397 -171 q 385 -256 397 -225 q 333 -318 374 -286 l 303 -287 z "},"Ĺ":{"ha":694,"x_min":126,"x_max":582,"o":"m 200 1103 l 483 1225 l 510 1161 l 224 1044 l 200 1103 m 582 71 l 582 0 l 126 0 l 126 910 l 203 910 l 203 71 l 582 71 z "},"ĺ":{"ha":694,"x_min":146,"x_max":560,"o":"m 151 853 l 150 921 l 390 922 l 390 69 l 560 69 l 560 0 l 146 0 l 146 69 l 317 69 l 317 854 l 151 853 m 219 1058 l 471 1197 l 503 1129 l 249 1004 l 219 1058 z "},"Ļ":{"ha":694,"x_min":126,"x_max":582,"o":"m 300 -287 q 335 -219 335 -253 l 335 -208 l 301 -208 l 301 -100 l 394 -100 l 394 -171 q 383 -256 394 -225 q 331 -318 371 -286 l 300 -287 m 582 71 l 582 0 l 126 0 l 126 910 l 203 910 l 203 71 l 582 71 z "},"ļ":{"ha":694,"x_min":146,"x_max":560,"o":"m 151 853 l 150 921 l 390 922 l 390 69 l 560 69 l 560 0 l 146 0 l 146 69 l 317 69 l 317 854 l 151 853 m 310 -287 q 344 -219 344 -253 l 344 -208 l 311 -208 l 311 -100 l 404 -100 l 404 -171 q 392 -256 404 -225 q 340 -318 381 -286 l 310 -287 z "},"Ľ":{"ha":694,"x_min":126,"x_max":582,"o":"m 438 832 l 438 947 l 540 947 l 540 865 q 456 681 540 774 l 426 708 q 456 753 426 708 q 482 832 479 788 l 438 832 m 582 71 l 582 0 l 126 0 l 126 910 l 203 910 l 203 71 l 582 71 z "},"ľ":{"ha":694,"x_min":146,"x_max":642,"o":"m 539 832 l 539 947 l 642 947 l 642 865 q 557 674 642 767 l 528 701 q 583 832 581 778 l 539 832 m 151 853 l 150 921 l 390 922 l 390 69 l 560 69 l 560 0 l 146 0 l 146 69 l 317 69 l 317 854 l 151 853 z "},"Ł":{"ha":694,"x_min":14,"x_max":582,"o":"m 428 478 l 14 378 l 14 449 l 428 549 l 428 478 m 582 71 l 582 0 l 126 0 l 126 910 l 203 910 l 203 71 l 582 71 z "},"ł":{"ha":694,"x_min":146,"x_max":560,"o":"m 560 478 l 146 378 l 146 449 l 560 549 l 560 478 m 151 853 l 150 921 l 390 922 l 390 69 l 560 69 l 560 0 l 146 0 l 146 69 l 317 69 l 317 854 l 151 853 z "},"Ń":{"ha":694,"x_min":71,"x_max":624,"o":"m 200 1103 l 483 1225 l 510 1161 l 224 1044 l 200 1103 m 547 0 l 547 143 l 151 765 l 147 765 l 147 0 l 71 0 l 71 910 l 146 910 l 543 281 l 547 281 l 547 910 l 624 910 l 624 0 l 547 0 z "},"ń":{"ha":694,"x_min":106,"x_max":593,"o":"m 176 660 l 179 604 q 403 668 314 668 q 542 607 492 668 q 593 440 593 546 l 593 0 l 519 0 l 519 440 q 486 553 519 508 q 386 596 453 596 q 179 535 319 596 l 179 0 l 106 0 l 106 660 l 176 660 m 206 857 l 457 996 l 489 928 l 235 803 l 206 857 z "},"Ņ":{"ha":694,"x_min":71,"x_max":624,"o":"m 300 -287 q 335 -219 335 -253 l 335 -208 l 301 -208 l 301 -100 l 394 -100 l 394 -171 q 383 -256 394 -225 q 331 -318 371 -286 l 300 -287 m 547 0 l 547 143 l 151 765 l 147 765 l 147 0 l 71 0 l 71 910 l 146 910 l 543 281 l 547 281 l 547 910 l 624 910 l 624 0 l 547 0 z "},"ņ":{"ha":694,"x_min":106,"x_max":593,"o":"m 176 660 l 179 604 q 403 668 315 668 q 542 607 492 668 q 593 440 593 546 l 593 0 l 519 0 l 519 440 q 487 552 519 508 q 387 596 454 596 q 179 535 319 596 l 179 0 l 106 0 l 106 660 l 176 660 m 303 -287 q 338 -219 338 -253 l 338 -208 l 304 -208 l 304 -100 l 397 -100 l 397 -171 q 385 -256 397 -225 q 333 -318 374 -286 l 303 -287 z "},"Ň":{"ha":694,"x_min":71,"x_max":624,"o":"m 554 1225 l 379 1044 l 324 1044 l 149 1225 l 231 1225 l 351 1101 l 472 1225 l 554 1225 m 547 0 l 547 143 l 151 765 l 147 765 l 147 0 l 71 0 l 71 910 l 146 910 l 543 281 l 547 281 l 547 910 l 624 910 l 624 0 l 547 0 z "},"ň":{"ha":694,"x_min":106,"x_max":593,"o":"m 176 660 l 179 604 q 403 668 314 668 q 542 607 492 668 q 593 440 593 546 l 593 0 l 519 0 l 519 440 q 486 553 519 508 q 386 596 453 596 q 179 535 319 596 l 179 0 l 106 0 l 106 660 l 176 660 m 550 1003 l 375 822 l 319 822 l 144 1003 l 226 1003 l 347 879 l 468 1003 l 550 1003 z "},"Ŋ":{"ha":694,"x_min":71,"x_max":624,"o":"m 624 910 l 624 -14 q 607 -127 624 -83 q 549 -197 590 -171 q 458 -237 507 -224 q 324 -261 408 -250 l 315 -189 q 500 -137 453 -169 q 547 -14 547 -104 l 547 143 l 147 774 l 147 0 l 71 0 l 71 910 l 146 910 l 547 272 l 547 910 l 624 910 z "},"ŋ":{"ha":694,"x_min":106,"x_max":593,"o":"m 593 440 l 593 -14 q 527 -192 593 -144 q 294 -261 461 -239 l 286 -189 q 472 -137 424 -169 q 519 -14 519 -104 l 519 440 q 486 553 519 508 q 386 596 453 596 q 179 535 319 596 l 179 0 l 106 0 l 106 660 l 176 660 l 179 604 q 403 668 314 668 q 542 607 492 668 q 593 440 593 546 z "},"Ō":{"ha":694,"x_min":56,"x_max":639,"o":"m 144 1158 l 551 1158 l 551 1096 l 144 1096 l 144 1158 m 56 464 q 69 651 56 572 q 114 794 83 731 q 347 924 176 924 q 603 742 542 922 q 639 497 639 638 q 625 272 639 356 q 581 122 611 189 q 347 -14 517 -14 q 115 122 181 -14 q 56 464 56 246 m 557 453 q 553 574 557 528 q 538 675 550 619 q 503 767 525 731 q 442 827 482 803 q 347 851 403 851 q 252 827 292 851 q 191 767 213 803 q 157 675 169 731 q 138 484 138 589 q 145 315 138 379 q 174 188 153 250 q 347 58 217 58 q 522 189 481 58 q 557 453 558 300 z "},"ō":{"ha":694,"x_min":82,"x_max":613,"o":"m 82 328 q 82 498 82 328 q 347 668 82 668 q 613 328 613 668 q 347 -12 613 -12 q 82 328 82 -12 m 347 596 q 254 596 347 596 q 161 328 161 596 q 347 60 161 60 q 533 328 533 60 q 347 596 533 596 m 144 929 l 551 929 l 551 867 l 144 867 l 144 929 z "},"Ŏ":{"ha":694,"x_min":56,"x_max":639,"o":"m 538 1215 q 349 1047 518 1047 q 160 1215 179 1047 l 224 1215 q 260 1132 232 1158 q 349 1106 289 1106 q 436 1131 408 1106 q 472 1215 464 1157 l 538 1215 m 56 464 q 69 651 56 572 q 114 794 83 731 q 347 924 176 924 q 603 742 542 922 q 639 497 639 638 q 625 272 639 356 q 581 122 611 189 q 347 -14 517 -14 q 115 122 181 -14 q 56 464 56 246 m 557 453 q 553 574 557 528 q 538 675 550 619 q 503 767 525 731 q 442 827 482 803 q 347 851 403 851 q 252 827 292 851 q 191 767 213 803 q 157 675 169 731 q 138 484 138 589 q 145 315 138 379 q 174 188 153 250 q 347 58 217 58 q 522 189 481 58 q 557 453 558 300 z "},"ŏ":{"ha":694,"x_min":82,"x_max":613,"o":"m 82 328 q 82 498 82 328 q 347 668 82 668 q 613 328 613 668 q 347 -12 613 -12 q 82 328 82 -12 m 347 596 q 254 596 347 596 q 161 328 161 596 q 347 60 161 60 q 533 328 533 60 q 347 596 533 596 m 536 972 q 347 804 517 804 q 158 972 178 804 l 222 972 q 259 889 231 915 q 347 863 288 863 q 435 888 407 863 q 471 972 463 914 l 536 972 z "},"Ő":{"ha":694,"x_min":56,"x_max":639,"o":"m 146 1029 l 354 1201 l 400 1144 l 182 983 l 146 1029 m 364 1029 l 574 1200 l 618 1144 l 400 983 l 364 1029 m 56 464 q 69 651 56 572 q 114 794 83 731 q 347 924 176 924 q 603 742 542 922 q 639 497 639 638 q 625 272 639 356 q 581 122 611 189 q 347 -14 517 -14 q 115 122 181 -14 q 56 464 56 246 m 557 453 q 553 574 557 528 q 538 675 550 619 q 503 767 525 731 q 442 827 482 803 q 347 851 403 851 q 252 827 292 851 q 191 767 213 803 q 157 675 169 731 q 138 484 138 589 q 145 315 138 379 q 174 188 153 250 q 347 58 217 58 q 522 189 481 58 q 557 453 558 300 z "},"ő":{"ha":694,"x_min":82,"x_max":618,"o":"m 82 328 q 82 498 82 328 q 347 668 82 668 q 613 328 613 668 q 347 -12 613 -12 q 82 328 82 -12 m 347 596 q 254 596 347 596 q 161 328 161 596 q 347 60 161 60 q 533 328 533 60 q 347 596 533 596 m 146 835 l 354 1007 l 400 950 l 182 789 l 146 835 m 364 835 l 574 1006 l 618 950 l 400 789 l 364 835 z "},"Œ":{"ha":694,"x_min":53,"x_max":668,"o":"m 358 910 l 664 910 l 664 843 l 450 843 l 450 496 l 626 496 l 626 429 l 450 429 l 450 67 l 668 67 l 668 0 l 358 0 q 53 467 53 0 q 211 878 53 793 q 358 910 272 910 m 135 464 q 144 314 135 381 q 178 189 154 247 q 358 68 226 68 l 374 68 l 374 840 q 358 842 363 842 q 175 725 222 842 q 135 464 136 628 z "},"œ":{"ha":694,"x_min":24,"x_max":674,"o":"m 24 328 q 24 415 24 328 q 62 585 24 503 q 211 668 100 668 q 351 535 322 668 q 371 599 354 564 q 497 668 404 668 q 631 594 589 668 q 674 371 674 519 l 669 301 l 383 301 q 522 60 397 60 q 628 83 567 61 l 647 90 l 668 21 q 528 -12 585 -12 q 434 8 471 -12 q 381 61 397 29 q 353 143 356 111 q 336 69 353 111 q 201 -14 303 -14 q 62 69 100 -14 q 24 328 24 153 m 119 524 q 114 505 119 524 q 106 443 108 486 q 103 328 103 400 q 106 214 103 257 q 119 132 108 171 q 151 76 129 93 q 206 58 172 58 q 261 75 239 58 q 292 132 281 93 q 308 296 308 192 q 306 443 308 400 q 292 524 303 486 q 261 579 282 563 q 206 596 240 596 q 150 579 171 596 q 119 524 129 563 m 493 596 q 436 581 451 596 l 414 556 q 401 526 406 547 q 392 494 396 506 q 388 455 389 483 q 385 415 386 426 q 383 371 385 404 l 594 371 q 573 541 594 486 q 493 596 551 596 z "},"Ŕ":{"ha":694,"x_min":85,"x_max":622,"o":"m 172 1103 l 456 1225 l 482 1161 l 196 1044 l 172 1103 m 372 374 q 275 369 297 369 l 161 369 l 161 0 l 85 0 l 85 910 l 289 910 q 538 851 458 910 q 617 646 617 793 q 577 488 617 547 q 450 390 538 428 q 622 0 544 211 l 539 0 q 372 374 463 203 m 286 840 l 161 840 l 161 439 l 272 439 q 468 485 400 439 q 536 646 536 532 q 476 800 536 760 q 286 840 415 840 z "},"ŕ":{"ha":694,"x_min":126,"x_max":600,"o":"m 126 590 l 126 660 l 331 660 l 333 579 q 458 635 378 607 q 600 668 539 663 l 600 586 q 459 558 543 582 q 333 510 375 535 l 333 69 l 556 69 l 556 0 l 126 0 l 126 69 l 260 69 l 260 590 l 126 590 m 206 857 l 457 996 l 489 928 l 235 803 l 206 857 z "},"Ŗ":{"ha":694,"x_min":85,"x_max":622,"o":"m 300 -287 q 335 -219 335 -253 l 335 -208 l 301 -208 l 301 -100 l 394 -100 l 394 -171 q 383 -256 394 -225 q 331 -318 371 -286 l 300 -287 m 372 374 q 275 369 297 369 l 161 369 l 161 0 l 85 0 l 85 910 l 289 910 q 538 851 458 910 q 617 646 617 793 q 577 488 617 547 q 450 390 538 428 q 622 0 544 211 l 539 0 q 372 374 463 203 m 286 840 l 161 840 l 161 439 l 272 439 q 468 485 400 439 q 536 646 536 532 q 476 800 536 760 q 286 840 415 840 z "},"ŗ":{"ha":694,"x_min":126,"x_max":600,"o":"m 126 590 l 126 660 l 331 660 l 333 579 q 458 635 378 607 q 600 668 539 663 l 600 586 q 459 558 543 582 q 333 510 375 535 l 333 69 l 556 69 l 556 0 l 126 0 l 126 69 l 260 69 l 260 590 l 126 590 m 303 -287 q 338 -219 338 -253 l 338 -208 l 304 -208 l 304 -100 l 397 -100 l 397 -171 q 385 -256 397 -225 q 333 -318 374 -286 l 303 -287 z "},"Ř":{"ha":694,"x_min":85,"x_max":622,"o":"m 526 1225 l 351 1044 l 296 1044 l 121 1225 l 203 1225 l 324 1101 l 444 1225 l 526 1225 m 372 374 q 275 369 297 369 l 161 369 l 161 0 l 85 0 l 85 910 l 289 910 q 538 851 458 910 q 617 646 617 793 q 577 488 617 547 q 450 390 538 428 q 622 0 544 211 l 539 0 q 372 374 463 203 m 286 840 l 161 840 l 161 439 l 272 439 q 468 485 400 439 q 536 646 536 532 q 476 800 536 760 q 286 840 415 840 z "},"ř":{"ha":694,"x_min":126,"x_max":600,"o":"m 126 590 l 126 660 l 331 660 l 333 579 q 458 635 378 607 q 600 668 539 663 l 600 586 q 459 558 543 582 q 333 510 375 535 l 333 69 l 556 69 l 556 0 l 126 0 l 126 69 l 260 69 l 260 590 l 126 590 m 550 1003 l 375 822 l 319 822 l 144 1003 l 226 1003 l 347 879 l 468 1003 l 550 1003 z "},"Ś":{"ha":694,"x_min":75,"x_max":601,"o":"m 219 1058 l 471 1197 l 503 1129 l 249 1004 l 219 1058 m 315 437 q 252 452 315 437 q 133 524 190 467 q 75 692 75 582 q 151 863 75 801 q 346 924 226 924 q 589 881 465 924 l 569 810 q 358 851 454 851 q 210 810 261 851 q 158 692 158 769 q 200 574 158 614 q 366 501 242 533 q 546 415 490 468 q 601 242 601 361 q 522 55 601 124 q 315 -14 442 -14 q 76 26 221 -14 l 94 97 q 322 58 236 58 q 464 106 408 58 q 519 240 519 154 q 479 367 519 326 q 315 437 439 407 z "},"ś":{"ha":694,"x_min":108,"x_max":574,"o":"m 108 32 l 126 104 q 339 58 264 58 q 455 91 414 58 q 496 178 496 124 q 463 258 496 232 q 328 307 431 283 q 174 375 225 331 q 122 500 122 417 q 185 627 122 583 q 349 671 249 671 q 565 626 449 671 l 546 561 q 356 600 428 600 q 242 575 283 600 q 200 500 200 547 q 237 426 200 453 q 379 374 274 400 q 529 306 485 347 q 574 178 574 265 q 514 39 574 90 q 347 -12 456 -12 q 108 32 239 -12 m 206 857 l 457 996 l 489 928 l 235 803 l 206 857 z "},"Ŝ":{"ha":694,"x_min":75,"x_max":601,"o":"m 149 1044 l 324 1225 l 379 1225 l 554 1044 l 474 1044 l 351 1169 l 229 1044 l 149 1044 m 315 437 q 252 452 315 437 q 133 524 190 467 q 75 692 75 582 q 151 863 75 801 q 346 924 226 924 q 589 881 465 924 l 569 810 q 358 851 454 851 q 210 810 261 851 q 158 692 158 769 q 200 574 158 614 q 366 501 242 533 q 546 415 490 468 q 601 242 601 361 q 522 55 601 124 q 315 -14 442 -14 q 76 26 221 -14 l 94 97 q 322 58 236 58 q 464 106 408 58 q 519 240 519 154 q 479 367 519 326 q 315 437 439 407 z "},"ŝ":{"ha":694,"x_min":108,"x_max":574,"o":"m 108 32 l 126 104 q 339 58 264 58 q 455 91 414 58 q 496 178 496 124 q 463 258 496 232 q 328 307 431 283 q 174 375 225 331 q 122 500 122 417 q 185 627 122 583 q 349 671 249 671 q 565 626 449 671 l 546 561 q 356 600 428 600 q 242 575 283 600 q 200 500 200 547 q 237 426 200 453 q 379 374 274 400 q 529 306 485 347 q 574 178 574 265 q 514 39 574 90 q 347 -12 456 -12 q 108 32 239 -12 m 379 1042 l 557 817 l 476 817 l 347 986 l 218 817 l 138 817 l 315 1042 l 379 1042 z "},"Ş":{"ha":694,"x_min":75,"x_max":601,"o":"m 336 -79 q 360 -79 336 -79 q 420 -112 385 -79 q 456 -206 456 -144 q 420 -302 456 -268 q 326 -336 385 -336 q 239 -326 294 -336 l 246 -267 q 311 -274 274 -274 q 385 -206 385 -274 q 311 -140 385 -140 q 251 -147 286 -140 l 243 -90 q 336 -79 288 -79 m 315 437 q 252 452 315 437 q 133 524 190 467 q 75 692 75 582 q 151 863 75 801 q 346 924 226 924 q 589 881 465 924 l 569 810 q 358 851 454 851 q 210 810 261 851 q 158 692 158 769 q 200 574 158 614 q 366 501 242 533 q 546 415 490 468 q 601 242 601 361 q 522 55 601 124 q 315 -14 442 -14 q 76 26 221 -14 l 94 97 q 322 58 236 58 q 464 106 408 58 q 519 240 519 154 q 479 367 519 326 q 315 437 439 407 z "},"ş":{"ha":694,"x_min":108,"x_max":574,"o":"m 108 32 l 126 104 q 340 58 264 58 q 456 91 415 58 q 496 178 496 124 q 463 258 496 232 q 328 307 431 283 q 174 374 225 331 q 122 501 122 418 q 185 627 122 583 q 349 671 249 671 q 565 626 449 671 l 546 561 q 366 600 426 600 q 275 590 306 600 q 200 496 200 567 q 237 426 200 453 q 379 374 274 400 q 529 306 485 347 q 574 178 574 265 q 514 39 574 90 q 347 -12 454 -12 q 108 32 239 -12 m 336 -79 q 360 -79 336 -79 q 420 -112 385 -79 q 456 -206 456 -144 q 420 -302 456 -268 q 326 -336 385 -336 q 239 -326 294 -336 l 246 -267 q 311 -274 274 -274 q 385 -206 385 -274 q 311 -140 385 -140 q 251 -147 286 -140 l 243 -90 q 336 -79 288 -79 z "},"Š":{"ha":694,"x_min":75,"x_max":601,"o":"m 540 1225 l 365 1044 l 310 1044 l 135 1225 l 217 1225 l 338 1101 l 458 1225 l 540 1225 m 315 437 q 252 452 315 437 q 133 524 190 467 q 75 692 75 582 q 151 863 75 801 q 346 924 226 924 q 589 881 465 924 l 569 810 q 358 851 454 851 q 210 810 261 851 q 158 692 158 769 q 200 574 158 614 q 366 501 242 533 q 546 415 490 468 q 601 242 601 361 q 522 55 601 124 q 315 -14 442 -14 q 76 26 221 -14 l 94 97 q 322 58 236 58 q 464 106 408 58 q 519 240 519 154 q 479 367 519 326 q 315 437 439 407 z "},"š":{"ha":694,"x_min":108,"x_max":574,"o":"m 108 32 l 126 104 q 339 58 264 58 q 455 91 414 58 q 496 178 496 124 q 463 258 496 232 q 328 307 431 283 q 174 375 225 331 q 122 500 122 417 q 185 627 122 583 q 349 671 249 671 q 565 626 449 671 l 546 561 q 356 600 428 600 q 242 575 283 600 q 200 500 200 547 q 237 426 200 453 q 379 374 274 400 q 529 306 485 347 q 574 178 574 265 q 514 39 574 90 q 347 -12 456 -12 q 108 32 239 -12 m 550 1003 l 375 822 l 319 822 l 144 1003 l 226 1003 l 347 879 l 468 1003 l 550 1003 z "},"Ţ":{"ha":694,"x_min":67,"x_max":625,"o":"m 300 -287 q 335 -219 335 -253 l 335 -208 l 301 -208 l 301 -100 l 394 -100 l 394 -171 q 383 -256 394 -225 q 331 -318 371 -286 l 300 -287 m 67 839 l 67 910 l 625 910 l 625 839 l 383 839 l 383 0 l 307 0 l 307 839 l 67 839 z "},"ţ":{"ha":694,"x_min":106,"x_max":569,"o":"m 222 581 l 106 581 l 106 650 l 222 650 l 222 810 l 296 824 l 296 650 l 560 650 l 560 581 l 296 581 l 296 256 q 317 103 296 147 q 406 58 339 58 q 553 85 474 58 l 569 15 q 420 -14 489 -14 q 311 4 351 -14 q 252 62 271 22 q 228 143 233 101 q 222 253 222 185 l 222 581 m 331 -287 q 365 -219 365 -253 l 365 -208 l 332 -208 l 332 -100 l 425 -100 l 425 -171 q 413 -256 425 -225 q 361 -318 401 -286 l 331 -287 z "},"Ť":{"ha":694,"x_min":67,"x_max":625,"o":"m 554 1225 l 379 1044 l 324 1044 l 149 1225 l 231 1225 l 351 1101 l 472 1225 l 554 1225 m 67 839 l 67 910 l 625 910 l 625 839 l 383 839 l 383 0 l 307 0 l 307 839 l 67 839 z "},"ť":{"ha":694,"x_min":106,"x_max":679,"o":"m 576 832 l 576 947 l 679 947 l 679 865 q 594 681 679 774 l 565 708 q 594 753 565 708 q 621 832 618 788 l 576 832 m 222 553 l 106 553 l 106 622 l 222 622 l 222 810 l 296 824 l 296 622 l 560 622 l 560 553 l 296 553 l 296 256 q 317 103 296 147 q 406 58 339 58 q 553 85 474 58 l 569 15 q 420 -14 489 -14 q 311 4 351 -14 q 252 62 271 22 q 228 143 233 101 q 222 253 222 185 l 222 553 z "},"Ŧ":{"ha":694,"x_min":67,"x_max":625,"o":"m 144 631 l 551 631 l 551 568 l 144 568 l 144 631 m 67 839 l 67 910 l 625 910 l 625 839 l 383 839 l 383 0 l 307 0 l 307 839 l 67 839 z "},"ŧ":{"ha":694,"x_min":106,"x_max":569,"o":"m 106 815 l 222 815 l 222 976 l 296 990 l 296 815 l 560 815 l 560 754 l 296 754 l 296 622 l 560 622 l 560 561 l 296 561 l 296 256 q 317 103 296 147 q 406 58 339 58 q 553 85 472 58 l 569 15 q 419 -14 489 -14 q 310 4 350 -14 q 252 62 271 22 q 228 143 233 101 q 222 253 222 185 l 222 561 l 106 561 l 106 622 l 222 622 l 222 754 l 106 754 l 106 815 z "},"Ũ":{"ha":694,"x_min":75,"x_max":619,"o":"m 526 1193 l 561 1147 q 444 1071 492 1071 q 344 1108 397 1071 q 261 1146 292 1146 q 171 1089 231 1146 l 132 1136 q 261 1211 211 1211 q 364 1174 311 1211 q 442 1138 417 1138 q 526 1193 467 1138 m 75 263 l 75 910 l 151 910 l 151 272 q 347 58 151 58 q 494 117 446 58 q 543 272 543 176 l 543 910 l 619 910 l 619 263 q 549 57 619 128 q 344 -14 479 -14 q 142 60 210 -14 q 75 263 75 133 z "},"ũ":{"ha":694,"x_min":103,"x_max":590,"o":"m 519 0 l 517 57 q 294 -12 383 -12 q 154 49 206 -12 q 103 215 103 110 l 103 660 l 176 660 l 176 215 q 209 103 176 147 q 308 60 242 60 q 517 129 375 60 l 517 660 l 590 660 l 590 0 l 519 0 m 526 964 l 561 918 q 444 842 492 842 q 344 879 397 842 q 261 917 292 917 q 171 860 231 917 l 132 907 q 261 982 211 982 q 364 945 311 982 q 442 908 417 908 q 526 964 467 908 z "},"Ū":{"ha":694,"x_min":75,"x_max":619,"o":"m 144 1158 l 551 1158 l 551 1096 l 144 1096 l 144 1158 m 75 263 l 75 910 l 151 910 l 151 272 q 347 58 151 58 q 494 117 446 58 q 543 272 543 176 l 543 910 l 619 910 l 619 263 q 549 57 619 128 q 344 -14 479 -14 q 142 60 210 -14 q 75 263 75 133 z "},"ū":{"ha":694,"x_min":103,"x_max":590,"o":"m 519 0 l 517 57 q 294 -12 383 -12 q 154 49 206 -12 q 103 215 103 110 l 103 660 l 176 660 l 176 215 q 209 103 176 147 q 308 60 242 60 q 517 129 375 60 l 517 660 l 590 660 l 590 0 l 519 0 m 144 929 l 551 929 l 551 867 l 144 867 l 144 929 z "},"Ŭ":{"ha":694,"x_min":75,"x_max":619,"o":"m 536 1215 q 347 1047 517 1047 q 158 1215 178 1047 l 222 1215 q 259 1132 231 1158 q 347 1106 288 1106 q 435 1131 407 1106 q 471 1215 463 1157 l 536 1215 m 75 263 l 75 910 l 151 910 l 151 272 q 347 58 151 58 q 494 117 446 58 q 543 272 543 176 l 543 910 l 619 910 l 619 263 q 549 57 619 128 q 344 -14 479 -14 q 142 60 210 -14 q 75 263 75 133 z "},"ŭ":{"ha":694,"x_min":103,"x_max":590,"o":"m 519 0 l 517 57 q 294 -12 383 -12 q 154 49 206 -12 q 103 215 103 110 l 103 660 l 176 660 l 176 215 q 209 103 176 147 q 308 60 242 60 q 517 129 375 60 l 517 660 l 590 660 l 590 0 l 519 0 m 536 972 q 347 804 517 804 q 158 972 178 804 l 222 972 q 259 889 231 915 q 347 863 288 863 q 435 888 407 863 q 471 972 463 914 l 536 972 z "},"Ů":{"ha":694,"x_min":75,"x_max":619,"o":"m 347 1269 q 380 1269 347 1269 q 452 1234 413 1269 q 492 1137 492 1199 q 452 1040 492 1075 q 347 1004 413 1004 q 241 1040 281 1004 q 201 1137 201 1075 q 241 1234 201 1199 q 347 1269 281 1269 m 260 1136 q 283 1078 260 1099 q 346 1057 306 1057 q 409 1078 386 1057 q 432 1136 432 1099 q 346 1215 432 1215 q 260 1136 260 1215 m 75 263 l 75 910 l 151 910 l 151 272 q 347 58 151 58 q 494 117 446 58 q 543 272 543 176 l 543 910 l 619 910 l 619 263 q 549 57 619 128 q 344 -14 479 -14 q 142 60 210 -14 q 75 263 75 133 z "},"ů":{"ha":694,"x_min":103,"x_max":590,"o":"m 519 0 l 517 57 q 294 -12 383 -12 q 154 49 206 -12 q 103 215 103 110 l 103 660 l 176 660 l 176 215 q 209 103 176 147 q 308 60 242 60 q 517 129 375 60 l 517 660 l 590 660 l 590 0 l 519 0 m 347 1047 q 380 1047 347 1047 q 452 1012 413 1047 q 492 915 492 976 q 452 817 492 853 q 347 782 413 782 q 241 817 281 782 q 201 915 201 853 q 241 1012 201 976 q 347 1047 281 1047 m 260 914 q 283 856 260 876 q 346 835 306 835 q 409 856 386 835 q 432 914 432 876 q 346 993 432 993 q 260 914 260 993 z "},"Ű":{"ha":694,"x_min":75,"x_max":628,"o":"m 156 1029 l 364 1201 l 410 1144 l 192 983 l 156 1029 m 374 1029 l 583 1200 l 628 1144 l 410 983 l 374 1029 m 75 263 l 75 910 l 151 910 l 151 272 q 347 58 151 58 q 494 117 446 58 q 543 272 543 176 l 543 910 l 619 910 l 619 263 q 549 57 619 128 q 344 -14 479 -14 q 142 60 210 -14 q 75 263 75 133 z "},"ű":{"ha":694,"x_min":103,"x_max":618,"o":"m 519 0 l 517 57 q 294 -12 383 -12 q 154 49 206 -12 q 103 215 103 110 l 103 660 l 176 660 l 176 215 q 209 103 176 147 q 308 60 242 60 q 517 129 375 60 l 517 660 l 590 660 l 590 0 l 519 0 m 146 835 l 354 1007 l 400 950 l 182 789 l 146 835 m 364 835 l 574 1006 l 618 950 l 400 789 l 364 835 z "},"Ų":{"ha":694,"x_min":75,"x_max":618,"o":"m 553 -329 q 434 -342 483 -343 q 348 -301 385 -342 q 311 -207 311 -261 q 333 -112 311 -153 q 413 -15 356 -71 l 347 -15 q 144 60 214 -15 q 75 264 75 136 l 75 910 l 151 910 l 151 274 q 347 57 151 57 q 443 67 415 57 q 543 238 543 101 l 543 910 l 618 910 l 618 225 q 592 93 618 144 q 496 -25 567 42 q 404 -127 425 -92 q 383 -197 383 -162 q 403 -256 383 -232 q 465 -279 424 -279 q 544 -271 507 -279 l 553 -329 z "},"ų":{"ha":694,"x_min":103,"x_max":590,"o":"m 578 -332 q 459 -345 508 -346 q 373 -304 410 -344 q 336 -201 336 -264 q 378 -89 336 -139 q 518 22 419 -39 q 517 43 518 29 q 517 64 517 57 q 309 -8 378 -8 q 199 13 240 -8 q 139 75 158 33 q 103 289 103 150 l 103 660 l 176 660 l 176 215 q 209 106 176 147 q 306 64 242 64 q 517 136 369 64 l 517 660 l 590 660 l 590 -4 q 447 -114 486 -72 q 408 -196 408 -156 q 489 -282 408 -282 q 569 -274 532 -282 l 578 -332 z "},"Ŵ":{"ha":694,"x_min":3,"x_max":692,"o":"m 149 1044 l 324 1225 l 379 1225 l 554 1044 l 474 1044 l 351 1169 l 229 1044 l 149 1044 m 104 0 l 3 910 l 82 910 l 175 69 l 190 69 l 313 508 l 386 508 l 503 69 l 519 69 l 613 910 l 692 910 l 590 0 l 450 0 l 350 392 l 346 392 l 242 0 l 104 0 z "},"ŵ":{"ha":694,"x_min":49,"x_max":646,"o":"m 574 660 l 646 660 l 567 0 l 419 0 l 349 288 l 343 288 l 271 0 l 125 0 l 49 660 l 121 660 l 193 67 l 218 67 l 311 401 l 383 401 l 476 67 l 501 67 l 574 660 m 379 1042 l 557 817 l 476 817 l 347 986 l 218 817 l 138 817 l 315 1042 l 379 1042 z "},"Ŷ":{"ha":694,"x_min":40,"x_max":651,"o":"m 149 1044 l 324 1225 l 379 1225 l 554 1044 l 474 1044 l 351 1169 l 229 1044 l 149 1044 m 383 393 l 383 0 l 308 0 l 308 393 l 40 910 l 132 910 l 344 472 l 347 472 l 560 910 l 651 910 l 383 393 z "},"ŷ":{"ha":694,"x_min":74,"x_max":622,"o":"m 74 660 l 157 660 l 353 99 l 364 99 l 539 660 l 622 660 l 367 -112 q 291 -253 331 -222 q 131 -286 251 -283 l 131 -215 q 235 -193 208 -214 q 283 -106 261 -172 l 315 -10 l 74 660 m 379 1042 l 557 817 l 476 817 l 347 986 l 218 817 l 138 817 l 315 1042 l 379 1042 z "},"Ÿ":{"ha":694,"x_min":40,"x_max":651,"o":"m 386 393 l 386 0 l 310 0 l 310 393 l 40 910 l 136 910 l 347 472 l 350 472 l 564 910 l 651 910 l 386 393 m 444 1092 q 438 1099 444 1092 q 431 1128 431 1107 q 444 1164 431 1149 q 481 1179 458 1179 q 517 1164 503 1179 q 532 1128 532 1149 q 517 1092 532 1107 q 481 1076 503 1076 q 444 1092 458 1076 m 176 1092 q 169 1099 176 1092 q 163 1128 163 1107 q 176 1164 163 1149 q 213 1179 190 1179 q 249 1164 235 1179 q 263 1128 263 1149 q 249 1092 263 1107 q 213 1076 235 1076 q 176 1092 190 1076 z "},"Ź":{"ha":694,"x_min":97,"x_max":619,"o":"m 97 840 l 97 910 l 597 910 l 597 854 l 188 69 l 619 69 l 619 0 l 97 0 l 97 56 l 506 840 l 97 840 m 219 1058 l 471 1197 l 503 1129 l 249 1004 l 219 1058 z "},"ź":{"ha":694,"x_min":108,"x_max":585,"o":"m 121 590 l 121 660 l 574 660 l 581 603 l 207 69 l 585 69 l 585 0 l 119 0 l 108 57 l 481 590 l 121 590 m 206 857 l 457 996 l 489 928 l 235 803 l 206 857 z "},"Ż":{"ha":694,"x_min":97,"x_max":619,"o":"m 97 840 l 97 910 l 597 910 l 597 854 l 188 69 l 619 69 l 619 0 l 97 0 l 97 56 l 506 840 l 97 840 m 310 1092 q 303 1099 310 1092 q 296 1128 296 1107 q 310 1164 296 1149 q 347 1179 325 1179 q 383 1164 369 1179 q 397 1128 397 1149 q 383 1092 397 1107 q 347 1076 369 1076 q 310 1092 325 1076 z "},"ż":{"ha":694,"x_min":108,"x_max":585,"o":"m 121 590 l 121 660 l 574 660 l 581 603 l 207 69 l 585 69 l 585 0 l 119 0 l 108 57 l 481 590 l 121 590 m 310 863 q 303 870 310 863 q 296 899 296 878 q 310 935 296 919 q 347 950 325 950 q 383 935 369 950 q 397 899 397 919 q 383 863 397 878 q 347 847 369 847 q 310 863 325 847 z "},"Ž":{"ha":694,"x_min":97,"x_max":619,"o":"m 554 1225 l 379 1044 l 324 1044 l 149 1225 l 231 1225 l 351 1101 l 472 1225 l 554 1225 m 97 840 l 97 910 l 597 910 l 597 854 l 188 69 l 619 69 l 619 0 l 97 0 l 97 56 l 506 840 l 97 840 z "},"ž":{"ha":694,"x_min":108,"x_max":585,"o":"m 121 590 l 121 660 l 574 660 l 581 603 l 207 69 l 585 69 l 585 0 l 119 0 l 108 57 l 481 590 l 121 590 m 556 1003 l 381 822 l 325 822 l 150 1003 l 232 1003 l 353 879 l 474 1003 l 556 1003 z "},"ƒ":{"ha":694,"x_min":35,"x_max":629,"o":"m 185 8 q 256 563 185 8 l 131 563 l 142 632 l 265 632 q 492 907 296 907 q 629 883 556 907 l 604 813 q 486 835 532 835 q 339 632 363 835 l 572 632 l 561 563 l 331 563 l 258 8 q 185 -200 239 -133 q 35 -267 131 -267 l 39 -199 q 135 -148 101 -199 q 185 8 168 -97 z "},"Ǻ":{"ha":694,"x_min":24,"x_max":669,"o":"m 447 1014 l 525 1279 l 607 1258 l 504 996 l 447 1014 m 249 1269 q 282 1269 249 1269 q 355 1234 315 1269 q 394 1137 394 1199 q 355 1040 394 1075 q 249 1004 315 1004 q 144 1040 183 1004 q 104 1137 104 1075 q 144 1234 104 1199 q 249 1269 183 1269 m 163 1136 q 185 1078 163 1099 q 249 1057 208 1057 q 312 1078 289 1057 q 335 1136 335 1099 q 249 1215 335 1215 q 163 1136 163 1215 m 24 0 l 285 910 l 418 910 l 669 0 l 588 0 l 531 210 l 163 210 l 104 0 l 24 0 m 513 279 l 363 840 l 339 840 l 182 279 l 513 279 z "},"ǻ":{"ha":694,"x_min":83,"x_max":588,"o":"m 214 1100 l 465 1239 l 497 1178 l 243 1053 l 214 1100 m 303 60 q 415 92 354 60 q 503 153 475 125 l 503 318 q 328 325 413 325 q 203 290 244 325 q 161 194 161 254 q 303 60 161 60 m 301 -12 q 142 40 200 -12 q 83 188 83 92 q 147 337 83 283 q 316 390 210 390 q 503 382 422 390 q 472 551 503 506 q 349 596 442 596 q 129 551 256 596 l 108 621 q 342 668 238 668 q 528 607 479 668 q 576 393 576 546 l 576 101 l 588 -4 l 517 -11 l 503 72 q 413 16 471 44 q 301 -12 354 -12 m 347 999 q 380 999 347 999 q 452 963 413 999 q 492 866 492 928 q 452 769 492 804 q 347 733 413 733 q 241 769 281 733 q 201 866 201 804 q 241 963 201 928 q 347 999 281 999 m 260 865 q 283 807 260 828 q 346 786 306 786 q 409 807 386 786 q 432 865 432 828 q 346 944 432 944 q 260 865 260 944 z "},"Ǽ":{"ha":694,"x_min":22,"x_max":668,"o":"m 668 0 l 360 0 l 360 210 l 161 210 l 103 0 l 22 0 l 286 910 l 664 910 l 664 843 l 436 843 l 436 496 l 626 496 l 626 429 l 436 429 l 436 67 l 668 67 l 668 0 m 242 1103 l 525 1225 l 551 1161 l 265 1044 l 242 1103 m 181 279 l 360 279 l 360 844 l 344 844 l 181 279 z "},"ǽ":{"ha":694,"x_min":26,"x_max":674,"o":"m 206 857 l 457 996 l 489 928 l 235 803 l 206 857 m 188 -14 q 70 40 114 -14 q 26 183 26 93 q 77 323 26 272 q 217 374 128 374 l 307 374 q 299 533 307 514 q 283 565 292 551 q 215 588 269 588 q 72 544 161 588 l 47 611 q 215 660 147 660 q 313 641 282 660 q 360 576 344 622 q 494 667 397 667 q 632 597 590 667 q 674 374 674 526 l 669 301 l 381 301 q 450 75 394 117 q 504 57 475 56 q 622 81 550 58 l 647 88 l 668 21 q 517 -14 578 -14 q 419 9 457 -14 q 354 83 382 32 q 188 -14 301 -14 m 307 128 l 307 303 l 217 303 q 134 272 164 303 q 104 186 104 242 q 194 57 104 57 q 289 103 250 58 q 307 128 297 114 m 594 371 q 573 540 594 485 q 492 594 551 594 q 408 542 432 594 q 381 371 383 489 l 594 371 z "},"Ǿ":{"ha":694,"x_min":56,"x_max":639,"o":"m 215 1103 l 499 1225 l 525 1161 l 239 1044 l 215 1103 m 56 467 q 203 892 56 808 q 347 924 261 925 q 535 856 464 924 l 574 925 l 625 894 l 574 806 q 639 467 639 696 q 490 21 639 110 q 347 -14 432 -14 q 154 64 224 -14 l 113 -11 l 63 19 l 118 118 q 56 467 56 233 m 167 206 l 493 782 q 347 851 440 851 q 252 827 292 851 q 191 767 213 803 q 157 675 169 731 q 138 442 138 589 q 167 206 138 296 m 525 719 l 197 139 q 347 58 246 58 q 522 189 481 58 q 558 467 558 300 q 525 719 557 633 z "},"ǿ":{"ha":694,"x_min":82,"x_max":613,"o":"m 589 679 l 539 590 q 613 328 613 507 q 347 -12 613 -12 q 213 18 269 -12 l 168 -60 l 110 -24 l 158 61 q 82 328 82 146 q 347 668 82 668 q 483 636 428 668 l 529 715 l 589 679 m 161 328 q 200 136 161 200 l 446 569 q 347 596 404 596 q 161 328 161 596 m 533 328 q 496 517 533 451 l 250 85 q 347 60 288 60 q 533 328 533 60 m 206 857 l 457 996 l 489 928 l 235 803 l 206 857 z "},"Ș":{"ha":694,"x_min":75,"x_max":601,"o":"m 272 -287 q 307 -219 307 -253 l 307 -208 l 274 -208 l 274 -100 l 367 -100 l 367 -171 q 355 -256 367 -225 q 303 -318 343 -286 l 272 -287 m 315 437 q 252 452 315 437 q 133 524 190 467 q 75 692 75 582 q 151 863 75 801 q 346 924 226 924 q 589 881 465 924 l 569 810 q 358 851 454 851 q 210 810 261 851 q 158 692 158 769 q 200 574 158 614 q 366 501 242 533 q 546 415 490 468 q 601 242 601 361 q 522 55 601 124 q 315 -14 442 -14 q 76 26 221 -14 l 94 97 q 322 58 236 58 q 464 106 408 58 q 519 240 519 154 q 479 367 519 326 q 315 437 439 407 z "},"ș":{"ha":694,"x_min":108,"x_max":574,"o":"m 108 32 l 126 104 q 340 58 264 58 q 456 91 415 58 q 496 178 496 124 q 463 258 496 232 q 328 307 431 283 q 174 374 225 331 q 122 501 122 418 q 185 627 122 583 q 349 671 249 671 q 565 626 449 671 l 546 561 q 355 600 426 600 q 242 574 283 600 q 200 501 200 549 q 237 426 200 453 q 379 374 274 400 q 529 306 485 347 q 574 178 574 265 q 514 39 574 90 q 347 -12 454 -12 q 108 32 239 -12 m 272 -287 q 307 -219 307 -253 l 307 -208 l 274 -208 l 274 -100 l 367 -100 l 367 -171 q 355 -256 367 -225 q 303 -318 343 -286 l 272 -287 z "},"Δ":{"ha":694,"x_min":22,"x_max":668,"o":"m 668 0 l 22 0 l 286 908 l 419 908 l 668 0 m 122 69 l 568 69 l 361 844 l 343 844 l 122 69 z "},"∆":{"ha":694,"x_min":22,"x_max":668,"o":"m 668 0 l 22 0 l 286 908 l 419 908 l 668 0 m 122 69 l 568 69 l 361 844 l 343 844 l 122 69 z "},"Ω":{"ha":694,"x_min":56,"x_max":639,"o":"m 204 63 l 204 69 q 85 230 114 132 q 56 458 56 328 q 69 664 56 588 q 114 801 83 740 q 347 924 176 924 q 581 801 517 924 q 639 481 639 690 q 571 149 639 246 q 490 69 539 103 l 490 63 l 628 69 l 628 0 l 388 0 l 388 69 q 474 132 439 86 q 526 240 510 178 q 557 448 557 354 q 553 587 557 542 q 538 685 550 632 q 504 772 526 738 q 442 828 482 806 q 347 851 403 851 q 252 828 292 851 q 190 772 213 806 q 156 685 167 739 q 137 517 136 601 q 141 387 138 432 q 156 288 144 342 q 185 193 168 235 q 234 117 203 151 q 307 69 265 83 l 307 0 l 75 0 l 75 69 l 204 63 z "},"Ω":{"ha":694,"x_min":56,"x_max":639,"o":"m 204 63 l 204 69 q 85 230 114 132 q 56 458 56 328 q 69 664 56 588 q 114 801 83 740 q 347 924 176 924 q 581 801 517 924 q 639 481 639 690 q 571 149 639 246 q 490 69 539 103 l 490 63 l 628 69 l 628 0 l 388 0 l 388 69 q 474 132 439 86 q 526 240 510 178 q 557 448 557 354 q 553 587 557 542 q 538 685 550 632 q 504 772 526 738 q 442 828 482 806 q 347 851 403 851 q 252 828 292 851 q 190 772 213 806 q 156 685 167 739 q 137 517 136 601 q 141 387 138 432 q 156 288 144 342 q 185 193 168 235 q 234 117 203 151 q 307 69 265 83 l 307 0 l 75 0 l 75 69 l 204 63 z "},"π":{"ha":694,"x_min":29,"x_max":679,"o":"m 29 660 l 679 660 l 679 590 l 549 590 l 549 0 l 475 0 l 475 590 l 233 590 l 233 0 l 160 0 l 160 590 l 29 590 l 29 660 z "},"Ẁ":{"ha":694,"x_min":3,"x_max":692,"o":"m 222 1226 l 506 1104 l 482 1046 l 196 1163 l 222 1226 m 104 0 l 3 910 l 82 910 l 175 69 l 190 69 l 313 508 l 386 508 l 503 69 l 519 69 l 613 910 l 692 910 l 590 0 l 450 0 l 350 392 l 346 392 l 242 0 l 104 0 z "},"ẁ":{"ha":694,"x_min":49,"x_max":646,"o":"m 574 660 l 646 660 l 567 0 l 419 0 l 349 288 l 343 288 l 271 0 l 125 0 l 49 660 l 121 660 l 193 67 l 218 67 l 311 401 l 383 401 l 476 67 l 501 67 l 574 660 m 238 996 l 489 857 l 460 803 l 206 928 l 238 996 z "},"Ẃ":{"ha":694,"x_min":3,"x_max":692,"o":"m 215 1103 l 499 1225 l 525 1161 l 239 1044 l 215 1103 m 104 0 l 3 910 l 82 910 l 175 69 l 190 69 l 313 508 l 386 508 l 503 69 l 519 69 l 613 910 l 692 910 l 590 0 l 450 0 l 350 392 l 346 392 l 242 0 l 104 0 z "},"ẃ":{"ha":694,"x_min":49,"x_max":646,"o":"m 574 660 l 646 660 l 567 0 l 419 0 l 349 288 l 343 288 l 271 0 l 125 0 l 49 660 l 121 660 l 193 67 l 218 67 l 311 401 l 383 401 l 476 67 l 501 67 l 574 660 m 206 857 l 457 996 l 489 928 l 235 803 l 206 857 z "},"Ẅ":{"ha":694,"x_min":3,"x_max":692,"o":"m 176 1092 q 169 1099 176 1092 q 163 1128 163 1107 q 176 1164 163 1149 q 213 1179 190 1179 q 249 1164 235 1179 q 263 1128 263 1149 q 249 1092 263 1107 q 213 1076 235 1076 q 176 1092 190 1076 m 444 1092 q 438 1099 444 1092 q 431 1128 431 1107 q 444 1164 431 1149 q 481 1179 458 1179 q 517 1164 503 1179 q 532 1128 532 1149 q 517 1092 532 1107 q 481 1076 503 1076 q 444 1092 458 1076 m 104 0 l 3 910 l 82 910 l 175 69 l 190 69 l 313 508 l 386 508 l 503 69 l 519 69 l 613 910 l 692 910 l 590 0 l 450 0 l 350 392 l 346 392 l 242 0 l 104 0 z "},"ẅ":{"ha":694,"x_min":49,"x_max":646,"o":"m 574 660 l 646 660 l 567 0 l 419 0 l 349 288 l 343 288 l 271 0 l 125 0 l 49 660 l 121 660 l 193 67 l 218 67 l 311 401 l 383 401 l 476 67 l 501 67 l 574 660 m 176 863 q 169 870 176 863 q 163 899 163 878 q 176 935 163 919 q 213 950 190 950 q 249 935 235 950 q 263 899 263 919 q 249 863 263 878 q 213 847 235 847 q 176 863 190 847 m 444 863 q 438 870 444 863 q 431 899 431 878 q 444 935 431 919 q 481 950 458 950 q 517 935 503 950 q 532 899 532 919 q 517 863 532 878 q 481 847 503 847 q 444 863 458 847 z "},"Ỳ":{"ha":694,"x_min":40,"x_max":651,"o":"m 222 1226 l 506 1104 l 482 1046 l 196 1163 l 222 1226 m 383 393 l 383 0 l 308 0 l 308 393 l 40 910 l 132 910 l 344 472 l 347 472 l 560 910 l 651 910 l 383 393 z "},"ỳ":{"ha":694,"x_min":74,"x_max":622,"o":"m 74 660 l 157 660 l 353 99 l 364 99 l 539 660 l 622 660 l 367 -112 q 291 -253 331 -222 q 131 -286 251 -283 l 131 -215 q 235 -193 208 -214 q 283 -106 261 -172 l 315 -10 l 74 660 m 238 996 l 489 857 l 460 803 l 206 928 l 238 996 z "},"–":{"ha":694,"x_min":97,"x_max":596,"o":"m 97 363 l 97 424 l 596 424 l 596 363 l 97 363 z "},"—":{"ha":694,"x_min":0,"x_max":694,"o":"m 0 363 l 0 424 l 694 424 l 694 363 l 0 363 z "},"‘":{"ha":694,"x_min":261,"x_max":431,"o":"m 431 918 l 350 631 l 261 654 l 372 933 l 431 918 z "},"’":{"ha":694,"x_min":263,"x_max":432,"o":"m 263 656 l 343 943 l 432 919 l 321 640 l 263 656 z "},"“":{"ha":694,"x_min":144,"x_max":513,"o":"m 513 911 l 432 624 l 343 647 l 454 926 l 513 911 m 314 936 l 233 649 l 144 672 l 256 951 l 314 936 z "},"”":{"ha":694,"x_min":163,"x_max":531,"o":"m 163 660 l 243 947 l 332 924 l 221 644 l 163 660 m 361 635 l 442 922 l 531 899 l 419 619 l 361 635 z "},"†":{"ha":694,"x_min":64,"x_max":632,"o":"m 64 694 l 64 761 l 313 760 l 311 1053 l 385 1053 l 383 760 l 632 761 l 632 694 l 383 696 l 385 -162 l 311 -162 l 313 696 l 64 694 z "},"‡":{"ha":694,"x_min":64,"x_max":632,"o":"m 64 157 l 64 224 l 311 224 l 311 694 l 64 694 l 64 761 l 311 761 l 311 1053 l 385 1053 l 385 761 l 632 761 l 632 694 l 385 694 l 385 224 l 632 224 l 632 157 l 385 157 l 385 -162 l 311 -162 l 311 157 l 64 157 z "},"•":{"ha":694,"x_min":306,"x_max":386,"o":"m 386 460 l 386 371 l 306 371 l 306 460 l 386 460 z "},"…":{"ha":694,"x_min":72,"x_max":594,"o":"m 72 0 l 72 113 l 168 113 l 168 0 l 72 0 m 285 0 l 285 113 l 381 113 l 381 0 l 285 0 m 499 0 l 499 113 l 594 113 l 594 0 l 499 0 z "},"‰":{"ha":694,"x_min":0,"x_max":694,"o":"m 694 543 l 0 372 l 0 443 l 694 613 l 694 543 m 49 597 q 24 622 49 597 q 0 729 0 646 q 49 861 0 813 q 171 910 97 910 q 293 861 244 910 q 342 729 342 813 q 293 597 342 646 q 171 549 244 549 q 49 597 97 549 m 97 815 q 82 800 97 815 q 67 729 67 785 q 97 643 67 674 q 171 613 126 613 q 245 643 215 613 q 275 729 275 674 q 245 815 275 785 q 171 846 215 846 q 97 815 126 846 m 408 49 q 385 73 408 49 q 361 181 361 97 q 408 313 361 264 q 528 361 456 361 q 647 313 600 361 q 694 181 694 264 q 647 49 694 97 q 528 0 600 0 q 408 49 456 0 m 455 267 q 441 251 455 267 q 428 181 428 236 q 455 94 428 125 q 526 64 482 64 q 599 94 571 64 q 628 181 628 125 q 599 267 628 236 q 526 297 571 297 q 455 267 482 297 m 286 313 q 310 288 286 313 q 333 181 333 264 q 286 49 333 97 q 167 0 239 0 q 47 49 94 0 q 0 181 0 97 q 47 313 0 264 q 167 361 94 361 q 286 313 239 361 m 240 94 q 253 110 240 94 q 267 181 267 125 q 240 267 267 236 q 168 297 213 297 q 95 267 124 297 q 67 181 67 236 q 95 94 67 125 q 168 64 124 64 q 240 94 213 64 z "},"‹":{"ha":694,"x_min":197,"x_max":471,"o":"m 197 344 l 471 579 l 471 489 l 269 314 l 471 143 l 471 54 l 197 289 l 197 344 z "},"›":{"ha":694,"x_min":197,"x_max":471,"o":"m 197 579 l 471 344 l 471 289 l 197 54 l 197 143 l 399 314 l 197 489 l 197 579 z "},"⁄":{"ha":694,"x_min":114,"x_max":576,"o":"m 499 924 l 576 924 l 192 0 l 114 0 l 499 924 z "},"€":{"ha":694,"x_min":21,"x_max":624,"o":"m 21 561 l 88 561 q 179 813 104 732 q 383 893 253 893 q 615 858 514 893 l 594 788 q 389 821 486 821 q 238 758 292 821 q 169 561 183 696 l 506 561 l 506 500 l 165 500 q 164 442 164 481 l 164 396 l 506 396 l 506 335 l 168 335 q 241 124 183 189 q 392 60 299 60 q 606 97 485 60 l 624 26 q 383 -12 508 -12 q 181 68 258 -12 q 86 335 103 149 l 21 335 l 21 396 l 82 396 l 82 442 q 83 500 82 481 l 21 500 l 21 561 z "},"™":{"ha":694,"x_min":19,"x_max":649,"o":"m 19 765 l 19 819 l 269 819 l 269 765 l 176 765 l 176 407 l 117 407 l 117 765 l 19 765 m 376 679 l 378 407 l 325 407 l 325 819 l 374 819 l 482 560 l 485 560 l 600 819 l 649 819 l 649 407 l 596 407 l 597 679 l 592 679 l 500 485 l 467 485 l 382 679 l 376 679 z "},"∂":{"ha":694,"x_min":89,"x_max":578,"o":"m 89 275 q 331 551 89 551 q 497 463 438 551 q 435 628 464 579 q 375 703 406 678 q 201 807 313 757 l 232 872 q 499 666 421 800 q 578 279 578 532 q 332 -10 578 -10 q 150 67 211 -10 q 89 275 89 144 m 169 275 q 332 58 169 58 q 460 113 422 58 q 497 269 497 168 q 453 426 497 369 q 327 483 410 483 q 207 432 244 483 q 169 275 169 381 z "},"∏":{"ha":694,"x_min":22,"x_max":672,"o":"m 22 840 l 22 910 l 672 910 l 672 840 l 564 840 l 564 -96 l 488 -96 l 488 840 l 201 840 l 201 -96 l 125 -96 l 125 840 l 22 840 z "},"∑":{"ha":694,"x_min":65,"x_max":624,"o":"m 624 910 l 624 842 l 151 842 l 438 381 l 151 -99 l 622 -99 l 622 -167 l 65 -167 l 65 -89 l 344 381 l 65 833 l 65 910 l 624 910 z "},"−":{"ha":694,"x_min":49,"x_max":646,"o":"m 49 363 l 49 424 l 646 424 l 646 363 l 49 363 z "},"√":{"ha":694,"x_min":29,"x_max":638,"o":"m 29 492 l 29 553 l 219 553 l 335 61 l 365 61 l 564 910 l 638 910 l 418 0 l 279 0 l 160 492 l 29 492 z "},"∞":{"ha":694,"x_min":7,"x_max":688,"o":"m 165 168 q 7 404 7 168 q 172 640 7 640 q 286 610 250 640 q 360 483 322 579 q 424 601 386 563 q 541 639 461 639 q 654 578 621 639 q 688 400 688 517 q 535 168 688 168 q 420 205 457 168 q 350 324 383 242 q 277 206 317 243 q 165 168 238 168 m 79 403 q 175 236 79 236 q 253 270 226 236 q 319 403 279 304 q 251 542 276 513 q 176 572 225 572 q 103 526 126 572 q 79 403 79 479 m 615 400 q 594 531 615 490 q 525 572 572 572 q 453 540 478 572 q 390 413 429 508 q 447 273 419 310 q 525 236 475 236 q 615 400 615 236 z "},"∫":{"ha":694,"x_min":68,"x_max":589,"o":"m 292 808 q 496 1083 292 1083 q 589 1074 546 1083 l 571 1003 q 499 1011 533 1011 q 396 963 426 1011 q 365 808 365 914 l 365 -3 q 161 -278 365 -278 q 68 -268 111 -278 l 86 -197 q 158 -206 124 -206 q 261 -157 231 -206 q 292 -3 292 -108 l 292 808 z "},"≈":{"ha":694,"x_min":36,"x_max":658,"o":"m 610 547 l 658 506 q 569 424 607 450 q 486 397 531 397 q 389 424 442 397 q 290 478 336 451 q 211 506 244 506 q 86 419 167 507 l 36 463 q 211 571 138 571 q 358 517 267 571 q 489 463 450 463 q 610 547 528 463 m 610 278 l 658 236 q 569 154 607 181 q 486 128 531 128 q 389 155 442 128 q 290 209 336 182 q 211 236 244 236 q 86 150 167 238 l 36 193 q 211 301 138 301 q 358 247 267 301 q 489 193 450 193 q 610 278 528 193 z "},"≠":{"ha":694,"x_min":35,"x_max":658,"o":"m 35 521 l 425 521 l 579 707 l 631 665 l 510 521 l 658 521 l 658 460 l 458 460 l 313 288 l 658 288 l 658 226 l 260 226 l 107 40 l 56 83 l 181 226 l 35 226 l 35 288 l 231 288 l 371 460 l 35 460 l 35 521 z "},"≤":{"ha":694,"x_min":47,"x_max":643,"o":"m 643 672 l 138 479 l 643 272 l 618 215 l 47 451 l 47 506 l 618 729 l 643 672 m 525 47 l 106 47 l 96 94 l 167 101 l 586 101 l 596 53 l 525 47 z "},"≥":{"ha":694,"x_min":47,"x_max":643,"o":"m 553 479 l 47 672 l 72 729 l 643 506 l 643 451 l 72 215 l 47 272 l 553 479 m 586 47 l 167 47 l 96 53 l 106 101 l 525 101 l 596 94 l 586 47 z "},"⏻":{"ha":694,"x_min":-1,"x_max":1167,"o":"m 582 1014 q 513 985 542 1014 q 483 914 483 956 l 483 914 l 483 261 q 513 190 483 219 q 583 161 542 161 q 654 190 625 161 q 683 261 683 219 l 683 914 l 683 914 q 654 985 683 956 q 583 1014 625 1014 l 582 1014 m 226 686 l 225 686 q 150 653 179 686 q 0 261 0 486 q 171 -149 -1 22 q 583 -319 343 -319 q 994 -149 824 -319 q 1165 261 1165 22 q 1015 653 1165 486 q 940 686 986 686 q 871 657 899 686 q 842 586 843 628 q 868 519 842 544 q 967 261 967 408 q 854 -8 965 103 q 583 -122 743 -119 q 313 -8 424 -119 q 200 261 201 103 q 299 519 200 408 q 325 586 325 544 q 296 657 325 628 q 226 686 267 686 z "},"⏼":{"ha":694,"x_min":-1,"x_max":1289,"o":"m 533 144 l 533 547 q 565 625 533 593 q 643 657 597 657 q 721 625 689 657 q 753 547 753 593 l 753 144 q 721 67 753 99 q 643 35 689 35 q 565 68 597 35 q 533 144 533 101 m 0 347 q 188 801 -1 613 q 643 990 376 990 l 643 881 l 643 769 q 344 646 468 769 q 221 347 221 522 q 344 49 221 172 q 643 -76 469 -76 q 943 49 818 -76 q 1067 347 1067 172 q 943 646 1067 522 q 643 769 819 769 l 643 881 l 643 990 q 1097 801 908 990 q 1286 347 1286 613 q 1099 -107 1288 82 q 643 -296 910 -296 q 188 -107 376 -296 q 0 347 -1 82 z "},"⏽":{"ha":694,"x_min":236,"x_max":458,"o":"m 344 996 q 268 963 300 996 q 236 885 236 929 l 236 883 l 236 -187 l 236 -189 q 268 -268 236 -235 q 347 -300 300 -301 q 425 -268 392 -301 q 458 -189 458 -235 l 458 -187 l 458 883 l 458 885 q 425 963 458 929 q 347 996 392 996 l 344 996 z "},"⏾":{"ha":694,"x_min":0,"x_max":911,"o":"m 392 972 q 179 825 269 919 q 44 614 89 731 q 0 367 0 497 q 53 114 0 236 q 200 -99 106 -8 q 411 -233 294 -189 q 658 -278 528 -278 q 911 -225 789 -278 q 578 -58 726 -181 q 351 243 429 64 q 286 618 274 429 q 392 972 299 807 z "},"─":{"ha":694,"x_min":-7,"x_max":701,"o":"m -6 394 l 700 394 l 700 297 l -6 297 l -6 394 z "},"━":{"ha":694,"x_min":-7,"x_max":701,"o":"m -6 442 l 700 442 l 700 247 l -6 247 l -6 442 z "},"│":{"ha":694,"x_min":301,"x_max":393,"o":"m 303 1050 l 392 1050 l 392 -353 l 303 -353 l 303 1050 z "},"┃":{"ha":694,"x_min":257,"x_max":438,"o":"m 258 1050 l 436 1050 l 436 -353 l 258 -353 l 258 1050 z "},"┄":{"ha":694,"x_min":38,"x_max":658,"o":"m 39 394 l 200 394 l 200 297 l 39 297 l 39 394 m 267 394 l 428 394 l 428 297 l 267 297 l 267 394 m 494 394 l 658 394 l 658 297 l 494 297 l 494 394 z "},"┅":{"ha":694,"x_min":38,"x_max":658,"o":"m 39 442 l 200 442 l 200 247 l 39 247 l 39 442 m 267 442 l 428 442 l 428 247 l 267 247 l 267 442 m 494 442 l 658 442 l 658 247 l 494 247 l 494 442 z "},"┆":{"ha":694,"x_min":301,"x_max":393,"o":"m 303 969 l 392 969 l 392 622 l 303 622 l 303 969 m 303 519 l 392 519 l 392 169 l 303 169 l 303 519 m 303 69 l 392 69 l 392 -281 l 303 -281 l 303 69 z "},"┇":{"ha":694,"x_min":257,"x_max":438,"o":"m 258 969 l 436 969 l 436 622 l 258 622 l 258 969 m 258 519 l 436 519 l 436 169 l 258 169 l 258 519 m 258 69 l 436 69 l 436 -281 l 258 -281 l 258 69 z "},"┈":{"ha":694,"x_min":38,"x_max":658,"o":"m 39 394 l 142 394 l 142 297 l 39 297 l 39 394 m 208 394 l 314 394 l 314 297 l 208 297 l 208 394 m 381 394 l 486 394 l 486 297 l 381 297 l 381 394 m 550 394 l 658 394 l 658 297 l 550 297 l 550 394 z "},"┉":{"ha":694,"x_min":38,"x_max":658,"o":"m 39 442 l 142 442 l 142 247 l 39 247 l 39 442 m 208 442 l 314 442 l 314 247 l 208 247 l 208 442 m 381 442 l 486 442 l 486 247 l 381 247 l 381 442 m 550 442 l 658 442 l 658 247 l 550 247 l 550 442 z "},"┊":{"ha":694,"x_min":301,"x_max":393,"o":"m 303 969 l 392 969 l 392 733 l 303 733 l 303 969 m 303 633 l 392 633 l 392 397 l 303 397 l 303 633 m 303 294 l 392 294 l 392 58 l 303 58 l 303 294 m 303 -44 l 392 -44 l 392 -281 l 303 -281 l 303 -44 z "},"┋":{"ha":694,"x_min":257,"x_max":438,"o":"m 258 969 l 436 969 l 436 733 l 258 733 l 258 969 m 258 633 l 436 633 l 436 397 l 258 397 l 258 633 m 258 294 l 436 294 l 436 58 l 258 58 l 258 294 m 258 -44 l 436 -44 l 436 -281 l 258 -281 l 258 -44 z "},"┌":{"ha":694,"x_min":301,"x_max":701,"o":"m 303 394 l 700 394 l 700 297 l 392 297 l 392 -353 l 303 -353 l 303 394 z "},"┍":{"ha":694,"x_min":301,"x_max":701,"o":"m 303 442 l 700 442 l 700 247 l 392 247 l 392 -353 l 303 -353 l 303 442 z "},"┎":{"ha":694,"x_min":257,"x_max":701,"o":"m 258 394 l 700 394 l 700 297 l 436 297 l 436 -353 l 258 -353 l 258 394 z "},"┏":{"ha":694,"x_min":257,"x_max":701,"o":"m 258 442 l 700 442 l 700 247 l 436 247 l 436 -353 l 258 -353 l 258 442 z "},"┐":{"ha":694,"x_min":-7,"x_max":393,"o":"m 303 297 l -6 297 l -6 394 l 392 394 l 392 -353 l 303 -353 l 303 297 z "},"┑":{"ha":694,"x_min":-7,"x_max":393,"o":"m 303 247 l -6 247 l -6 442 l 392 442 l 392 -353 l 303 -353 l 303 247 z "},"┒":{"ha":694,"x_min":-7,"x_max":438,"o":"m 258 297 l -6 297 l -6 394 l 436 394 l 436 -353 l 258 -353 l 258 297 z "},"┓":{"ha":694,"x_min":-7,"x_max":438,"o":"m 258 247 l -6 247 l -6 442 l 436 442 l 436 -353 l 258 -353 l 258 247 z "},"└":{"ha":694,"x_min":301,"x_max":701,"o":"m 303 1050 l 392 1050 l 392 394 l 700 394 l 700 297 l 303 297 l 303 1050 z "},"┕":{"ha":694,"x_min":301,"x_max":701,"o":"m 303 1050 l 392 1050 l 392 442 l 700 442 l 700 247 l 303 247 l 303 1050 z "},"┖":{"ha":694,"x_min":257,"x_max":701,"o":"m 258 1050 l 436 1050 l 436 394 l 700 394 l 700 297 l 258 297 l 258 1050 z "},"┗":{"ha":694,"x_min":257,"x_max":701,"o":"m 258 1050 l 436 1050 l 436 442 l 700 442 l 700 247 l 258 247 l 258 1050 z "},"┘":{"ha":694,"x_min":-7,"x_max":393,"o":"m -6 394 l 303 394 l 303 1050 l 392 1050 l 392 297 l -6 297 l -6 394 z "},"┙":{"ha":694,"x_min":-7,"x_max":393,"o":"m -6 442 l 303 442 l 303 1050 l 392 1050 l 392 247 l -6 247 l -6 442 z "},"┚":{"ha":694,"x_min":-7,"x_max":438,"o":"m -6 394 l 258 394 l 258 1050 l 436 1050 l 436 297 l -6 297 l -6 394 z "},"┛":{"ha":694,"x_min":-7,"x_max":438,"o":"m -6 442 l 258 442 l 258 1050 l 436 1050 l 436 247 l -6 247 l -6 442 z "},"├":{"ha":694,"x_min":301,"x_max":701,"o":"m 303 1050 l 392 1050 l 392 394 l 700 394 l 700 297 l 392 297 l 392 -353 l 303 -353 l 303 1050 z "},"┝":{"ha":694,"x_min":301,"x_max":701,"o":"m 303 1050 l 392 1050 l 392 442 l 700 442 l 700 247 l 392 247 l 392 -353 l 303 -353 l 303 1050 z "},"┞":{"ha":694,"x_min":257,"x_max":701,"o":"m 303 297 l 258 297 l 258 1050 l 436 1050 l 436 394 l 700 394 l 700 297 l 392 297 l 392 -353 l 303 -353 l 303 297 z "},"┟":{"ha":694,"x_min":257,"x_max":701,"o":"m 258 394 l 303 394 l 303 1050 l 392 1050 l 392 394 l 700 394 l 700 297 l 436 297 l 436 -353 l 258 -353 l 258 394 z "},"┠":{"ha":694,"x_min":257,"x_max":701,"o":"m 258 1050 l 436 1050 l 436 394 l 700 394 l 700 297 l 436 297 l 436 -353 l 258 -353 l 258 1050 z "},"┡":{"ha":694,"x_min":257,"x_max":701,"o":"m 303 247 l 258 247 l 258 1050 l 436 1050 l 436 442 l 700 442 l 700 247 l 392 247 l 392 -353 l 303 -353 l 303 247 z "},"┢":{"ha":694,"x_min":257,"x_max":701,"o":"m 258 442 l 303 442 l 303 1050 l 392 1050 l 392 442 l 700 442 l 700 247 l 436 247 l 436 -353 l 258 -353 l 258 442 z "},"┣":{"ha":694,"x_min":257,"x_max":701,"o":"m 258 1050 l 436 1050 l 436 442 l 700 442 l 700 247 l 436 247 l 436 -353 l 258 -353 l 258 1050 z "},"┤":{"ha":694,"x_min":-7,"x_max":393,"o":"m 303 297 l -6 297 l -6 394 l 303 394 l 303 1050 l 392 1050 l 392 -353 l 303 -353 l 303 297 z "},"┥":{"ha":694,"x_min":-7,"x_max":393,"o":"m 303 247 l -6 247 l -6 442 l 303 442 l 303 1050 l 392 1050 l 392 -353 l 303 -353 l 303 247 z "},"┦":{"ha":694,"x_min":-7,"x_max":438,"o":"m 303 297 l -6 297 l -6 394 l 258 394 l 258 1050 l 436 1050 l 436 297 l 392 297 l 392 -353 l 303 -353 l 303 297 z "},"┧":{"ha":694,"x_min":-7,"x_max":438,"o":"m 258 297 l -6 297 l -6 394 l 303 394 l 303 1050 l 392 1050 l 392 394 l 436 394 l 436 -353 l 258 -353 l 258 297 z "},"┨":{"ha":694,"x_min":-7,"x_max":438,"o":"m 258 297 l -6 297 l -6 394 l 258 394 l 258 1050 l 436 1050 l 436 -353 l 258 -353 l 258 297 z "},"┩":{"ha":694,"x_min":-7,"x_max":438,"o":"m 303 247 l -6 247 l -6 442 l 258 442 l 258 1050 l 436 1050 l 436 247 l 392 247 l 392 -353 l 303 -353 l 303 247 z "},"┪":{"ha":694,"x_min":-7,"x_max":438,"o":"m 258 247 l -6 247 l -6 442 l 303 442 l 303 1050 l 392 1050 l 392 442 l 436 442 l 436 -353 l 258 -353 l 258 247 z "},"┫":{"ha":694,"x_min":-7,"x_max":438,"o":"m 258 247 l -6 247 l -6 442 l 258 442 l 258 1050 l 436 1050 l 436 -353 l 258 -353 l 258 247 z "},"┬":{"ha":694,"x_min":-7,"x_max":701,"o":"m 303 297 l -6 297 l -6 394 l 700 394 l 700 297 l 392 297 l 392 -353 l 303 -353 l 303 297 z "},"┭":{"ha":694,"x_min":-7,"x_max":701,"o":"m 303 247 l -6 247 l -6 442 l 392 442 l 392 394 l 700 394 l 700 297 l 392 297 l 392 -353 l 303 -353 l 303 247 z "},"┮":{"ha":694,"x_min":-7,"x_max":701,"o":"m 303 297 l -6 297 l -6 394 l 303 394 l 303 442 l 700 442 l 700 247 l 392 247 l 392 -353 l 303 -353 l 303 297 z "},"┯":{"ha":694,"x_min":-7,"x_max":701,"o":"m 303 247 l -6 247 l -6 442 l 700 442 l 700 247 l 392 247 l 392 -353 l 303 -353 l 303 247 z "},"┰":{"ha":694,"x_min":-7,"x_max":701,"o":"m 258 297 l -6 297 l -6 394 l 700 394 l 700 297 l 436 297 l 436 -353 l 258 -353 l 258 297 z "},"┱":{"ha":694,"x_min":-7,"x_max":701,"o":"m 258 247 l -6 247 l -6 442 l 436 442 l 436 394 l 700 394 l 700 297 l 436 297 l 436 -353 l 258 -353 l 258 247 z "},"┲":{"ha":694,"x_min":-7,"x_max":701,"o":"m 258 297 l -6 297 l -6 394 l 258 394 l 258 442 l 700 442 l 700 247 l 436 247 l 436 -353 l 258 -353 l 258 297 z "},"┳":{"ha":694,"x_min":-7,"x_max":701,"o":"m 258 247 l -6 247 l -6 442 l 700 442 l 700 247 l 436 247 l 436 -353 l 258 -353 l 258 247 z "},"┴":{"ha":694,"x_min":-7,"x_max":701,"o":"m -6 394 l 303 394 l 303 1050 l 392 1050 l 392 394 l 700 394 l 700 297 l -6 297 l -6 394 z "},"┵":{"ha":694,"x_min":-7,"x_max":701,"o":"m -6 442 l 303 442 l 303 1050 l 392 1050 l 392 394 l 700 394 l 700 297 l 392 297 l 392 247 l -6 247 l -6 442 z "},"┶":{"ha":694,"x_min":-7,"x_max":701,"o":"m 303 297 l -6 297 l -6 394 l 303 394 l 303 1050 l 392 1050 l 392 442 l 700 442 l 700 247 l 303 247 l 303 297 z "},"┷":{"ha":694,"x_min":-7,"x_max":701,"o":"m -6 442 l 303 442 l 303 1050 l 392 1050 l 392 442 l 700 442 l 700 247 l -6 247 l -6 442 z "},"┸":{"ha":694,"x_min":-7,"x_max":701,"o":"m -6 394 l 258 394 l 258 1050 l 436 1050 l 436 394 l 700 394 l 700 297 l -6 297 l -6 394 z "},"┹":{"ha":694,"x_min":-7,"x_max":701,"o":"m -6 442 l 258 442 l 258 1050 l 436 1050 l 436 394 l 700 394 l 700 297 l 436 297 l 436 247 l -6 247 l -6 442 z "},"┺":{"ha":694,"x_min":-7,"x_max":701,"o":"m 258 297 l -6 297 l -6 394 l 258 394 l 258 1050 l 436 1050 l 436 442 l 700 442 l 700 247 l 258 247 l 258 297 z "},"┻":{"ha":694,"x_min":-7,"x_max":701,"o":"m -6 442 l 258 442 l 258 1050 l 436 1050 l 436 442 l 700 442 l 700 247 l -6 247 l -6 442 z "},"┼":{"ha":694,"x_min":-7,"x_max":701,"o":"m 303 297 l -6 297 l -6 394 l 303 394 l 303 1050 l 392 1050 l 392 394 l 700 394 l 700 297 l 392 297 l 392 -353 l 303 -353 l 303 297 z "},"┽":{"ha":694,"x_min":-7,"x_max":701,"o":"m 303 247 l -6 247 l -6 442 l 303 442 l 303 1050 l 392 1050 l 392 394 l 700 394 l 700 297 l 392 297 l 392 -353 l 303 -353 l 303 247 z "},"┾":{"ha":694,"x_min":-7,"x_max":701,"o":"m 303 297 l -6 297 l -6 394 l 303 394 l 303 1050 l 392 1050 l 392 442 l 700 442 l 700 247 l 392 247 l 392 -353 l 303 -353 l 303 297 z "},"┿":{"ha":694,"x_min":-7,"x_max":701,"o":"m 303 247 l -6 247 l -6 442 l 303 442 l 303 1050 l 392 1050 l 392 442 l 700 442 l 700 247 l 392 247 l 392 -353 l 303 -353 l 303 247 z "},"╀":{"ha":694,"x_min":-7,"x_max":701,"o":"m 303 297 l -6 297 l -6 394 l 258 394 l 258 1050 l 436 1050 l 436 394 l 700 394 l 700 297 l 392 297 l 392 -353 l 303 -353 l 303 297 z "},"╁":{"ha":694,"x_min":-7,"x_max":701,"o":"m 258 297 l -6 297 l -6 394 l 303 394 l 303 1050 l 392 1050 l 392 394 l 700 394 l 700 297 l 436 297 l 436 -353 l 258 -353 l 258 297 z "},"╂":{"ha":694,"x_min":-7,"x_max":701,"o":"m 258 297 l -6 297 l -6 394 l 258 394 l 258 1050 l 436 1050 l 436 394 l 700 394 l 700 297 l 436 297 l 436 -353 l 258 -353 l 258 297 z "},"╃":{"ha":694,"x_min":-7,"x_max":701,"o":"m 303 247 l -6 247 l -6 442 l 258 442 l 258 1050 l 436 1050 l 436 394 l 700 394 l 700 297 l 436 297 l 436 247 l 392 247 l 392 -353 l 303 -353 l 303 247 z "},"╄":{"ha":694,"x_min":-7,"x_max":701,"o":"m 303 247 l 258 247 l 258 297 l -6 297 l -6 394 l 258 394 l 258 1050 l 436 1050 l 436 442 l 700 442 l 700 247 l 392 247 l 392 -353 l 303 -353 l 303 247 z "},"╅":{"ha":694,"x_min":-7,"x_max":701,"o":"m 258 247 l -6 247 l -6 442 l 303 442 l 303 1050 l 392 1050 l 392 442 l 436 442 l 436 394 l 700 394 l 700 297 l 436 297 l 436 -353 l 258 -353 l 258 247 z "},"╆":{"ha":694,"x_min":-7,"x_max":701,"o":"m 258 297 l -6 297 l -6 394 l 258 394 l 258 442 l 303 442 l 303 1050 l 392 1050 l 392 442 l 700 442 l 700 247 l 436 247 l 436 -353 l 258 -353 l 258 297 z "},"╇":{"ha":694,"x_min":-7,"x_max":701,"o":"m 303 247 l -6 247 l -6 442 l 258 442 l 258 1050 l 436 1050 l 436 442 l 700 442 l 700 247 l 392 247 l 392 -353 l 303 -353 l 303 247 z "},"╈":{"ha":694,"x_min":-7,"x_max":701,"o":"m 258 247 l -6 247 l -6 442 l 303 442 l 303 1050 l 392 1050 l 392 442 l 700 442 l 700 247 l 436 247 l 436 -353 l 258 -353 l 258 247 z "},"╉":{"ha":694,"x_min":-7,"x_max":701,"o":"m 258 247 l -6 247 l -6 442 l 258 442 l 258 1050 l 436 1050 l 436 394 l 700 394 l 700 297 l 436 297 l 436 -353 l 258 -353 l 258 247 z "},"╊":{"ha":694,"x_min":-7,"x_max":701,"o":"m 258 297 l -6 297 l -6 394 l 258 394 l 258 1050 l 436 1050 l 436 442 l 700 442 l 700 247 l 436 247 l 436 -353 l 258 -353 l 258 297 z "},"╋":{"ha":694,"x_min":-7,"x_max":701,"o":"m 258 247 l -6 247 l -6 442 l 258 442 l 258 1050 l 436 1050 l 436 442 l 700 442 l 700 247 l 436 247 l 436 -353 l 258 -353 l 258 247 z "},"╌":{"ha":694,"x_min":38,"x_max":658,"o":"m 39 394 l 314 394 l 314 297 l 39 297 l 39 394 m 381 394 l 658 394 l 658 297 l 381 297 l 381 394 z "},"╍":{"ha":694,"x_min":38,"x_max":658,"o":"m 39 442 l 314 442 l 314 247 l 39 247 l 39 442 m 381 442 l 658 442 l 658 247 l 381 247 l 381 442 z "},"╎":{"ha":694,"x_min":301,"x_max":393,"o":"m 303 925 l 392 925 l 392 442 l 303 442 l 303 925 m 303 247 l 392 247 l 392 -233 l 303 -233 l 303 247 z "},"╏":{"ha":694,"x_min":257,"x_max":438,"o":"m 258 925 l 436 925 l 436 442 l 258 442 l 258 925 m 258 247 l 436 247 l 436 -233 l 258 -233 l 258 247 z "},"═":{"ha":694,"x_min":-7,"x_max":701,"o":"m -6 492 l 700 492 l 700 394 l -6 394 l -6 492 m -6 297 l 700 297 l 700 200 l -6 200 l -6 297 z "},"║":{"ha":694,"x_min":213,"x_max":482,"o":"m 214 1050 l 303 1050 l 303 -353 l 214 -353 l 214 1050 m 392 1050 l 481 1050 l 481 -353 l 392 -353 l 392 1050 z "},"╒":{"ha":694,"x_min":301,"x_max":701,"o":"m 303 492 l 700 492 l 700 394 l 392 394 l 392 297 l 700 297 l 700 200 l 392 200 l 392 -353 l 303 -353 l 303 492 z "},"╓":{"ha":694,"x_min":213,"x_max":701,"o":"m 214 394 l 700 394 l 700 297 l 481 297 l 481 -353 l 392 -353 l 392 297 l 303 297 l 303 -353 l 214 -353 l 214 394 z "},"╔":{"ha":694,"x_min":213,"x_max":701,"o":"m 214 492 l 700 492 l 700 394 l 303 394 l 303 -353 l 214 -353 l 214 492 m 392 297 l 700 297 l 700 200 l 481 200 l 481 -353 l 392 -353 l 392 297 z "},"╕":{"ha":694,"x_min":-7,"x_max":393,"o":"m 303 200 l -6 200 l -6 297 l 303 297 l 303 394 l -6 394 l -6 492 l 392 492 l 392 -353 l 303 -353 l 303 200 z "},"╖":{"ha":694,"x_min":-7,"x_max":482,"o":"m 214 297 l -6 297 l -6 394 l 481 394 l 481 -353 l 392 -353 l 392 297 l 303 297 l 303 -353 l 214 -353 l 214 297 z "},"╗":{"ha":694,"x_min":-7,"x_max":482,"o":"m 392 394 l -6 394 l -6 492 l 481 492 l 481 -353 l 392 -353 l 392 394 m 214 200 l -6 200 l -6 297 l 303 297 l 303 -353 l 214 -353 l 214 200 z "},"╘":{"ha":694,"x_min":301,"x_max":701,"o":"m 303 1050 l 392 1050 l 392 492 l 700 492 l 700 394 l 392 394 l 392 297 l 700 297 l 700 200 l 303 200 l 303 1050 z "},"╙":{"ha":694,"x_min":213,"x_max":701,"o":"m 214 1050 l 303 1050 l 303 394 l 392 394 l 392 1050 l 481 1050 l 481 394 l 700 394 l 700 297 l 214 297 l 214 1050 z "},"╚":{"ha":694,"x_min":213,"x_max":701,"o":"m 214 1050 l 303 1050 l 303 297 l 700 297 l 700 200 l 214 200 l 214 1050 m 392 1050 l 481 1050 l 481 492 l 700 492 l 700 394 l 392 394 l 392 1050 z "},"╛":{"ha":694,"x_min":-7,"x_max":393,"o":"m -6 297 l 303 297 l 303 394 l -6 394 l -6 492 l 303 492 l 303 1050 l 392 1050 l 392 200 l -6 200 l -6 297 z "},"╜":{"ha":694,"x_min":-7,"x_max":482,"o":"m -6 394 l 214 394 l 214 1050 l 303 1050 l 303 394 l 392 394 l 392 1050 l 481 1050 l 481 297 l -6 297 l -6 394 z "},"╝":{"ha":694,"x_min":-7,"x_max":482,"o":"m -6 297 l 392 297 l 392 1050 l 481 1050 l 481 200 l -6 200 l -6 297 m -6 492 l 214 492 l 214 1050 l 303 1050 l 303 394 l -6 394 l -6 492 z "},"╞":{"ha":694,"x_min":301,"x_max":701,"o":"m 303 1050 l 392 1050 l 392 492 l 700 492 l 700 394 l 392 394 l 392 297 l 700 297 l 700 200 l 392 200 l 392 -353 l 303 -353 l 303 1050 z "},"╟":{"ha":694,"x_min":213,"x_max":701,"o":"m 214 1050 l 303 1050 l 303 -353 l 214 -353 l 214 1050 m 392 1050 l 481 1050 l 481 394 l 700 394 l 700 297 l 481 297 l 481 -353 l 392 -353 l 392 1050 z "},"╠":{"ha":694,"x_min":213,"x_max":701,"o":"m 214 1050 l 303 1050 l 303 -353 l 214 -353 l 214 1050 m 392 1050 l 481 1050 l 481 492 l 700 492 l 700 394 l 392 394 l 392 1050 m 392 297 l 700 297 l 700 200 l 481 200 l 481 -353 l 392 -353 l 392 297 z "},"╡":{"ha":694,"x_min":-7,"x_max":393,"o":"m 303 200 l -6 200 l -6 297 l 303 297 l 303 394 l -6 394 l -6 492 l 303 492 l 303 1050 l 392 1050 l 392 -353 l 303 -353 l 303 200 z "},"╢":{"ha":694,"x_min":-7,"x_max":482,"o":"m 214 297 l -6 297 l -6 394 l 214 394 l 214 1050 l 303 1050 l 303 -353 l 214 -353 l 214 297 m 392 1050 l 481 1050 l 481 -353 l 392 -353 l 392 1050 z "},"╣":{"ha":694,"x_min":-7,"x_max":482,"o":"m -6 492 l 214 492 l 214 1050 l 303 1050 l 303 394 l -6 394 l -6 492 m 392 1050 l 481 1050 l 481 -353 l 392 -353 l 392 1050 m 214 200 l -6 200 l -6 297 l 303 297 l 303 -353 l 214 -353 l 214 200 z "},"╤":{"ha":694,"x_min":-7,"x_max":701,"o":"m -6 492 l 700 492 l 700 394 l -6 394 l -6 492 m 303 200 l -6 200 l -6 297 l 700 297 l 700 200 l 392 200 l 392 -353 l 303 -353 l 303 200 z "},"╥":{"ha":694,"x_min":-7,"x_max":701,"o":"m 214 297 l -6 297 l -6 394 l 700 394 l 700 297 l 481 297 l 481 -353 l 392 -353 l 392 297 l 303 297 l 303 -353 l 214 -353 l 214 297 z "},"╦":{"ha":694,"x_min":-7,"x_max":701,"o":"m -6 492 l 700 492 l 700 394 l -6 394 l -6 492 m 214 200 l -6 200 l -6 297 l 303 297 l 303 -353 l 214 -353 l 214 200 m 392 297 l 700 297 l 700 200 l 481 200 l 481 -353 l 392 -353 l 392 297 z "},"╧":{"ha":694,"x_min":-7,"x_max":701,"o":"m -6 492 l 303 492 l 303 1050 l 392 1050 l 392 492 l 700 492 l 700 394 l -6 394 l -6 492 m -6 297 l 700 297 l 700 200 l -6 200 l -6 297 z "},"╨":{"ha":694,"x_min":-7,"x_max":701,"o":"m -6 394 l 214 394 l 214 1050 l 303 1050 l 303 394 l 392 394 l 392 1050 l 481 1050 l 481 394 l 700 394 l 700 297 l -6 297 l -6 394 z "},"╩":{"ha":694,"x_min":-7,"x_max":701,"o":"m -6 492 l 214 492 l 214 1050 l 303 1050 l 303 394 l -6 394 l -6 492 m 392 1050 l 481 1050 l 481 492 l 700 492 l 700 394 l 392 394 l 392 1050 m -6 297 l 700 297 l 700 200 l -6 200 l -6 297 z "},"╪":{"ha":694,"x_min":-7,"x_max":701,"o":"m 303 200 l -6 200 l -6 297 l 303 297 l 303 394 l -6 394 l -6 492 l 303 492 l 303 1050 l 392 1050 l 392 492 l 700 492 l 700 394 l 392 394 l 392 297 l 700 297 l 700 200 l 392 200 l 392 -353 l 303 -353 l 303 200 z "},"╫":{"ha":694,"x_min":-7,"x_max":701,"o":"m 214 297 l -6 297 l -6 394 l 214 394 l 214 1050 l 303 1050 l 303 394 l 392 394 l 392 1050 l 481 1050 l 481 394 l 700 394 l 700 297 l 481 297 l 481 -353 l 392 -353 l 392 297 l 303 297 l 303 -353 l 214 -353 l 214 297 z "},"╬":{"ha":694,"x_min":-7,"x_max":701,"o":"m -6 492 l 214 492 l 214 1050 l 303 1050 l 303 394 l -6 394 l -6 492 m 392 1050 l 481 1050 l 481 492 l 700 492 l 700 394 l 392 394 l 392 1050 m 214 200 l -6 200 l -6 297 l 303 297 l 303 -353 l 214 -353 l 214 200 m 392 297 l 700 297 l 700 200 l 481 200 l 481 -353 l 392 -353 l 392 297 z "},"╭":{"ha":694,"x_min":301,"x_max":701,"o":"m 303 156 q 325 272 303 219 q 388 360 344 325 q 492 394 431 394 l 700 394 l 700 297 l 492 297 q 392 156 392 297 l 392 -353 l 303 -353 l 303 156 z "},"╮":{"ha":694,"x_min":-7,"x_max":393,"o":"m 303 156 q 203 297 303 297 l -6 297 l -6 394 l 203 394 q 306 361 264 394 q 369 272 347 328 q 392 156 392 214 l 392 -353 l 303 -353 l 303 156 z "},"╯":{"ha":694,"x_min":-7,"x_max":393,"o":"m -6 394 l 203 394 q 303 536 303 394 l 303 1050 l 392 1050 l 392 536 q 369 417 392 475 q 306 331 347 364 q 203 297 264 297 l -6 297 l -6 394 z "},"╰":{"ha":694,"x_min":301,"x_max":701,"o":"m 492 297 q 386 331 431 297 q 325 417 344 364 q 303 536 303 475 l 303 1050 l 392 1050 l 392 536 q 492 394 392 394 l 700 394 l 700 297 l 492 297 z "},"╱":{"ha":694,"x_min":-7,"x_max":701,"o":"m 611 1047 l 700 1047 l 83 -356 l -6 -356 l 611 1047 z "},"╲":{"ha":694,"x_min":-7,"x_max":701,"o":"m -6 1047 l 83 1047 l 700 -356 l 611 -356 l -6 1047 z "},"╳":{"ha":694,"x_min":-7,"x_max":701,"o":"m 303 347 l -6 1047 l 83 1047 l 347 444 l 611 1047 l 700 1047 l 392 347 l 700 -356 l 611 -356 l 347 250 l 83 -356 l -6 -356 l 303 347 z "},"╴":{"ha":694,"x_min":-7,"x_max":349,"o":"m -6 394 l 347 394 l 347 297 l -6 297 l -6 394 z "},"╵":{"ha":694,"x_min":301,"x_max":393,"o":"m 303 1050 l 392 1050 l 392 344 l 303 344 l 303 1050 z "},"╶":{"ha":694,"x_min":347,"x_max":701,"o":"m 347 394 l 700 394 l 700 297 l 347 297 l 347 394 z "},"╷":{"ha":694,"x_min":301,"x_max":393,"o":"m 303 344 l 392 344 l 392 -353 l 303 -353 l 303 344 z "},"╸":{"ha":694,"x_min":-7,"x_max":349,"o":"m -6 247 l -6 442 l 347 442 l 347 247 l -6 247 z "},"╹":{"ha":694,"x_min":257,"x_max":438,"o":"m 258 1050 l 436 1050 l 436 344 l 258 344 l 258 1050 z "},"╺":{"ha":694,"x_min":347,"x_max":701,"o":"m 347 442 l 700 442 l 700 247 l 347 247 l 347 442 z "},"╻":{"ha":694,"x_min":257,"x_max":438,"o":"m 258 344 l 436 344 l 436 -353 l 258 -353 l 258 344 z "},"╼":{"ha":694,"x_min":-7,"x_max":701,"o":"m 358 297 l -6 297 l -6 394 l 358 394 l 358 442 l 700 442 l 700 247 l 358 247 l 358 297 z "},"╽":{"ha":694,"x_min":257,"x_max":438,"o":"m 258 344 l 303 344 l 303 1050 l 392 1050 l 392 344 l 436 344 l 436 -353 l 258 -353 l 258 344 z "},"╾":{"ha":694,"x_min":-7,"x_max":701,"o":"m -6 442 l 358 442 l 358 394 l 700 394 l 700 297 l 358 297 l 358 247 l -6 247 l -6 442 z "},"╿":{"ha":694,"x_min":257,"x_max":438,"o":"m 303 344 l 258 344 l 258 1050 l 436 1050 l 436 344 l 392 344 l 392 -353 l 303 -353 l 303 344 z "},"▀":{"ha":694,"x_min":-7,"x_max":701,"o":"m -6 1050 l 700 1050 l 700 339 l -6 339 l -6 1050 z "},"▁":{"ha":694,"x_min":-7,"x_max":701,"o":"m -6 -172 l 700 -172 l 700 -353 l -6 -353 l -6 -172 z "},"▂":{"ha":694,"x_min":-7,"x_max":701,"o":"m -6 0 l 700 0 l 700 -353 l -6 -353 l -6 0 z "},"▃":{"ha":694,"x_min":-7,"x_max":701,"o":"m -6 169 l 700 169 l 700 -353 l -6 -353 l -6 169 z "},"▄":{"ha":694,"x_min":-7,"x_max":701,"o":"m -6 339 l 700 339 l 700 -353 l -6 -353 l -6 339 z "},"▅":{"ha":694,"x_min":-7,"x_max":701,"o":"m -6 511 l 700 511 l 700 -353 l -6 -353 l -6 511 z "},"▆":{"ha":694,"x_min":-7,"x_max":701,"o":"m -6 681 l 700 681 l 700 -353 l -6 -353 l -6 681 z "},"▇":{"ha":694,"x_min":-7,"x_max":701,"o":"m -6 850 l 700 850 l 700 -353 l -6 -353 l -6 850 z "},"█":{"ha":694,"x_min":-7,"x_max":701,"o":"m -6 1050 l 700 1050 l 700 -353 l -6 -353 l -6 1050 z "},"▉":{"ha":694,"x_min":-7,"x_max":622,"o":"m -6 1050 l 622 1050 l 622 -353 l -6 -353 l -6 1050 z "},"▊":{"ha":694,"x_min":-7,"x_max":531,"o":"m -6 1050 l 531 1050 l 531 -353 l -6 -353 l -6 1050 z "},"▋":{"ha":694,"x_min":-7,"x_max":439,"o":"m -6 1050 l 439 1050 l 439 -353 l -6 -353 l -6 1050 z "},"▌":{"ha":694,"x_min":-7,"x_max":349,"o":"m -6 1050 l 347 1050 l 347 -353 l -6 -353 l -6 1050 z "},"▍":{"ha":694,"x_min":-7,"x_max":257,"o":"m -6 1050 l 256 1050 l 256 -353 l -6 -353 l -6 1050 z "},"▎":{"ha":694,"x_min":-7,"x_max":167,"o":"m -6 1050 l 167 1050 l 167 -353 l -6 -353 l -6 1050 z "},"▏":{"ha":694,"x_min":-7,"x_max":74,"o":"m -6 1050 l 72 1050 l 72 -353 l -6 -353 l -6 1050 z "},"▐":{"ha":694,"x_min":347,"x_max":701,"o":"m 347 1050 l 700 1050 l 700 -353 l 347 -353 l 347 1050 z "},"░":{"ha":694,"x_min":-7,"x_max":614,"o":"m -6 1022 l 81 1022 l 81 894 l -6 894 l -6 1022 m 347 1022 l 436 1022 l 436 894 l 347 894 l 347 1022 m 172 844 l 258 844 l 258 719 l 172 719 l 172 844 m 525 844 l 614 844 l 614 719 l 525 719 l 525 844 m -6 667 l 81 667 l 81 542 l -6 542 l -6 667 m 347 667 l 436 667 l 436 542 l 347 542 l 347 667 m 172 492 l 258 492 l 258 367 l 172 367 l 172 492 m 525 492 l 614 492 l 614 367 l 525 367 l 525 492 m -6 314 l 81 314 l 81 189 l -6 189 l -6 314 m 347 314 l 436 314 l 436 189 l 347 189 l 347 314 m 172 139 l 258 139 l 258 11 l 172 11 l 172 139 m 525 139 l 614 139 l 614 11 l 525 11 l 525 139 m -6 -39 l 81 -39 l 81 -167 l -6 -167 l -6 -39 m 347 -39 l 436 -39 l 436 -167 l 347 -167 l 347 -39 m 172 -217 l 258 -217 l 258 -342 l 172 -342 l 172 -217 m 525 -217 l 614 -217 l 614 -342 l 525 -342 l 525 -217 z "},"▒":{"ha":694,"x_min":-7,"x_max":701,"o":"m -6 1022 l 111 1022 l 111 883 l -6 883 l -6 1022 m 231 1022 l 347 1022 l 347 883 l 231 883 l 231 1022 m 464 1022 l 583 1022 l 583 883 l 464 883 l 464 1022 m 111 883 l 231 883 l 231 747 l 111 747 l 111 883 m 347 883 l 464 883 l 464 747 l 347 747 l 347 883 m 583 883 l 700 883 l 700 747 l 583 747 l 583 883 m -6 747 l 111 747 l 111 614 l -6 614 l -6 747 m 231 747 l 347 747 l 347 614 l 231 614 l 231 747 m 464 747 l 583 747 l 583 614 l 464 614 l 464 747 m 111 614 l 231 614 l 231 475 l 111 475 l 111 614 m 347 614 l 464 614 l 464 475 l 347 475 l 347 614 m 583 614 l 700 614 l 700 475 l 583 475 l 583 614 m -6 475 l 111 475 l 111 339 l -6 339 l -6 475 m 231 475 l 347 475 l 347 339 l 231 339 l 231 475 m 464 475 l 583 475 l 583 339 l 464 339 l 464 475 m 583 339 l 700 339 l 700 203 l 583 203 l 583 339 m 347 339 l 464 339 l 464 203 l 347 203 l 347 339 m 111 339 l 231 339 l 231 203 l 111 203 l 111 339 m -6 203 l 111 203 l 111 67 l -6 67 l -6 203 m 231 203 l 347 203 l 347 67 l 231 67 l 231 203 m 464 203 l 583 203 l 583 67 l 464 67 l 464 203 m 111 67 l 231 67 l 231 -69 l 111 -69 l 111 67 m 347 67 l 464 67 l 464 -69 l 347 -69 l 347 67 m 583 67 l 700 67 l 700 -69 l 583 -69 l 583 67 m -6 -69 l 111 -69 l 111 -206 l -6 -206 l -6 -69 m 231 -69 l 347 -69 l 347 -206 l 231 -206 l 231 -69 m 464 -69 l 583 -69 l 583 -206 l 464 -206 l 464 -69 m 111 -206 l 231 -206 l 231 -342 l 111 -342 l 111 -206 m 347 -206 l 464 -206 l 464 -342 l 347 -342 l 347 -206 m 583 -206 l 700 -206 l 700 -342 l 583 -342 l 583 -206 z "},"▓":{"ha":694,"x_min":-7,"x_max":701,"o":"m -6 -167 l 81 -167 l 81 -39 l -6 -39 l -6 189 l 81 189 l 81 314 l -6 314 l -6 542 l 81 542 l 81 667 l -6 667 l -6 894 l 81 894 l 81 1022 l 347 1022 l 347 894 l 436 894 l 436 1022 l 700 1022 l 700 -342 l 614 -342 l 614 -217 l 525 -217 l 525 -342 l 258 -342 l 258 -217 l 169 -217 l 169 -342 l -6 -342 l -6 -167 m 258 719 l 258 844 l 169 844 l 169 719 l 258 719 m 614 719 l 614 844 l 525 844 l 525 719 l 614 719 m 436 542 l 436 667 l 347 667 l 347 542 l 436 542 m 258 367 l 258 492 l 169 492 l 169 367 l 258 367 m 614 367 l 614 492 l 525 492 l 525 367 l 614 367 m 436 189 l 436 314 l 347 314 l 347 189 l 436 189 m 258 11 l 258 139 l 169 139 l 169 11 l 258 11 m 614 11 l 614 139 l 525 139 l 525 11 l 614 11 m 436 -167 l 436 -39 l 347 -39 l 347 -167 l 436 -167 z "},"▔":{"ha":694,"x_min":-7,"x_max":701,"o":"m -6 1050 l 700 1050 l 700 850 l -6 850 l -6 1050 z "},"▕":{"ha":694,"x_min":621,"x_max":701,"o":"m 622 1050 l 700 1050 l 700 -353 l 622 -353 l 622 1050 z "},"▖":{"ha":694,"x_min":-7,"x_max":349,"o":"m -6 339 l 347 339 l 347 -353 l -6 -353 l -6 339 z "},"▗":{"ha":694,"x_min":347,"x_max":701,"o":"m 347 339 l 700 339 l 700 -353 l 347 -353 l 347 339 z "},"▘":{"ha":694,"x_min":-7,"x_max":349,"o":"m -6 1050 l 347 1050 l 347 339 l -6 339 l -6 1050 z "},"▙":{"ha":694,"x_min":-7,"x_max":701,"o":"m -6 1050 l 347 1050 l 347 339 l 700 339 l 700 -353 l -6 -353 l -6 1050 z "},"▚":{"ha":694,"x_min":-7,"x_max":701,"o":"m -6 1050 l 347 1050 l 347 339 l -6 339 l -6 1050 m 347 339 l 700 339 l 700 -353 l 347 -353 l 347 339 z "},"▛":{"ha":694,"x_min":-7,"x_max":701,"o":"m -6 1050 l 700 1050 l 700 339 l 347 339 l 347 -353 l -6 -353 l -6 1050 z "},"▜":{"ha":694,"x_min":-7,"x_max":701,"o":"m 347 339 l -6 339 l -6 1050 l 700 1050 l 700 -353 l 347 -353 l 347 339 z "},"▝":{"ha":694,"x_min":347,"x_max":701,"o":"m 347 1050 l 700 1050 l 700 339 l 347 339 l 347 1050 z "},"▞":{"ha":694,"x_min":-7,"x_max":701,"o":"m 347 1050 l 700 1050 l 700 339 l 347 339 l 347 1050 m -6 339 l 347 339 l 347 -353 l -6 -353 l -6 339 z "},"▟":{"ha":694,"x_min":-7,"x_max":701,"o":"m -6 339 l 347 339 l 347 1050 l 700 1050 l 700 -353 l -6 -353 l -6 339 z "},"◊":{"ha":694,"x_min":47,"x_max":653,"o":"m 653 481 l 350 3 l 47 481 l 350 958 l 653 481 m 567 481 l 350 825 l 133 481 l 350 135 l 567 481 z "},"☰":{"ha":694,"x_min":35,"x_max":660,"o":"m 35 35 l 35 160 l 660 160 l 660 35 l 35 35 m 35 285 l 35 410 l 660 410 l 660 285 l 35 285 m 35 535 l 35 660 l 660 660 l 660 535 l 35 535 z "},"♥":{"ha":694,"x_min":0,"x_max":1389,"o":"m 694 -194 l 725 -253 q 694 -261 708 -261 q 664 -253 681 -261 l 663 -253 q 635 -236 649 -247 q 338 -28 481 -147 q 0 564 0 264 q 111 844 0 733 q 369 956 222 956 q 553 908 468 956 q 694 781 638 861 q 836 908 751 861 q 1019 956 921 956 q 1278 844 1167 956 q 1389 564 1389 733 q 1051 -28 1389 264 q 726 -253 901 -156 l 725 -253 l 725 -253 l 694 -194 m 369 825 q 203 751 275 825 q 131 564 131 678 q 422 72 131 322 q 694 -119 551 -39 q 967 72 838 -39 q 1258 564 1258 322 q 1186 751 1258 678 q 1019 825 1114 825 q 856 767 928 825 q 757 611 783 708 q 733 578 750 592 q 694 564 717 564 q 656 578 672 564 q 632 611 639 592 q 533 767 606 708 q 369 825 461 825 z "},"⚡":{"ha":694,"x_min":-7,"x_max":1100,"o":"m 678 1004 q 769 1042 715 1042 q 863 1003 824 1042 q 901 910 901 964 q 889 856 901 886 l 757 564 l 942 564 q 1028 536 989 564 q 1083 469 1067 508 q 1090 383 1100 431 q 1047 303 1082 338 l 410 -317 q 335 -347 379 -347 l 308 -347 q 232 -315 264 -347 q 200 -239 200 -283 q 208 -199 200 -217 l 342 131 l 153 131 q 67 158 106 131 q 11 225 28 186 q 4 310 -6 264 q 47 390 13 356 l 678 1004 m 768 911 l 138 297 q 132 282 132 292 q 153 260 132 260 l 439 260 q 486 242 467 261 q 504 194 506 222 q 499 171 504 185 l 350 -193 l 957 396 q 963 413 963 401 q 942 433 963 433 l 656 433 q 608 453 628 433 q 590 499 589 472 q 596 526 590 515 l 771 910 l 771 911 l 769 911 l 768 911 z "},"❬":{"ha":694,"x_min":179,"x_max":517,"o":"m 179 328 l 394 761 l 517 761 l 300 328 l 517 -103 l 394 -103 l 179 328 z "},"❭":{"ha":694,"x_min":179,"x_max":517,"o":"m 394 328 l 179 761 l 301 761 l 517 328 l 301 -103 l 179 -103 l 394 328 z "},"❮":{"ha":694,"x_min":114,"x_max":582,"o":"m 114 306 l 392 739 l 582 739 l 299 306 l 582 -128 l 392 -128 l 114 306 z "},"❯":{"ha":694,"x_min":114,"x_max":582,"o":"m 396 306 l 114 739 l 304 739 l 582 306 l 304 -128 l 114 -128 l 396 306 z "},"❰":{"ha":694,"x_min":111,"x_max":585,"o":"m 111 347 l 353 833 l 585 833 l 342 347 l 585 -139 l 353 -139 l 111 347 z "},"❱":{"ha":694,"x_min":111,"x_max":585,"o":"m 353 347 l 111 833 l 343 833 l 585 347 l 343 -139 l 111 -139 l 353 347 z "},"⭘":{"ha":694,"x_min":-1,"x_max":1244,"o":"m 621 968 q 182 786 365 969 q 0 346 -1 603 q 182 -93 -1 89 q 621 -275 365 -275 q 1060 -92 876 -275 q 1243 346 1243 92 q 1193 586 1243 472 q 1060 786 1143 700 q 863 919 976 869 q 621 968 749 969 m 621 756 q 911 636 792 756 q 1031 346 1031 517 q 911 56 1031 175 q 621 -62 792 -64 q 332 56 451 -64 q 213 346 213 175 q 332 636 213 517 q 621 756 451 756 z "},"":{"ha":694,"x_min":0,"x_max":1071,"o":"m 865 811 l 879 736 l 1071 736 q 1033 611 1069 683 l 901 611 l 921 469 q 996 461 949 467 q 1044 456 1043 456 l 1044 361 q 928 378 993 378 q 971 -128 960 142 l 856 -128 q 824 394 856 122 q 747 822 792 667 l 865 811 m 799 386 q 549 394 689 394 q 347 389 438 394 q 315 -128 315 8 l 201 -128 q 307 811 218 450 l 425 822 q 403 736 404 742 l 740 736 l 767 614 l 381 614 q 358 489 372 575 q 357 483 357 486 q 357 478 357 481 q 515 481 400 481 l 515 567 l 624 567 l 624 483 q 786 478 714 483 q 793 431 790 461 q 799 386 796 400 m 263 736 l 239 611 l 40 611 q 0 736 7 672 l 263 736 m 204 381 q 104 369 164 378 q 46 364 69 364 l 46 450 q 217 469 92 464 q 204 381 204 411 z "},"":{"ha":694,"x_min":0,"x_max":1039,"o":"m 815 140 l 874 158 q 878 174 875 161 q 885 213 881 186 q 889 275 889 239 q 836 449 889 379 q 700 518 783 518 l 668 436 q 796 261 763 386 q 815 140 814 203 m 504 892 l 551 557 l 565 557 l 575 700 q 615 742 589 722 q 736 783 668 783 q 928 725 864 783 q 967 668 957 699 l 743 710 q 681 625 710 676 l 700 631 q 742 636 715 636 q 953 546 867 635 q 1038 313 1039 457 q 994 86 1039 186 q 876 -74 950 -12 q 711 -165 803 -135 q 518 -197 619 -196 q 142 -56 283 -197 q 0 300 0 86 q 86 546 0 450 q 296 642 172 642 q 342 639 306 642 q 201 721 265 721 l 46 679 q 78 735 51 708 q 257 792 135 792 q 447 703 368 792 l 396 874 l 504 892 z "},"":{"ha":694,"x_min":0,"x_max":1039,"o":"m 521 -100 q 808 26 683 -99 q 935 314 933 151 q 881 475 933 415 q 738 535 828 535 q 574 481 651 535 l 468 481 q 304 535 386 535 q 161 475 214 535 q 108 314 108 415 q 233 24 108 147 q 521 -100 358 -100 m 504 892 l 551 557 l 565 557 l 575 700 q 615 742 589 722 q 736 783 668 783 q 928 725 864 783 q 967 668 957 699 l 743 710 q 681 625 710 676 l 700 631 q 742 636 715 636 q 953 546 867 635 q 1038 313 1039 457 q 994 86 1039 186 q 876 -74 950 -12 q 711 -165 803 -135 q 518 -197 619 -196 q 142 -56 283 -197 q 0 300 0 86 q 86 546 0 450 q 296 642 172 642 q 342 639 306 642 q 201 721 265 721 l 46 679 q 78 735 51 708 q 257 792 135 792 q 447 703 368 792 l 396 874 l 504 892 z "},"":{"ha":694,"x_min":0,"x_max":1039,"o":"m 558 -22 l 558 303 l 329 450 l 281 375 l 471 253 l 471 -22 l 558 -22 m 504 892 l 551 557 l 565 557 l 575 700 q 615 742 589 722 q 736 783 668 783 q 928 725 864 783 q 967 668 957 699 l 743 710 q 681 625 710 676 l 700 631 q 742 636 715 636 q 953 546 867 635 q 1038 313 1039 457 q 994 86 1039 186 q 876 -74 950 -12 q 711 -165 803 -135 q 518 -197 619 -196 q 142 -56 283 -197 q 0 300 0 86 q 86 546 0 450 q 296 642 172 642 q 342 639 306 642 q 201 721 265 721 l 46 679 q 78 735 51 708 q 257 792 135 792 q 447 703 368 792 l 396 874 l 504 892 z "},"":{"ha":694,"x_min":0,"x_max":1039,"o":"m 304 539 q 161 479 214 540 q 108 318 108 418 q 121 219 108 261 l 922 219 q 935 318 935 276 q 881 479 933 418 q 738 539 828 540 q 574 485 656 539 l 468 485 q 304 539 383 539 m 504 892 l 551 557 l 565 557 l 575 700 q 615 742 589 722 q 736 783 668 783 q 928 725 864 783 q 967 668 957 699 l 743 710 q 681 625 710 676 l 700 631 q 742 636 715 636 q 953 546 867 635 q 1038 313 1039 457 q 994 86 1039 186 q 876 -74 950 -12 q 711 -165 803 -135 q 518 -197 619 -196 q 142 -56 283 -197 q 0 300 0 86 q 86 546 0 450 q 296 642 172 642 q 342 639 306 642 q 201 721 265 721 l 46 679 q 78 735 51 708 q 257 792 135 792 q 447 703 368 792 l 396 874 l 504 892 z "},"":{"ha":694,"x_min":-1,"x_max":1089,"o":"m 392 839 q 375 797 379 819 q 408 697 367 744 q 440 611 446 650 q 413 550 435 572 q 363 511 390 528 q 338 494 338 497 q 360 558 357 533 q 357 596 363 583 q 332 636 351 608 q 299 683 313 664 q 328 792 269 736 q 392 839 354 819 m 508 886 q 494 850 499 872 q 522 761 486 806 q 551 686 557 719 q 526 633 546 653 q 485 600 507 614 q 463 586 463 586 q 482 642 479 619 q 479 674 485 664 q 456 707 474 683 q 428 750 438 731 q 453 844 403 794 q 508 886 474 867 m 863 264 q 853 254 863 264 q 843 221 843 244 q 863 178 843 197 q 910 158 882 158 q 954 176 938 158 q 971 222 971 194 q 953 264 971 244 q 910 283 935 283 q 863 264 882 283 m 764 428 l 764 322 q 910 400 815 400 q 1035 347 982 400 q 1088 222 1088 294 q 1035 97 1088 150 q 910 47 982 44 q 760 128 813 47 q 632 -100 738 -8 q 383 -192 526 -192 q 113 -85 226 -192 q 0 175 -1 22 l 0 428 q 35 458 0 458 l 729 458 q 764 428 764 458 z "},"":{"ha":694,"x_min":0,"x_max":1026,"o":"m 1026 703 l 1018 694 q 871 731 963 731 q 790 722 854 731 q 888 669 842 706 q 986 481 986 594 q 957 344 986 417 l 943 344 q 890 453 919 408 q 746 572 824 561 q 796 514 774 544 q 846 364 846 442 q 803 228 846 294 l 792 228 q 603 517 743 383 q 528 25 528 211 q 529 -3 529 14 q 529 -31 529 -19 l 547 -31 l 597 106 q 813 14 731 86 q 872 -53 847 -14 q 779 -122 839 -92 q 438 -192 646 -192 q 93 -122 229 -192 q 0 -53 32 -92 q 75 25 28 -8 q 343 114 181 106 q 485 550 374 336 q 113 408 269 533 l 101 408 q 118 475 101 433 q 167 569 135 517 q 269 664 200 622 q 429 711 339 706 q 388 733 414 722 q 276 758 332 758 q 122 714 203 758 l 115 725 q 186 806 147 772 q 394 886 285 886 q 628 806 508 886 q 678 825 656 819 q 797 844 742 844 q 1026 703 957 844 z "},"":{"ha":694,"x_min":-1,"x_max":994,"o":"m 894 401 q 968 382 943 401 q 993 333 993 363 q 968 278 993 300 q 915 247 943 256 q 860 225 885 239 q 836 192 835 211 q 851 149 835 176 q 868 101 868 121 q 832 43 868 63 q 739 24 796 24 q 657 10 688 24 q 626 -31 626 -4 q 633 -65 626 -42 q 640 -103 640 -89 q 613 -174 640 -146 q 539 -200 585 -201 q 332 -122 435 -200 q 160 69 229 -44 q 43 313 88 183 q 0 544 -1 442 q 72 796 0 699 q 244 894 144 893 q 463 711 376 894 q 651 469 543 538 q 894 401 760 401 m 146 425 q 188 454 171 424 q 204 529 204 485 q 188 604 204 574 q 146 636 171 635 q 107 604 124 635 q 90 529 90 574 q 107 454 90 485 q 146 425 124 424 m 310 513 q 318 500 310 513 q 353 488 326 488 q 396 513 379 488 q 413 574 413 538 q 396 635 413 610 q 353 661 379 660 q 310 635 326 660 q 293 574 293 610 q 310 513 293 538 z "},"":{"ha":694,"x_min":0,"x_max":1051,"o":"m 561 -14 l 561 -214 q 540 -214 554 -214 q 518 -214 526 -214 q 140 -76 279 -214 q 0 283 1 61 q 90 543 0 442 q 313 644 181 644 q 361 642 325 644 q 213 728 282 728 l 49 683 q 83 742 57 719 q 272 803 149 803 q 474 708 390 803 l 419 889 l 533 908 q 547 853 540 886 q 561 728 561 783 l 561 444 q 531 394 561 394 q 474 415 511 394 q 413 436 436 436 q 299 372 343 436 q 254 231 254 308 q 296 92 254 158 q 408 25 338 25 q 475 46 442 25 q 529 67 508 67 q 561 -14 561 67 m 719 650 l 746 650 q 965 560 879 650 q 1051 319 1051 469 q 932 -8 1051 136 q 640 -200 813 -153 l 640 36 q 615 117 640 86 q 542 147 590 147 q 456 126 492 147 q 408 106 419 106 q 354 144 374 106 q 335 231 335 183 q 357 317 335 281 q 415 353 379 353 q 461 333 428 353 q 542 314 494 314 q 613 344 585 314 q 640 425 640 375 l 640 756 q 789 803 710 803 q 965 742 913 803 q 996 681 989 714 l 774 722 q 719 650 736 681 z "},"":{"ha":694,"x_min":193,"x_max":501,"o":"m 222 -47 q 258 40 222 4 q 347 76 294 76 q 436 40 400 76 q 472 -47 472 4 q 436 -136 472 -100 q 347 -172 400 -172 q 258 -136 294 -172 q 222 -47 222 -100 m 231 269 l 194 867 l 500 867 l 464 269 q 425 206 461 228 q 347 183 389 183 q 267 208 306 183 q 231 269 231 231 z "},"":{"ha":694,"x_min":61,"x_max":633,"o":"m 201 -175 l 306 342 l 86 264 l 61 281 l 132 869 l 460 869 l 356 503 l 618 583 l 633 558 l 261 -175 l 201 -175 z "},"":{"ha":694,"x_min":65,"x_max":629,"o":"m 231 -347 l 65 -347 l 65 -58 q 113 118 65 49 q 214 210 146 167 l 306 269 q 382 353 357 303 q 404 478 406 400 l 404 676 l 279 676 l 456 882 l 629 676 l 504 676 l 504 444 q 472 268 504 329 q 376 165 440 207 l 331 133 q 256 60 272 96 q 231 -58 231 17 l 231 -347 m 231 364 l 65 257 l 65 1042 l 231 1042 l 231 364 z "},"":{"ha":694,"x_min":119,"x_max":575,"o":"m 464 464 l 464 375 l 119 375 l 119 985 l 225 985 l 225 464 l 464 464 m 467 319 l 575 319 l 575 -290 l 461 -290 l 294 106 l 308 -158 l 308 -290 l 203 -290 l 203 319 l 314 319 l 481 -78 l 467 213 l 467 319 z "},"":{"ha":694,"x_min":72,"x_max":622,"o":"m 167 -196 q 72 -100 72 -196 l 72 367 q 154 469 72 469 l 154 676 q 211 832 154 768 q 347 890 265 890 q 483 832 429 890 q 540 676 540 768 l 540 469 q 622 367 622 469 l 622 -100 q 526 -196 622 -196 l 167 -196 m 347 803 q 274 768 301 803 q 247 676 247 736 l 247 469 l 447 469 l 447 676 q 419 768 447 733 q 347 803 392 803 m 385 -36 l 385 183 q 431 258 431 206 q 407 318 431 294 q 347 343 382 343 q 288 318 313 343 q 263 258 263 293 q 308 183 263 206 l 308 -36 l 385 -36 z "},"":{"ha":694,"x_min":61,"x_max":633,"o":"m 497 315 l 633 315 l 633 -342 l 490 -342 l 282 85 l 297 -199 l 297 -342 l 164 -342 l 164 315 l 304 315 l 515 -114 l 497 200 l 497 315 m 481 471 l 481 374 l 61 374 l 61 1036 l 213 1036 l 481 1036 l 481 928 l 189 928 l 192 471 l 481 471 z "},"":{"ha":694,"x_min":-42,"x_max":693,"o":"m -42 1049 l 7 1049 l 693 349 l 7 -354 l -42 -354 l -42 1049 z "},"":{"ha":694,"x_min":0,"x_max":694,"o":"m 0 983 l 60 1042 l 694 347 l 60 -347 l 0 -287 l 579 347 l 0 983 z "},"":{"ha":694,"x_min":1,"x_max":736,"o":"m 688 -354 l 1 349 l 688 1049 l 736 1049 l 736 -354 l 688 -354 z "},"":{"ha":694,"x_min":0,"x_max":694,"o":"m 114 347 l 694 -287 l 635 -347 l 0 347 l 635 1042 l 694 983 l 114 347 z "},"":{"ha":694,"x_min":-42,"x_max":694,"o":"m -42 1049 l -42 -354 l 7 -354 q 350 -251 175 -354 q 694 346 694 -53 q 350 949 694 749 q 7 1049 176 1049 l -42 1049 z "},"":{"ha":694,"x_min":0,"x_max":694,"o":"m 139 -347 q 446 -168 317 -285 q 635 79 575 -51 q 693 346 694 211 q 547 753 693 557 q 139 1042 401 949 l 0 1042 q 410 753 264 947 q 556 346 556 557 q 410 -58 556 136 q 0 -347 264 -253 l 139 -347 z "},"":{"ha":694,"x_min":0,"x_max":736,"o":"m 688 1049 q 346 949 518 1049 q 0 349 1 749 q 346 -251 0 -53 q 688 -354 519 -354 l 736 -354 l 736 1049 l 688 1049 z "},"":{"ha":694,"x_min":1,"x_max":694,"o":"m 557 -347 q 250 -168 379 -285 q 61 79 121 -51 q 1 346 1 211 q 147 753 1 557 q 557 1042 293 949 l 694 1042 q 286 753 431 947 q 139 346 140 557 q 286 -58 139 136 q 694 -347 432 -253 l 557 -347 z "},"":{"ha":694,"x_min":-35,"x_max":694,"o":"m 13 -354 l -35 -354 l -35 1049 l 13 1049 l 694 -354 l 13 -354 z "},"":{"ha":694,"x_min":0,"x_max":693,"o":"m 693 -347 l 32 1042 l 0 1042 l 661 -347 l 693 -347 z "},"":{"ha":694,"x_min":0,"x_max":729,"o":"m 682 -354 l 729 -354 l 729 1049 l 682 1049 l 0 -354 l 682 -354 z "},"":{"ha":694,"x_min":1,"x_max":694,"o":"m 1 -347 l 663 1042 l 694 1042 l 33 -347 l 1 -347 z "},"":{"ha":694,"x_min":-35,"x_max":694,"o":"m 13 1049 l -35 1049 l -35 -354 l 13 -354 l 694 1049 l 13 1049 z "},"":{"ha":694,"x_min":0,"x_max":693,"o":"m 693 1042 l 32 -347 l 0 -347 l 661 1042 l 693 1042 z "},"":{"ha":694,"x_min":0,"x_max":729,"o":"m 682 1049 l 729 1049 l 729 -354 l 682 -354 l 0 1049 l 682 1049 z "},"":{"ha":694,"x_min":1,"x_max":694,"o":"m 1 1042 l 663 -347 l 694 -347 l 33 1042 l 1 1042 z "},"":{"ha":694,"x_min":-35,"x_max":1388,"o":"m 1121 207 q 1081 185 1113 201 q 1038 160 1050 167 q 997 138 1025 153 q 956 115 971 122 q 922 100 942 108 q 889 88 903 92 q 865 85 875 83 q 842 82 864 85 q 800 82 819 79 q 760 93 781 85 q 725 110 746 99 q 688 131 704 121 q 653 149 671 140 q 619 163 633 157 q 593 165 606 168 q 572 157 581 164 q 554 139 565 151 q 539 122 543 126 q 525 111 535 118 q 506 99 515 104 q 483 89 496 93 l 490 81 q 521 40 504 67 q 556 -3 538 14 q 600 -25 574 -19 q 725 -12 653 -37 q 518 -68 644 -71 q 457 -51 493 -68 q 394 -19 422 -35 q 331 4 367 -4 q 267 -3 294 13 q 207 -57 233 -18 q 182 -140 181 -96 l 182 -151 q 250 -128 222 -126 q 315 -157 276 -131 q 351 -175 332 -168 q 396 -187 371 -182 q 435 -196 421 -193 q 383 -211 414 -201 q 335 -228 353 -221 q 286 -239 315 -235 q 236 -233 256 -243 q 182 -243 211 -226 q 128 -286 153 -260 q 71 -332 104 -311 q 8 -354 38 -354 l -35 -354 l -35 1039 l 8 1039 q 19 1038 15 1039 q 26 1035 24 1036 q 33 1031 29 1033 q 39 1024 36 1026 q 46 1013 40 1021 q 57 997 51 1004 q 113 964 81 965 q 168 974 144 961 q 225 1014 192 986 q 376 1029 303 1075 q 353 1028 364 1029 q 332 1021 342 1026 q 317 1011 322 1015 q 300 993 311 1007 q 288 976 290 981 q 271 953 285 971 q 256 928 258 935 q 215 899 249 918 q 171 868 182 879 q 161 819 146 843 q 179 799 169 806 q 201 792 190 792 q 226 793 214 792 q 253 804 239 794 q 279 818 268 813 q 304 838 290 824 q 326 856 319 850 q 347 872 335 861 q 361 886 360 883 q 453 940 414 932 q 549 921 493 949 q 613 901 582 903 q 668 911 643 900 q 722 944 692 922 q 693 914 708 928 q 660 890 678 901 q 629 874 642 879 q 592 857 617 868 q 553 840 567 847 q 489 767 497 815 q 506 703 485 732 q 569 664 528 674 q 656 674 613 654 q 747 728 699 693 q 825 772 796 763 q 1125 728 972 828 q 1217 674 1181 692 q 1299 656 1253 657 q 1388 682 1344 654 q 1299 625 1347 638 q 1199 617 1249 611 q 1100 629 1149 622 q 997 628 1050 636 q 900 582 944 618 q 883 568 896 578 q 867 554 871 558 q 853 542 863 550 q 836 531 843 533 q 822 521 831 526 q 804 511 813 515 q 788 503 796 507 q 767 494 778 499 l 775 486 q 806 464 786 472 q 839 451 825 454 q 876 443 853 447 q 907 436 900 439 q 982 438 940 428 q 842 388 904 392 q 806 386 832 388 q 769 383 779 385 q 739 378 760 382 q 707 367 718 374 q 678 344 694 358 q 646 311 661 331 l 636 296 l 651 299 q 685 289 665 301 q 742 247 706 276 q 792 206 778 218 q 825 188 807 194 q 860 174 843 179 q 882 167 878 168 q 1121 207 928 150 z "},"":{"ha":694,"x_min":-8,"x_max":1396,"o":"m 13 1003 q 49 1032 32 1033 q 63 1031 57 1032 q 72 1026 68 1029 q 79 1021 78 1022 q 88 1007 81 1019 q 99 992 94 996 q 135 963 115 969 q 175 961 154 954 q 210 978 196 968 q 246 1003 225 988 q 408 1024 332 1069 l 364 961 l 358 961 q 338 961 343 961 q 324 954 331 961 q 314 944 317 949 q 301 924 311 940 q 282 894 292 907 q 256 864 271 878 q 232 847 242 851 q 211 836 222 842 q 199 829 200 831 l 200 824 q 221 803 208 808 q 247 799 233 796 q 275 806 263 801 q 304 822 286 808 q 331 842 322 836 q 356 864 339 849 q 374 879 372 879 q 476 939 432 929 q 574 921 521 949 q 632 903 604 904 q 679 910 660 901 q 724 936 699 918 l 726 938 q 728 938 728 939 l 742 938 q 725 899 753 931 q 674 851 700 871 q 632 824 647 832 q 582 801 617 815 q 539 783 549 788 q 519 774 529 779 q 518 765 518 769 q 535 713 514 739 q 593 678 556 686 q 671 686 632 668 q 754 735 708 703 q 835 779 800 767 q 1133 736 981 833 q 1200 699 1171 713 q 1261 675 1229 683 q 1319 671 1293 667 q 1375 692 1347 675 l 1385 690 q 1367 650 1396 682 q 1265 581 1321 600 q 1160 564 1210 561 q 1060 574 1108 567 q 964 576 1011 581 q 886 546 918 572 q 817 492 839 507 q 849 479 831 483 q 890 469 867 475 q 921 464 914 465 q 985 463 954 454 q 988 464 986 463 q 958 404 979 417 q 815 354 878 357 q 785 353 806 353 q 754 351 765 353 q 729 349 744 351 q 704 343 715 346 q 685 333 693 340 q 719 315 700 331 q 767 279 739 301 q 810 246 794 256 q 840 229 825 236 q 875 215 856 222 q 896 210 894 208 q 1122 246 942 193 l 1093 186 l 1090 186 q 1089 185 1089 186 q 1036 156 1075 176 q 976 122 997 133 q 925 96 956 111 q 874 75 894 81 q 838 68 853 68 q 819 67 833 68 q 794 65 806 65 q 765 68 783 65 q 733 76 749 71 q 675 106 715 85 q 608 138 635 126 q 568 144 582 149 q 533 110 540 117 q 553 85 540 101 q 571 58 564 68 q 592 40 578 50 q 624 28 606 31 q 739 40 674 17 q 714 -18 742 4 q 706 -22 710 -21 q 500 -75 621 -78 q 385 -35 468 -75 q 263 -11 301 6 q 240 -26 249 -18 q 221 -86 221 -44 q 289 -69 264 -65 q 349 -99 313 -74 q 382 -114 364 -108 q 425 -125 400 -119 q 463 -132 450 -129 l 422 -196 q 419 -196 421 -196 q 417 -197 418 -196 q 371 -211 400 -200 q 324 -226 342 -221 q 275 -236 306 -232 q 226 -232 244 -239 q 178 -244 207 -226 q 125 -289 150 -264 q 67 -333 100 -314 q 6 -346 33 -353 q 10 -319 -6 -344 q 15 -311 13 -315 q 49 -282 36 -281 q 94 -267 67 -286 q 149 -221 122 -247 q 208 -178 175 -196 q 269 -169 242 -161 q 325 -172 290 -176 q 301 -158 308 -164 q 240 -132 265 -135 q 186 -150 215 -129 q 171 -149 171 -160 l 171 -139 q 239 8 168 -62 q 292 49 267 36 q 358 58 322 65 q 421 38 396 51 q 479 7 446 24 q 533 -11 513 -10 q 503 26 521 0 q 471 67 485 53 l 464 75 q 467 96 457 81 q 490 122 476 111 l 503 135 q 528 144 519 142 q 539 150 535 147 q 553 165 542 153 q 574 188 564 178 q 590 201 583 197 q 625 210 610 210 q 663 201 640 211 q 701 182 685 192 q 740 158 718 172 q 778 139 764 144 q 815 129 796 131 q 854 129 833 128 q 878 131 875 131 q 939 149 896 131 q 851 147 871 139 q 764 183 786 168 q 714 222 749 193 q 658 261 679 250 q 632 271 639 272 l 617 269 q 610 285 600 265 l 625 307 l 635 321 q 683 374 660 354 q 733 403 707 393 q 771 413 760 411 q 810 415 782 414 q 746 450 768 425 l 738 457 q 743 479 732 464 q 767 507 753 494 l 779 518 q 799 525 789 521 q 817 533 807 528 q 831 542 826 539 q 847 553 836 544 q 861 564 858 561 q 878 578 864 567 q 897 593 892 589 q 953 628 924 615 q 999 646 982 640 q 1053 650 1017 651 q 1096 649 1089 650 q 1144 642 1104 647 q 1086 676 1113 658 q 803 718 940 771 q 733 678 782 710 q 639 626 686 644 q 550 617 593 607 q 483 653 507 626 q 468 721 460 681 q 494 783 472 750 q 525 817 510 804 q 567 843 544 833 q 528 858 546 849 q 467 879 494 876 q 417 869 439 881 q 365 835 394 858 q 243 747 286 765 q 150 765 178 719 q 174 844 132 796 q 190 863 181 853 q 217 883 203 874 q 243 899 231 893 q 261 910 256 906 q 311 978 296 961 q 232 951 269 981 q 169 911 196 924 q 108 899 143 897 q 50 932 74 900 q 39 949 46 939 q 31 961 32 958 q 25 965 29 963 q 18 969 21 968 q 6 971 14 969 q 10 997 -7 971 q 13 1003 11 1000 z "},"":{"ha":694,"x_min":1,"x_max":1424,"o":"m 268 207 q 308 185 276 201 q 351 160 339 167 q 392 138 364 153 q 433 115 418 122 q 468 100 447 108 q 500 88 488 92 q 524 85 514 83 q 549 82 525 85 q 590 82 571 79 q 631 93 610 85 q 665 110 644 99 q 701 131 686 121 q 736 149 717 140 q 769 163 756 157 q 797 165 783 168 q 818 157 810 164 q 835 139 825 151 q 851 122 846 126 q 864 111 856 118 q 883 99 874 104 q 907 89 893 93 l 899 81 q 868 40 885 67 q 833 -3 851 14 q 789 -25 815 -19 q 664 -12 736 -37 q 872 -68 744 -71 q 932 -51 897 -68 q 994 -19 967 -35 q 1060 4 1022 -4 q 1124 -3 1096 13 q 1183 -57 1157 -18 q 1208 -140 1210 -96 l 1207 -151 q 1139 -128 1165 -126 q 1075 -157 1113 -131 q 1039 -175 1058 -168 q 993 -187 1019 -182 q 954 -196 967 -193 q 1006 -211 975 -201 q 1056 -228 1036 -221 q 1104 -239 1075 -235 q 1154 -233 1135 -243 q 1224 -254 1185 -224 q 1303 -319 1261 -283 q 1382 -354 1344 -354 l 1424 -354 l 1424 1039 l 1382 1039 q 1371 1038 1375 1039 q 1364 1035 1367 1036 q 1357 1031 1361 1033 q 1351 1024 1354 1026 q 1344 1013 1350 1021 q 1333 997 1339 1004 q 1278 964 1310 965 q 1221 975 1246 961 q 1164 1014 1197 989 q 1013 1029 1086 1075 q 1036 1028 1025 1029 q 1057 1021 1047 1026 q 1072 1011 1067 1015 q 1089 993 1078 1007 q 1103 976 1099 981 q 1118 953 1106 971 q 1133 928 1131 935 q 1174 899 1140 918 q 1218 868 1207 879 q 1229 819 1244 843 q 1211 799 1221 806 q 1188 792 1200 792 q 1164 793 1175 792 q 1138 804 1153 794 q 1111 818 1122 813 q 1085 838 1100 824 q 1063 856 1069 850 q 1042 872 1056 861 q 1028 886 1029 883 q 936 940 975 932 q 840 921 896 949 q 776 901 807 903 q 722 911 746 900 q 668 944 699 922 q 697 914 682 928 q 731 890 713 901 q 761 874 749 879 q 799 857 774 868 q 838 840 824 847 q 901 767 893 815 q 885 703 906 732 q 821 664 863 674 q 733 674 778 654 q 642 728 689 693 q 564 772 593 763 q 264 728 417 826 q 174 674 208 693 q 90 656 138 656 q 1 682 44 654 q 90 625 42 638 q 190 617 140 611 q 289 629 240 622 q 392 628 339 636 q 489 582 444 618 q 506 568 493 578 q 522 554 518 558 q 536 542 526 550 q 553 531 546 533 q 568 521 558 526 q 585 511 578 515 q 601 503 593 507 q 622 494 611 499 l 615 486 q 585 464 604 472 q 551 451 565 454 q 514 443 536 447 q 482 436 492 439 q 408 438 450 429 q 547 388 486 392 q 583 386 557 388 q 621 383 610 385 q 650 378 631 382 q 682 367 671 374 q 711 344 694 358 q 743 311 728 331 l 754 296 l 738 299 q 704 289 724 301 q 647 247 683 276 q 597 206 611 218 q 565 188 582 194 q 529 174 549 179 q 508 167 511 168 q 268 207 461 150 z "},"":{"ha":694,"x_min":-8,"x_max":1396,"o":"m 1376 1003 q 1342 1032 1357 1033 q 1328 1031 1333 1032 q 1318 1026 1322 1029 q 1311 1021 1313 1022 q 1301 1007 1310 1019 q 1290 992 1294 996 q 1256 963 1274 969 q 1215 961 1236 954 q 1179 978 1194 968 q 1144 1003 1164 988 q 982 1024 1058 1069 l 1026 961 l 1031 961 q 1053 961 1046 961 q 1065 954 1060 961 q 1075 944 1072 949 q 1089 924 1078 940 q 1108 894 1099 907 q 1133 864 1119 878 q 1157 847 1147 851 q 1178 836 1167 842 q 1192 829 1189 831 l 1190 824 q 1169 803 1182 808 q 1142 799 1157 796 q 1115 806 1126 801 q 1086 822 1104 808 q 1060 842 1068 836 q 1033 864 1051 849 q 1015 879 1017 879 q 913 939 957 929 q 815 921 868 949 q 757 903 785 904 q 710 910 729 901 q 665 936 690 918 l 663 938 l 661 938 l 647 938 q 665 899 636 931 q 715 851 690 871 q 758 824 742 832 q 807 801 774 815 q 850 783 840 788 q 869 774 864 776 q 871 765 871 769 q 854 713 875 739 q 796 678 833 686 q 718 686 757 668 q 635 735 681 703 q 554 779 589 767 q 257 736 410 833 q 189 699 219 713 q 129 675 160 683 q 69 671 97 667 q 15 692 42 675 l 4 690 q 22 650 -7 682 q 124 581 68 600 q 229 564 178 561 q 329 574 281 567 q 425 576 378 581 q 503 546 471 572 q 572 492 550 507 q 540 479 558 483 q 499 469 522 475 q 469 464 475 465 q 404 463 436 454 l 403 464 l 400 464 q 432 404 410 417 q 575 354 513 357 q 606 353 585 353 q 636 351 625 353 q 660 349 646 351 q 686 343 674 346 q 704 333 697 340 q 671 315 689 331 q 622 279 651 301 q 578 246 593 256 q 549 229 563 236 q 514 215 533 222 q 493 210 494 208 q 267 246 447 193 l 297 186 l 299 186 q 300 185 300 186 q 354 156 314 176 q 414 122 393 133 q 465 96 435 111 q 517 75 496 81 q 551 68 538 68 q 569 67 556 68 q 596 65 583 65 q 624 68 607 65 q 656 76 640 71 q 715 106 674 85 q 781 138 756 126 q 819 144 807 149 q 856 110 839 124 q 838 85 849 101 q 818 58 826 67 q 797 40 811 50 q 765 28 783 31 q 650 40 715 17 q 676 -18 647 4 q 683 -22 681 -21 q 889 -75 768 -78 q 1004 -35 921 -75 q 1126 -11 1088 6 q 1150 -26 1140 -18 q 1167 -86 1168 -43 q 1101 -69 1124 -65 q 1040 -99 1078 -74 q 1008 -114 1025 -108 q 965 -125 990 -119 q 926 -132 940 -129 l 967 -196 q 969 -196 968 -196 q 972 -197 971 -196 q 1019 -211 989 -200 q 1067 -226 1049 -221 q 1115 -236 1085 -232 q 1164 -232 1146 -239 q 1211 -244 1183 -226 q 1265 -289 1239 -264 q 1322 -333 1290 -314 q 1383 -346 1356 -353 q 1381 -319 1394 -344 q 1375 -311 1378 -315 q 1340 -282 1353 -281 q 1293 -267 1322 -286 q 1240 -221 1265 -247 q 1181 -178 1214 -196 q 1118 -169 1147 -161 q 1064 -172 1096 -176 q 1088 -158 1083 -162 q 1149 -132 1124 -135 q 1203 -150 1174 -129 q 1219 -149 1218 -160 l 1219 -139 q 1150 8 1222 -62 q 1097 49 1122 36 q 1031 58 1067 65 q 968 38 994 51 q 910 7 942 24 q 857 -11 878 -10 q 888 26 869 0 q 918 67 906 53 l 926 75 q 922 96 933 81 q 899 122 913 111 l 886 135 q 865 142 872 140 q 854 149 860 144 q 846 156 849 153 q 835 168 843 158 q 817 188 826 178 q 799 201 807 197 q 764 210 779 210 q 726 201 749 210 q 688 182 704 192 q 649 158 672 172 q 611 139 625 144 q 575 129 593 131 q 535 129 557 128 q 511 131 513 131 q 450 149 493 131 q 538 147 518 139 q 626 183 603 168 q 676 222 642 194 q 729 261 711 249 q 757 271 749 272 l 772 269 q 779 285 789 265 l 765 307 l 754 321 q 706 374 729 354 q 657 403 682 393 q 619 413 631 411 q 579 415 608 414 q 643 450 621 425 l 650 457 q 646 479 656 464 q 622 507 636 494 l 610 518 q 586 526 597 521 q 568 536 575 532 q 549 547 561 539 q 533 560 538 556 q 514 575 529 563 q 492 593 499 589 q 438 628 465 615 q 390 646 408 640 q 338 650 372 651 q 293 649 301 650 q 246 642 285 647 q 303 676 278 658 q 588 718 449 771 q 656 678 610 710 q 750 626 703 644 q 840 617 796 607 q 906 653 883 626 q 922 721 929 681 q 894 783 918 750 q 865 817 879 804 q 822 843 846 833 q 861 858 844 849 q 924 879 894 876 q 974 869 951 881 q 1024 835 996 858 q 1139 750 1100 769 q 1239 765 1208 717 q 1217 844 1257 796 q 1200 863 1210 853 q 1174 883 1188 874 q 1146 899 1160 893 q 1129 910 1133 906 q 1078 978 1096 958 q 1158 951 1119 981 q 1221 911 1194 924 q 1281 899 1247 897 q 1340 932 1315 900 q 1351 949 1346 940 q 1358 961 1357 957 q 1364 967 1360 964 q 1371 969 1368 969 q 1383 971 1375 969 q 1382 996 1396 971 q 1376 1003 1379 999 z "},"":{"ha":694,"x_min":21,"x_max":1179,"o":"m 499 1004 l 499 917 l 585 917 l 585 1004 l 499 1004 m 489 1021 l 594 1021 q 603 1013 603 1021 l 603 908 q 594 900 603 900 l 489 900 q 481 908 481 900 l 481 1013 q 489 1021 481 1021 m 499 1004 l 499 917 l 585 917 l 585 1004 l 499 1004 m 489 1021 l 594 1021 q 603 1013 603 1021 l 603 908 q 594 900 603 900 l 489 900 q 481 908 481 900 l 481 1013 q 489 1021 481 1021 m 499 1004 l 499 917 l 585 917 l 585 1004 l 499 1004 m 489 1021 l 594 1021 q 603 1013 603 1021 l 603 908 q 594 900 603 900 l 489 900 q 481 908 481 900 l 481 1013 q 489 1021 481 1021 m 1075 1010 l 1075 911 l 1174 911 l 1174 1010 l 1075 1010 m 1072 1015 l 1176 1015 q 1179 1013 1179 1015 l 1179 908 q 1176 906 1179 906 l 1072 906 q 1069 908 1069 906 l 1069 1013 q 1072 1015 1069 1015 m 1075 1010 l 1075 911 l 1174 911 l 1174 1010 l 1075 1010 m 1072 1015 l 1176 1015 q 1179 1013 1179 1015 l 1179 908 q 1176 906 1179 906 l 1072 906 q 1069 908 1069 906 l 1069 1013 q 1072 1015 1069 1015 m 1075 1010 l 1075 911 l 1174 911 l 1174 1010 l 1075 1010 m 1072 1015 l 1176 1015 q 1179 1013 1179 1015 l 1179 908 q 1176 906 1179 906 l 1072 906 q 1069 908 1069 906 l 1069 1013 q 1072 1015 1069 1015 m 786 1013 l 890 1013 l 890 908 l 786 908 l 786 1013 m 786 1013 l 890 1013 l 890 908 l 786 908 l 786 1013 m 786 1013 l 890 1013 l 890 908 l 786 908 l 786 1013 m 636 1013 l 742 1013 l 742 908 l 636 908 l 636 1013 m 636 1013 l 742 1013 l 742 908 l 636 908 l 636 1013 m 636 1013 l 742 1013 l 742 908 l 636 908 l 636 1013 m 333 1013 l 438 1013 l 438 908 l 333 908 l 333 1013 m 333 1013 l 438 1013 l 438 908 l 333 908 l 333 1013 m 333 1013 l 438 1013 l 438 908 l 333 908 l 333 1013 m 181 1013 l 285 1013 l 285 908 l 181 908 l 181 1013 m 181 1013 l 285 1013 l 285 908 l 181 908 l 181 1013 m 181 1013 l 285 1013 l 285 908 l 181 908 l 181 1013 m 21 1013 l 125 1013 l 125 908 l 21 908 l 21 1013 m 21 1013 l 125 1013 l 125 908 l 21 908 l 21 1013 m 21 1013 l 125 1013 l 125 908 l 21 908 l 21 1013 m 494 -221 l 494 -321 l 593 -321 l 593 -221 l 494 -221 m 492 -215 l 597 -215 q 599 -218 600 -215 l 599 -322 q 597 -326 599 -325 l 492 -326 q 489 -322 489 -326 l 489 -218 q 492 -215 489 -215 m 494 -221 l 494 -321 l 593 -321 l 593 -221 l 494 -221 m 492 -215 l 597 -215 q 599 -218 600 -215 l 599 -322 q 597 -326 599 -325 l 492 -326 q 489 -322 489 -326 l 489 -218 q 492 -215 489 -215 m 494 -221 l 494 -321 l 593 -321 l 593 -221 l 494 -221 m 492 -215 l 597 -215 q 599 -218 600 -215 l 599 -322 q 597 -326 599 -325 l 492 -326 q 489 -322 489 -326 l 489 -218 q 492 -215 489 -215 m 181 -218 l 285 -218 l 285 -322 l 181 -322 l 181 -218 m 181 -218 l 285 -218 l 285 -322 l 181 -322 l 181 -218 m 181 -218 l 285 -218 l 285 -322 l 181 -322 l 181 -218 m 21 -218 l 125 -218 l 125 -322 l 21 -322 l 21 -218 m 21 -218 l 125 -218 l 125 -322 l 21 -322 l 21 -218 m 21 -218 l 125 -218 l 125 -322 l 21 -322 l 21 -218 m 1075 865 l 1075 767 l 1174 767 l 1174 865 l 1075 865 m 1072 871 l 1176 871 q 1179 868 1179 871 l 1179 764 q 1176 761 1179 761 l 1072 761 q 1069 764 1069 761 l 1069 868 q 1072 871 1069 871 m 931 201 l 931 103 l 1029 103 l 1029 201 l 931 201 m 928 207 l 1032 207 q 1035 204 1035 207 l 1035 100 q 1032 97 1035 97 l 928 97 q 925 100 925 97 l 925 204 q 928 207 925 207 m 786 868 l 890 868 l 890 764 l 786 764 l 786 868 m 789 469 l 789 369 l 886 369 l 886 469 l 789 469 m 786 475 l 890 475 q 892 471 893 475 l 892 367 q 890 365 892 364 l 786 365 q 782 367 783 365 l 782 471 q 786 475 783 475 m 789 61 l 789 -39 l 886 -39 l 886 61 l 789 61 m 786 67 l 890 67 q 892 64 893 67 l 892 -40 q 890 -43 892 -43 l 786 -43 q 782 -40 783 -43 l 782 64 q 786 67 783 67 m 647 721 l 647 639 l 729 639 l 729 721 l 647 721 m 636 744 l 742 744 q 751 732 751 744 l 751 628 q 742 617 751 617 l 636 617 q 625 628 625 617 l 625 732 q 636 744 625 744 m 647 593 l 647 510 l 729 510 l 729 593 l 647 593 m 636 614 l 742 614 q 751 604 751 614 l 751 499 q 742 488 751 488 l 636 488 q 625 499 625 488 l 625 604 q 636 614 625 614 m 636 471 l 742 471 l 742 367 l 636 367 l 636 471 m 636 339 l 742 339 l 742 235 l 636 235 l 636 339 m 647 193 l 647 111 l 729 111 l 729 193 l 647 193 m 636 215 l 742 215 q 751 204 751 215 l 751 100 q 742 89 751 89 l 636 89 q 625 100 625 89 l 625 204 q 636 215 625 215 m 492 868 l 597 868 l 597 764 l 492 764 l 492 868 m 492 732 l 597 732 l 597 628 l 492 628 l 492 732 m 506 457 l 506 381 l 582 381 l 582 457 l 506 457 m 492 486 l 597 486 q 607 481 603 486 q 611 471 611 475 l 611 367 q 606 357 611 361 q 597 353 601 353 l 492 353 q 482 358 486 353 q 478 367 478 363 l 478 471 q 482 482 478 476 q 492 486 488 486 m 492 339 l 597 339 l 597 235 l 492 235 l 492 339 m 494 61 l 494 -39 l 593 -39 l 593 61 l 494 61 m 492 67 l 597 67 q 599 64 600 67 l 599 -40 q 597 -43 599 -43 l 492 -43 q 489 -40 489 -43 l 489 64 q 492 67 489 67 m 333 868 l 438 868 l 438 764 l 333 764 l 333 868 m 333 732 l 438 732 l 438 628 l 333 628 l 333 732 m 333 -76 l 438 -76 l 438 -182 l 333 -182 l 333 -76 m 333 604 l 438 604 l 438 499 l 333 499 l 333 604 m 333 -76 l 438 -76 l 438 -182 l 333 -182 l 333 -76 m 333 471 l 438 471 l 438 367 l 333 367 l 333 471 m 333 339 l 438 339 l 438 235 l 333 235 l 333 339 m 333 64 l 438 64 l 438 -40 l 333 -40 l 333 64 m 333 -76 l 438 -76 l 438 -182 l 333 -182 l 333 -76 m 181 868 l 285 868 l 285 764 l 181 764 l 181 868 m 181 732 l 285 732 l 285 628 l 181 628 l 181 732 m 181 -76 l 285 -76 l 285 -182 l 181 -182 l 181 -76 m 181 604 l 285 604 l 285 499 l 181 499 l 181 604 m 181 -76 l 285 -76 l 285 -182 l 181 -182 l 181 -76 m 181 471 l 285 471 l 285 367 l 181 367 l 181 471 m 181 339 l 285 339 l 285 235 l 181 235 l 181 339 m 181 204 l 285 204 l 285 100 l 181 100 l 181 204 m 181 64 l 285 64 l 285 -40 l 181 -40 l 181 64 m 181 -76 l 285 -76 l 285 -182 l 181 -182 l 181 -76 m 21 868 l 125 868 l 125 764 l 21 764 l 21 868 m 21 732 l 125 732 l 125 628 l 21 628 l 21 732 m 21 -76 l 125 -76 l 125 -182 l 21 -182 l 21 -76 m 21 604 l 125 604 l 125 499 l 21 499 l 21 604 m 21 -76 l 125 -76 l 125 -182 l 21 -182 l 21 -76 m 21 471 l 125 471 l 125 367 l 21 367 l 21 471 m 21 339 l 125 339 l 125 235 l 21 235 l 21 339 m 21 204 l 125 204 l 125 100 l 21 100 l 21 204 m 21 64 l 125 64 l 125 -40 l 21 -40 l 21 64 m 21 -76 l 125 -76 l 125 -182 l 21 -182 l 21 -76 z "},"":{"ha":694,"x_min":210,"x_max":1368,"o":"m 892 1004 l 892 917 l 804 917 l 804 1004 l 892 1004 m 900 1021 l 796 1021 q 788 1013 788 1021 l 788 908 q 796 900 788 900 l 900 900 q 910 908 910 900 l 910 1013 q 900 1021 910 1021 m 892 1004 l 892 917 l 804 917 l 804 1004 l 892 1004 m 900 1021 l 796 1021 q 788 1013 788 1021 l 788 908 q 796 900 788 900 l 900 900 q 910 908 910 900 l 910 1013 q 900 1021 910 1021 m 892 1004 l 892 917 l 804 917 l 804 1004 l 892 1004 m 900 1021 l 796 1021 q 788 1013 788 1021 l 788 908 q 796 900 788 900 l 900 900 q 910 908 910 900 l 910 1013 q 900 1021 910 1021 m 314 1010 l 314 911 l 215 911 l 215 1010 l 314 1010 m 318 1015 l 213 1015 q 210 1013 210 1015 l 210 908 q 213 906 210 906 l 318 906 q 319 908 321 906 l 319 1013 q 318 1015 321 1015 m 314 1010 l 314 911 l 215 911 l 215 1010 l 314 1010 m 318 1015 l 213 1015 q 210 1013 210 1015 l 210 908 q 213 906 210 906 l 318 906 q 319 908 321 906 l 319 1013 q 318 1015 321 1015 m 314 1010 l 314 911 l 215 911 l 215 1010 l 314 1010 m 318 1015 l 213 1015 q 210 1013 210 1015 l 210 908 q 213 906 210 906 l 318 906 q 319 908 321 906 l 319 1013 q 318 1015 321 1015 m 604 1013 l 500 1013 l 500 908 l 604 908 l 604 1013 m 604 1013 l 500 1013 l 500 908 l 604 908 l 604 1013 m 604 1013 l 500 1013 l 500 908 l 604 908 l 604 1013 m 753 1013 l 649 1013 l 649 908 l 753 908 l 753 1013 m 753 1013 l 649 1013 l 649 908 l 753 908 l 753 1013 m 753 1013 l 649 1013 l 649 908 l 753 908 l 753 1013 m 1057 1013 l 953 1013 l 953 908 l 1057 908 l 1057 1013 m 1057 1013 l 953 1013 l 953 908 l 1057 908 l 1057 1013 m 1057 1013 l 953 1013 l 953 908 l 1057 908 l 1057 1013 m 1210 1013 l 1104 1013 l 1104 908 l 1210 908 l 1210 1013 m 1210 1013 l 1104 1013 l 1104 908 l 1210 908 l 1210 1013 m 1210 1013 l 1104 1013 l 1104 908 l 1210 908 l 1210 1013 m 1368 1013 l 1264 1013 l 1264 908 l 1368 908 l 1368 1013 m 1368 1013 l 1264 1013 l 1264 908 l 1368 908 l 1368 1013 m 1368 1013 l 1264 1013 l 1264 908 l 1368 908 l 1368 1013 m 896 -221 l 896 -321 l 796 -321 l 796 -221 l 896 -221 m 897 -215 l 793 -215 q 790 -218 790 -215 l 790 -322 q 793 -326 790 -325 l 897 -326 q 901 -322 900 -326 l 901 -218 q 897 -215 900 -215 m 896 -221 l 896 -321 l 796 -321 l 796 -221 l 896 -221 m 897 -215 l 793 -215 q 790 -218 790 -215 l 790 -322 q 793 -326 790 -325 l 897 -326 q 901 -322 900 -326 l 901 -218 q 897 -215 900 -215 m 896 -221 l 896 -321 l 796 -321 l 796 -221 l 896 -221 m 897 -215 l 793 -215 q 790 -218 790 -215 l 790 -322 q 793 -326 790 -325 l 897 -326 q 901 -322 900 -326 l 901 -218 q 897 -215 900 -215 m 1210 -218 l 1104 -218 l 1104 -322 l 1210 -322 l 1210 -218 m 1210 -218 l 1104 -218 l 1104 -322 l 1210 -322 l 1210 -218 m 1210 -218 l 1104 -218 l 1104 -322 l 1210 -322 l 1210 -218 m 1368 -218 l 1264 -218 l 1264 -322 l 1368 -322 l 1368 -218 m 1368 -218 l 1264 -218 l 1264 -322 l 1368 -322 l 1368 -218 m 1368 -218 l 1264 -218 l 1264 -322 l 1368 -322 l 1368 -218 m 314 865 l 314 767 l 215 767 l 215 865 l 314 865 m 318 871 l 213 871 q 210 868 210 871 l 210 764 q 213 761 210 761 l 318 761 q 319 764 321 761 l 319 868 q 318 871 321 871 m 458 201 l 458 103 l 360 103 l 360 201 l 458 201 m 463 207 l 357 207 q 354 204 354 207 l 354 100 q 357 97 354 97 l 463 97 q 464 100 465 97 l 464 204 q 463 207 465 207 m 604 868 l 500 868 l 500 764 l 604 764 l 604 868 m 600 469 l 600 369 l 503 369 l 503 469 l 600 469 m 604 475 l 500 475 q 497 471 497 475 l 497 367 q 500 365 497 364 l 604 365 q 607 367 607 365 l 607 471 q 604 475 607 475 m 600 61 l 600 -39 l 503 -39 l 503 61 l 600 61 m 604 67 l 500 67 q 497 64 497 67 l 497 -40 q 500 -43 497 -43 l 604 -43 q 607 -40 607 -43 l 607 64 q 604 67 607 67 m 742 721 l 742 639 l 661 639 l 661 721 l 742 721 m 753 744 l 649 744 q 638 732 638 744 l 638 628 q 649 617 638 617 l 753 617 q 765 628 764 617 l 765 732 q 753 744 764 744 m 742 593 l 742 510 l 661 510 l 661 593 l 742 593 m 753 614 l 649 614 q 638 604 638 614 l 638 499 q 649 488 638 488 l 753 488 q 765 499 764 488 l 765 604 q 753 614 764 614 m 753 471 l 649 471 l 649 367 l 753 367 l 753 471 m 753 339 l 649 339 l 649 235 l 753 235 l 753 339 m 742 193 l 742 111 l 661 111 l 661 193 l 742 193 m 753 215 l 649 215 q 638 204 638 215 l 638 100 q 649 89 638 89 l 753 89 q 765 100 764 89 l 765 204 q 753 215 764 215 m 897 868 l 793 868 l 793 764 l 897 764 l 897 868 m 897 732 l 793 732 l 793 628 l 897 628 l 897 732 m 883 457 l 883 381 l 807 381 l 807 457 l 883 457 m 897 486 l 793 486 q 783 481 788 486 q 779 471 779 475 l 779 367 q 785 357 779 361 q 793 353 789 353 l 897 353 q 907 358 903 353 q 911 367 911 363 l 911 471 q 907 482 911 476 q 897 486 901 486 m 897 339 l 793 339 l 793 235 l 897 235 l 897 339 m 896 61 l 896 -39 l 796 -39 l 796 61 l 896 61 m 897 67 l 793 67 q 790 64 790 67 l 790 -40 q 793 -43 790 -43 l 897 -43 q 901 -40 900 -43 l 901 64 q 897 67 900 67 m 1057 868 l 953 868 l 953 764 l 1057 764 l 1057 868 m 1057 732 l 953 732 l 953 628 l 1057 628 l 1057 732 m 1057 -76 l 953 -76 l 953 -182 l 1057 -182 l 1057 -76 m 1057 604 l 953 604 l 953 499 l 1057 499 l 1057 604 m 1057 -76 l 953 -76 l 953 -182 l 1057 -182 l 1057 -76 m 1057 471 l 953 471 l 953 367 l 1057 367 l 1057 471 m 1057 339 l 953 339 l 953 235 l 1057 235 l 1057 339 m 1057 64 l 953 64 l 953 -40 l 1057 -40 l 1057 64 m 1057 -76 l 953 -76 l 953 -182 l 1057 -182 l 1057 -76 m 1210 868 l 1104 868 l 1104 764 l 1210 764 l 1210 868 m 1210 732 l 1104 732 l 1104 628 l 1210 628 l 1210 732 m 1210 -76 l 1104 -76 l 1104 -182 l 1210 -182 l 1210 -76 m 1210 604 l 1104 604 l 1104 499 l 1210 499 l 1210 604 m 1210 -76 l 1104 -76 l 1104 -182 l 1210 -182 l 1210 -76 m 1210 471 l 1104 471 l 1104 367 l 1210 367 l 1210 471 m 1210 339 l 1104 339 l 1104 235 l 1210 235 l 1210 339 m 1210 204 l 1104 204 l 1104 100 l 1210 100 l 1210 204 m 1210 64 l 1104 64 l 1104 -40 l 1210 -40 l 1210 64 m 1210 -76 l 1104 -76 l 1104 -182 l 1210 -182 l 1210 -76 m 1368 868 l 1264 868 l 1264 764 l 1368 764 l 1368 868 m 1368 732 l 1264 732 l 1264 628 l 1368 628 l 1368 732 m 1368 -76 l 1264 -76 l 1264 -182 l 1368 -182 l 1368 -76 m 1368 604 l 1264 604 l 1264 499 l 1368 499 l 1368 604 m 1368 -76 l 1264 -76 l 1264 -182 l 1368 -182 l 1368 -76 m 1368 471 l 1264 471 l 1264 367 l 1368 367 l 1368 471 m 1368 339 l 1264 339 l 1264 235 l 1368 235 l 1368 339 m 1368 204 l 1264 204 l 1264 100 l 1368 100 l 1368 204 m 1368 64 l 1264 64 l 1264 -40 l 1368 -40 l 1368 64 m 1368 -76 l 1264 -76 l 1264 -182 l 1368 -182 l 1368 -76 z "},"":{"ha":694,"x_min":21,"x_max":1072,"o":"m 706 996 l 706 871 l 832 871 l 832 996 l 706 996 m 694 1021 l 844 1021 q 857 1008 857 1021 l 857 858 q 844 846 857 846 l 694 846 q 682 858 682 846 l 682 1008 q 694 1021 682 1021 m 706 996 l 706 871 l 832 871 l 832 996 l 706 996 m 694 1021 l 844 1021 q 857 1008 857 1021 l 857 858 q 844 846 857 846 l 694 846 q 682 858 682 846 l 682 1008 q 694 1021 682 1021 m 706 996 l 706 871 l 832 871 l 832 996 l 706 996 m 694 1021 l 844 1021 q 857 1008 857 1021 l 857 858 q 844 846 857 846 l 694 846 q 682 858 682 846 l 682 1008 q 694 1021 682 1021 m 476 1001 l 476 864 l 613 864 l 613 1001 l 476 1001 m 469 1015 l 619 1015 q 625 1008 626 1015 l 625 858 q 619 851 625 851 l 469 851 q 461 858 461 851 l 461 1008 q 469 1015 461 1015 m 476 1001 l 476 864 l 613 864 l 613 1001 l 476 1001 m 469 1015 l 619 1015 q 625 1008 626 1015 l 625 858 q 619 851 625 851 l 469 851 q 461 858 461 851 l 461 1008 q 469 1015 461 1015 m 476 1001 l 476 864 l 613 864 l 613 1001 l 476 1001 m 469 1015 l 619 1015 q 625 1008 626 1015 l 625 858 q 619 851 625 851 l 469 851 q 461 858 461 851 l 461 1008 q 469 1015 461 1015 m 250 1008 l 400 1008 l 400 858 l 250 858 l 250 1008 m 250 1008 l 400 1008 l 400 858 l 250 858 l 250 1008 m 250 1008 l 400 1008 l 400 858 l 250 858 l 250 1008 m 21 1008 l 172 1008 l 172 858 l 21 858 l 21 1008 m 21 1008 l 172 1008 l 172 858 l 21 858 l 21 1008 m 21 1008 l 172 1008 l 172 858 l 21 858 l 21 1008 m 921 586 l 921 468 l 1038 468 l 1038 586 l 921 586 m 906 619 l 1054 619 q 1067 614 1061 619 q 1071 603 1072 608 l 1071 453 q 1065 440 1071 446 q 1054 436 1060 435 l 906 436 q 893 442 899 436 q 889 453 888 447 l 889 603 q 894 615 889 610 q 906 619 900 619 m 921 -176 l 921 -294 l 1038 -294 l 1038 -176 l 921 -176 m 906 -144 l 1054 -144 q 1067 -149 1061 -144 q 1071 -160 1072 -154 l 1071 -311 q 1065 -322 1071 -318 q 1054 -326 1060 -326 l 906 -326 q 893 -322 899 -326 q 889 -311 888 -317 l 889 -160 q 894 -149 889 -153 q 906 -144 900 -144 m 704 793 l 704 656 l 842 656 l 842 793 l 704 793 m 697 807 l 847 807 q 854 800 854 807 l 854 649 q 847 642 854 642 l 697 642 q 690 649 690 642 l 690 800 q 697 807 690 807 m 717 207 l 717 96 l 826 96 l 826 207 l 717 207 m 697 247 l 847 247 q 863 240 856 247 q 868 226 868 235 l 868 75 q 861 61 868 67 q 847 56 856 56 l 697 56 q 683 61 689 56 q 678 75 678 67 l 678 226 q 683 242 678 235 q 697 247 689 247 m 469 800 l 619 800 l 619 649 l 469 649 l 469 800 m 476 596 l 476 460 l 613 460 l 613 596 l 476 596 m 469 610 l 619 610 q 625 603 626 610 l 625 453 q 619 446 625 446 l 469 446 q 461 453 461 446 l 461 603 q 469 610 461 610 m 469 417 l 619 417 l 619 267 l 469 267 l 469 417 m 483 22 l 483 -101 l 606 -101 l 606 22 l 483 22 m 469 50 l 619 50 q 628 44 625 50 q 632 35 632 39 l 632 -115 q 628 -125 632 -121 q 619 -129 624 -129 l 469 -129 q 460 -124 464 -129 q 456 -115 456 -119 l 456 35 q 460 44 456 40 q 469 50 465 50 m 250 800 l 400 800 l 400 649 l 250 649 l 250 800 m 250 603 l 400 603 l 400 453 l 250 453 l 250 603 m 250 226 l 400 226 l 400 75 l 250 75 l 250 226 m 250 35 l 400 35 l 400 -115 l 250 -115 l 250 35 m 250 -160 l 400 -160 l 400 -311 l 250 -311 l 250 -160 m 21 800 l 172 800 l 172 649 l 21 649 l 21 800 m 21 603 l 172 603 l 172 453 l 21 453 l 21 603 m 21 417 l 172 417 l 172 267 l 21 267 l 21 417 m 21 226 l 172 226 l 172 75 l 21 75 l 21 226 m 21 35 l 172 35 l 172 -115 l 21 -115 l 21 35 m 21 -160 l 172 -160 l 172 -311 l 21 -311 l 21 -160 z "},"":{"ha":694,"x_min":318,"x_max":1368,"o":"m 683 996 l 683 871 l 557 871 l 557 996 l 683 996 m 696 1021 l 546 1021 q 533 1008 533 1021 l 533 858 q 546 846 533 846 l 696 846 q 708 858 708 846 l 708 1008 q 696 1021 708 1021 m 683 996 l 683 871 l 557 871 l 557 996 l 683 996 m 696 1021 l 546 1021 q 533 1008 533 1021 l 533 858 q 546 846 533 846 l 696 846 q 708 858 708 846 l 708 1008 q 696 1021 708 1021 m 683 996 l 683 871 l 557 871 l 557 996 l 683 996 m 696 1021 l 546 1021 q 533 1008 533 1021 l 533 858 q 546 846 533 846 l 696 846 q 708 858 708 846 l 708 1008 q 696 1021 708 1021 m 914 1001 l 914 864 l 778 864 l 778 1001 l 914 1001 m 921 1015 l 771 1015 q 764 1008 764 1015 l 764 858 q 771 851 764 851 l 921 851 q 928 858 929 851 l 928 1008 q 921 1015 929 1015 m 914 1001 l 914 864 l 778 864 l 778 1001 l 914 1001 m 921 1015 l 771 1015 q 764 1008 764 1015 l 764 858 q 771 851 764 851 l 921 851 q 928 858 929 851 l 928 1008 q 921 1015 929 1015 m 914 1001 l 914 864 l 778 864 l 778 1001 l 914 1001 m 921 1015 l 771 1015 q 764 1008 764 1015 l 764 858 q 771 851 764 851 l 921 851 q 928 858 929 851 l 928 1008 q 921 1015 929 1015 m 1139 1008 l 990 1008 l 990 858 l 1139 858 l 1139 1008 m 1139 1008 l 990 1008 l 990 858 l 1139 858 l 1139 1008 m 1139 1008 l 990 1008 l 990 858 l 1139 858 l 1139 1008 m 1368 1008 l 1218 1008 l 1218 858 l 1368 858 l 1368 1008 m 1368 1008 l 1218 1008 l 1218 858 l 1368 858 l 1368 1008 m 1368 1008 l 1218 1008 l 1218 858 l 1368 858 l 1368 1008 m 469 586 l 469 468 l 351 468 l 351 586 l 469 586 m 485 619 l 335 619 q 324 614 328 619 q 318 603 318 608 l 318 453 q 324 440 318 446 q 335 436 329 435 l 485 436 q 496 442 492 436 q 501 453 501 447 l 501 603 q 496 615 501 610 q 485 619 490 619 m 469 -176 l 469 -294 l 351 -294 l 351 -176 l 469 -176 m 485 -144 l 335 -144 q 324 -149 328 -144 q 318 -160 318 -154 l 318 -311 q 324 -322 318 -318 q 335 -326 329 -326 l 485 -326 q 496 -322 492 -326 q 501 -311 501 -317 l 501 -160 q 496 -149 501 -153 q 485 -144 490 -144 m 686 793 l 686 656 l 550 656 l 550 793 l 686 793 m 693 807 l 542 807 q 536 800 535 807 l 536 649 q 542 642 536 642 l 693 642 q 699 649 700 642 l 699 800 q 693 807 700 807 m 672 207 l 672 96 l 563 96 l 563 207 l 672 207 m 693 247 l 542 247 q 528 240 533 247 q 522 226 522 235 l 522 75 q 528 61 522 67 q 542 56 533 56 l 693 56 q 707 61 701 56 q 713 75 713 67 l 713 226 q 707 242 713 235 q 693 247 701 247 m 921 800 l 771 800 l 771 649 l 921 649 l 921 800 m 914 596 l 914 460 l 778 460 l 778 596 l 914 596 m 921 610 l 771 610 q 764 603 764 610 l 764 453 q 771 446 764 446 l 921 446 q 928 453 929 446 l 928 603 q 921 610 929 610 m 921 417 l 771 417 l 771 267 l 921 267 l 921 417 m 907 22 l 907 -101 l 785 -101 l 785 22 l 907 22 m 921 50 l 771 50 q 761 44 765 50 q 758 35 757 39 l 758 -115 q 763 -125 758 -121 q 771 -129 767 -129 l 921 -129 q 931 -124 926 -129 q 935 -115 935 -119 l 935 35 q 931 44 935 40 q 921 50 925 50 m 1139 800 l 990 800 l 990 649 l 1139 649 l 1139 800 m 1139 603 l 990 603 l 990 453 l 1139 453 l 1139 603 m 1139 226 l 990 226 l 990 75 l 1139 75 l 1139 226 m 1139 35 l 990 35 l 990 -115 l 1139 -115 l 1139 35 m 1139 -160 l 990 -160 l 990 -311 l 1139 -311 l 1139 -160 m 1368 800 l 1218 800 l 1218 649 l 1368 649 l 1368 800 m 1368 603 l 1218 603 l 1218 453 l 1368 453 l 1368 603 m 1368 417 l 1218 417 l 1218 267 l 1368 267 l 1368 417 m 1368 226 l 1218 226 l 1218 75 l 1368 75 l 1368 226 m 1368 35 l 1218 35 l 1218 -115 l 1368 -115 l 1368 35 m 1368 -160 l 1218 -160 l 1218 -311 l 1368 -311 l 1368 -160 z "}}}
